<?xml version="1.0" encoding="UTF-8" standalone="no"?>
<!DOCTYPE svg PUBLIC "-//W3C//DTD SVG 1.1//EN"
 "http://www.w3.org/Graphics/SVG/1.1/DTD/svg11.dtd">
<!-- Generated by graphviz version 2.43.0 (0)
 -->
<!-- Title: G Pages: 1 -->
<svg width="3371pt" height="1909pt"
 viewBox="0.00 0.00 3370.94 1908.88" xmlns="http://www.w3.org/2000/svg" xmlns:xlink="http://www.w3.org/1999/xlink">
<g id="graph0" class="graph" transform="scale(1 1) rotate(0) translate(4 1904.88)">
<title>G</title>
<polygon fill="white" stroke="transparent" points="-4,4 -4,-1904.88 3366.94,-1904.88 3366.94,4 -4,4"/>
<!-- raw_reads -->
<g id="node1" class="node">
<title>raw_reads</title>
<ellipse fill="lightblue" stroke="lightblue" cx="274.65" cy="-1855.63" rx="149.81" ry="45.01"/>
<text text-anchor="start" x="235.15" y="-1873.43" font-family="Times,serif" font-weight="bold" font-size="14.00">raw_reads</text>
<text text-anchor="start" x="239.15" y="-1859.43" font-family="Times,serif" font-size="14.00">Type: File</text>
<text text-anchor="start" x="176.65" y="-1845.43" font-family="Times,serif" font-size="14.00">Format: edam:format_1930</text>
<text text-anchor="start" x="191.65" y="-1831.43" font-family="Times,serif" font-style="italic" font-size="14.00">long reads to assemble</text>
</g>
<!-- step_1a_filterShortReads_nano -->
<g id="node23" class="node">
<title>step_1a_filterShortReads_nano</title>
<polygon fill="grey" stroke="grey" points="761.65,-1774.37 501.65,-1774.37 501.65,-1724.37 761.65,-1724.37 761.65,-1774.37"/>
<text text-anchor="start" x="509.65" y="-1760.17" font-family="Times,serif" font-weight="bold" font-size="14.00">step_1a_filterShortReads_nano</text>
<text text-anchor="start" x="513.65" y="-1746.17" font-family="Times,serif" font-size="14.00">Run: ../tools/fastp/fastp_filter.cwl</text>
<text text-anchor="start" x="518.65" y="-1732.17" font-family="Times,serif" font-style="italic" font-size="14.00">filtering short reads (nanopore)</text>
</g>
<!-- raw_reads&#45;&gt;step_1a_filterShortReads_nano -->
<g id="edge1" class="edge">
<title>raw_reads&#45;&gt;step_1a_filterShortReads_nano</title>
<path fill="none" stroke="black" d="M380.79,-1823.63C431.27,-1808.89 491.03,-1791.43 539.57,-1777.26"/>
<polygon fill="black" stroke="black" points="540.81,-1780.54 549.43,-1774.38 538.85,-1773.82 540.81,-1780.54"/>
</g>
<!-- p1_reads -->
<g id="node2" class="node">
<title>p1_reads</title>
<ellipse fill="lightblue" stroke="lightblue" cx="3124.65" cy="-1855.63" rx="238.09" ry="45.01"/>
<text text-anchor="start" x="3089.65" y="-1873.43" font-family="Times,serif" font-weight="bold" font-size="14.00">p1_reads</text>
<text text-anchor="start" x="3089.15" y="-1859.43" font-family="Times,serif" font-size="14.00">Type: File</text>
<text text-anchor="start" x="3026.65" y="-1845.43" font-family="Times,serif" font-size="14.00">Format: edam:format_1930</text>
<text text-anchor="start" x="2964.15" y="-1831.43" font-family="Times,serif" font-style="italic" font-size="14.00">illumina paired reads to assemble (first pair)</text>
</g>
<!-- step_1b_filterShortReads_ill -->
<g id="node25" class="node">
<title>step_1b_filterShortReads_ill</title>
<polygon fill="grey" stroke="grey" points="2395.15,-1774.37 2158.15,-1774.37 2158.15,-1724.37 2395.15,-1724.37 2395.15,-1774.37"/>
<text text-anchor="start" x="2166.15" y="-1760.17" font-family="Times,serif" font-weight="bold" font-size="14.00">step_1b_filterShortReads_ill</text>
<text text-anchor="start" x="2178.65" y="-1746.17" font-family="Times,serif" font-size="14.00">Run: ../tools/fastp/fastp.cwl</text>
<text text-anchor="start" x="2168.15" y="-1732.17" font-family="Times,serif" font-style="italic" font-size="14.00">filtering short reads (illumina)</text>
</g>
<!-- p1_reads&#45;&gt;step_1b_filterShortReads_ill -->
<g id="edge7" class="edge">
<title>p1_reads&#45;&gt;step_1b_filterShortReads_ill</title>
<path fill="none" stroke="black" d="M2958.85,-1823.09C2931.77,-1818.47 2903.97,-1814.04 2877.65,-1810.37 2715.39,-1787.77 2527.34,-1770.41 2405.41,-1760.31"/>
<polygon fill="black" stroke="black" points="2405.54,-1756.81 2395.28,-1759.48 2404.96,-1763.78 2405.54,-1756.81"/>
</g>
<!-- p2_reads -->
<g id="node3" class="node">
<title>p2_reads</title>
<ellipse fill="lightblue" stroke="lightblue" cx="1743.65" cy="-1855.63" rx="251.96" ry="45.01"/>
<text text-anchor="start" x="1708.65" y="-1873.43" font-family="Times,serif" font-weight="bold" font-size="14.00">p2_reads</text>
<text text-anchor="start" x="1708.15" y="-1859.43" font-family="Times,serif" font-size="14.00">Type: File</text>
<text text-anchor="start" x="1645.65" y="-1845.43" font-family="Times,serif" font-size="14.00">Format: edam:format_1930</text>
<text text-anchor="start" x="1573.65" y="-1831.43" font-family="Times,serif" font-style="italic" font-size="14.00">illumina paired reads to assemble (second pair)</text>
</g>
<!-- p2_reads&#45;&gt;step_1b_filterShortReads_ill -->
<g id="edge8" class="edge">
<title>p2_reads&#45;&gt;step_1b_filterShortReads_ill</title>
<path fill="none" stroke="black" d="M1911.56,-1821.78C1988.06,-1806.82 2077.18,-1789.39 2148.22,-1775.49"/>
<polygon fill="black" stroke="black" points="2148.97,-1778.91 2158.12,-1773.56 2147.63,-1772.04 2148.97,-1778.91"/>
</g>
<!-- min_read_size -->
<g id="node4" class="node">
<title>min_read_size</title>
<ellipse fill="lightblue" stroke="lightblue" cx="631.65" cy="-1855.63" rx="188.6" ry="45.01"/>
<text text-anchor="start" x="576.15" y="-1873.43" font-family="Times,serif" font-weight="bold" font-size="14.00">min_read_size</text>
<text text-anchor="start" x="596.15" y="-1859.43" font-family="Times,serif" font-size="14.00">Type: int?</text>
<text text-anchor="start" x="587.15" y="-1845.43" font-family="Times,serif" font-size="14.00">Default: 200</text>
<text text-anchor="start" x="506.15" y="-1831.43" font-family="Times,serif" font-style="italic" font-size="14.00">Raw reads filter by size (nanopore)</text>
</g>
<!-- min_read_size&#45;&gt;step_1a_filterShortReads_nano -->
<g id="edge2" class="edge">
<title>min_read_size&#45;&gt;step_1a_filterShortReads_nano</title>
<path fill="none" stroke="black" d="M631.65,-1810.11C631.65,-1801.64 631.65,-1792.91 631.65,-1784.81"/>
<polygon fill="black" stroke="black" points="635.15,-1784.62 631.65,-1774.62 628.15,-1784.62 635.15,-1784.62"/>
</g>
<!-- min_read_size_ill -->
<g id="node5" class="node">
<title>min_read_size_ill</title>
<ellipse fill="lightblue" stroke="lightblue" cx="2195.65" cy="-1855.63" rx="182.37" ry="45.01"/>
<text text-anchor="start" x="2129.15" y="-1873.43" font-family="Times,serif" font-weight="bold" font-size="14.00">min_read_size_ill</text>
<text text-anchor="start" x="2160.15" y="-1859.43" font-family="Times,serif" font-size="14.00">Type: int?</text>
<text text-anchor="start" x="2155.65" y="-1845.43" font-family="Times,serif" font-size="14.00">Default: 50</text>
<text text-anchor="start" x="2074.65" y="-1831.43" font-family="Times,serif" font-style="italic" font-size="14.00">Raw reads filter by size (illumina)</text>
</g>
<!-- min_read_size_ill&#45;&gt;step_1b_filterShortReads_ill -->
<g id="edge9" class="edge">
<title>min_read_size_ill&#45;&gt;step_1b_filterShortReads_ill</title>
<path fill="none" stroke="black" d="M2229.53,-1811.02C2236.96,-1801.45 2244.7,-1791.48 2251.71,-1782.47"/>
<polygon fill="black" stroke="black" points="2254.54,-1784.53 2257.91,-1774.49 2249.01,-1780.24 2254.54,-1784.53"/>
</g>
<!-- reads_filter_bysize_nano -->
<g id="node6" class="node">
<title>reads_filter_bysize_nano</title>
<ellipse fill="lightblue" stroke="lightblue" cx="1074.65" cy="-1855.63" rx="236.35" ry="45.01"/>
<text text-anchor="start" x="978.65" y="-1873.43" font-family="Times,serif" font-weight="bold" font-size="14.00">reads_filter_bysize_nano</text>
<text text-anchor="start" x="1027.65" y="-1859.43" font-family="Times,serif" font-size="14.00">Type: string?</text>
<text text-anchor="start" x="973.65" y="-1845.43" font-family="Times,serif" font-size="14.00">Default: nano_reads_filtered</text>
<text text-anchor="start" x="915.65" y="-1831.43" font-family="Times,serif" font-style="italic" font-size="14.00">prefix for reads with length lt min_read_size</text>
</g>
<!-- reads_filter_bysize_nano&#45;&gt;step_1a_filterShortReads_nano -->
<g id="edge3" class="edge">
<title>reads_filter_bysize_nano&#45;&gt;step_1a_filterShortReads_nano</title>
<path fill="none" stroke="black" d="M928.06,-1820.13C868.04,-1806.01 799.72,-1789.92 743.8,-1776.77"/>
<polygon fill="black" stroke="black" points="744.4,-1773.31 733.87,-1774.43 742.8,-1780.13 744.4,-1773.31"/>
</g>
<!-- reads_filter_bysize_ill -->
<g id="node7" class="node">
<title>reads_filter_bysize_ill</title>
<ellipse fill="lightblue" stroke="lightblue" cx="2632.65" cy="-1855.63" rx="236.35" ry="45.01"/>
<text text-anchor="start" x="2548.15" y="-1873.43" font-family="Times,serif" font-weight="bold" font-size="14.00">reads_filter_bysize_ill</text>
<text text-anchor="start" x="2585.65" y="-1859.43" font-family="Times,serif" font-size="14.00">Type: string?</text>
<text text-anchor="start" x="2542.15" y="-1845.43" font-family="Times,serif" font-size="14.00">Default: ill_reads_filtered</text>
<text text-anchor="start" x="2473.65" y="-1831.43" font-family="Times,serif" font-style="italic" font-size="14.00">prefix for reads with length lt min_read_size</text>
</g>
<!-- reads_filter_bysize_ill&#45;&gt;step_1b_filterShortReads_ill -->
<g id="edge10" class="edge">
<title>reads_filter_bysize_ill&#45;&gt;step_1b_filterShortReads_ill</title>
<path fill="none" stroke="black" d="M2505.63,-1817.43C2460.24,-1804.14 2410.03,-1789.43 2368.21,-1777.19"/>
<polygon fill="black" stroke="black" points="2369.18,-1773.82 2358.6,-1774.37 2367.21,-1780.54 2369.18,-1773.82"/>
</g>
<!-- pilon_align -->
<g id="node8" class="node">
<title>pilon_align</title>
<ellipse fill="lightblue" stroke="lightblue" cx="1989.65" cy="-1470.21" rx="205.12" ry="45.01"/>
<text text-anchor="start" x="1946.15" y="-1488.01" font-family="Times,serif" font-weight="bold" font-size="14.00">pilon_align</text>
<text text-anchor="start" x="1942.65" y="-1474.01" font-family="Times,serif" font-size="14.00">Type: string?</text>
<text text-anchor="start" x="1902.15" y="-1460.01" font-family="Times,serif" font-size="14.00">Default: pilon_align.bam</text>
<text text-anchor="start" x="1852.65" y="-1446.01" font-family="Times,serif" font-style="italic" font-size="14.00">illumina reads alignment for polishing</text>
</g>
<!-- step_3a_polishing_illumina_align_rnd1 -->
<g id="node30" class="node">
<title>step_3a_polishing_illumina_align_rnd1</title>
<polygon fill="grey" stroke="grey" points="1916.65,-1388.95 1596.65,-1388.95 1596.65,-1338.95 1916.65,-1338.95 1916.65,-1388.95"/>
<text text-anchor="start" x="1604.65" y="-1374.75" font-family="Times,serif" font-weight="bold" font-size="14.00">step_3a_polishing_illumina_align_rnd1</text>
<text text-anchor="start" x="1641.15" y="-1360.75" font-family="Times,serif" font-size="14.00">Run: ../tools/bwa/bwa&#45;mem2.cwl</text>
<text text-anchor="start" x="1629.15" y="-1346.75" font-family="Times,serif" font-style="italic" font-size="14.00">aligning illumina reads to assembly</text>
</g>
<!-- pilon_align&#45;&gt;step_3a_polishing_illumina_align_rnd1 -->
<g id="edge22" class="edge">
<title>pilon_align&#45;&gt;step_3a_polishing_illumina_align_rnd1</title>
<path fill="none" stroke="black" d="M1900.56,-1429.34C1873.68,-1417.32 1844.73,-1404.36 1819.89,-1393.25"/>
<polygon fill="black" stroke="black" points="1821.15,-1389.98 1810.59,-1389.09 1818.29,-1396.37 1821.15,-1389.98"/>
</g>
<!-- step_4a_polishing_illumina_align_rnd2 -->
<g id="node34" class="node">
<title>step_4a_polishing_illumina_align_rnd2</title>
<polygon fill="grey" stroke="grey" points="2206.65,-1018.44 1886.65,-1018.44 1886.65,-968.44 2206.65,-968.44 2206.65,-1018.44"/>
<text text-anchor="start" x="1894.65" y="-1004.24" font-family="Times,serif" font-weight="bold" font-size="14.00">step_4a_polishing_illumina_align_rnd2</text>
<text text-anchor="start" x="1931.15" y="-990.24" font-family="Times,serif" font-size="14.00">Run: ../tools/bwa/bwa&#45;mem2.cwl</text>
<text text-anchor="start" x="1919.15" y="-976.24" font-family="Times,serif" font-style="italic" font-size="14.00">aligning illumina reads to assembly</text>
</g>
<!-- pilon_align&#45;&gt;step_4a_polishing_illumina_align_rnd2 -->
<g id="edge31" class="edge">
<title>pilon_align&#45;&gt;step_4a_polishing_illumina_align_rnd2</title>
<path fill="none" stroke="black" d="M2008.94,-1424.97C2025.48,-1383.01 2046.65,-1317.76 2046.65,-1258.7 2046.65,-1258.7 2046.65,-1258.7 2046.65,-1150.44 2046.65,-1108.47 2046.65,-1060.14 2046.65,-1028.54"/>
<polygon fill="black" stroke="black" points="2050.15,-1028.49 2046.65,-1018.49 2043.15,-1028.49 2050.15,-1028.49"/>
</g>
<!-- polish_assembly_pilon -->
<g id="node9" class="node">
<title>polish_assembly_pilon</title>
<ellipse fill="lightblue" stroke="lightblue" cx="1307.65" cy="-1257.7" rx="188.6" ry="45.01"/>
<text text-anchor="start" x="1220.15" y="-1275.5" font-family="Times,serif" font-weight="bold" font-size="14.00">polish_assembly_pilon</text>
<text text-anchor="start" x="1260.65" y="-1261.5" font-family="Times,serif" font-size="14.00">Type: string?</text>
<text text-anchor="start" x="1197.65" y="-1247.5" font-family="Times,serif" font-size="14.00">Default: assembly_polish_pilon</text>
<text text-anchor="start" x="1182.15" y="-1233.5" font-family="Times,serif" font-style="italic" font-size="14.00">polish assembly after illumina map</text>
</g>
<!-- step_3b_polishing_pilon_rnd1 -->
<g id="node32" class="node">
<title>step_3b_polishing_pilon_rnd1</title>
<polygon fill="grey" stroke="grey" points="1685.65,-1176.44 1437.65,-1176.44 1437.65,-1126.44 1685.65,-1126.44 1685.65,-1176.44"/>
<text text-anchor="start" x="1445.65" y="-1162.24" font-family="Times,serif" font-weight="bold" font-size="14.00">step_3b_polishing_pilon_rnd1</text>
<text text-anchor="start" x="1464.65" y="-1148.24" font-family="Times,serif" font-size="14.00">Run: ../tools/pilon/pilon.cwl</text>
<text text-anchor="start" x="1455.15" y="-1134.24" font-family="Times,serif" font-style="italic" font-size="14.00">polishing assembly with pilon</text>
</g>
<!-- polish_assembly_pilon&#45;&gt;step_3b_polishing_pilon_rnd1 -->
<g id="edge26" class="edge">
<title>polish_assembly_pilon&#45;&gt;step_3b_polishing_pilon_rnd1</title>
<path fill="none" stroke="black" d="M1401.14,-1218.32C1431.77,-1205.75 1465.2,-1192.03 1493.58,-1180.38"/>
<polygon fill="black" stroke="black" points="1495.08,-1183.55 1503,-1176.51 1492.42,-1177.07 1495.08,-1183.55"/>
</g>
<!-- step_4b_polishing_pilon_rnd2 -->
<g id="node36" class="node">
<title>step_4b_polishing_pilon_rnd2</title>
<polygon fill="grey" stroke="grey" points="1752.65,-860.44 1504.65,-860.44 1504.65,-810.44 1752.65,-810.44 1752.65,-860.44"/>
<text text-anchor="start" x="1512.65" y="-846.24" font-family="Times,serif" font-weight="bold" font-size="14.00">step_4b_polishing_pilon_rnd2</text>
<text text-anchor="start" x="1531.65" y="-832.24" font-family="Times,serif" font-size="14.00">Run: ../tools/pilon/pilon.cwl</text>
<text text-anchor="start" x="1522.15" y="-818.24" font-family="Times,serif" font-style="italic" font-size="14.00">polishing assembly with pilon</text>
</g>
<!-- polish_assembly_pilon&#45;&gt;step_4b_polishing_pilon_rnd2 -->
<g id="edge35" class="edge">
<title>polish_assembly_pilon&#45;&gt;step_4b_polishing_pilon_rnd2</title>
<path fill="none" stroke="black" d="M1319.84,-1212.26C1328.88,-1175.38 1339.65,-1121.4 1339.65,-1073.44 1339.65,-1073.44 1339.65,-1073.44 1339.65,-992.44 1339.65,-916.05 1418.81,-876.89 1494.27,-856.91"/>
<polygon fill="black" stroke="black" points="1495.58,-860.19 1504.41,-854.34 1493.85,-853.41 1495.58,-860.19"/>
</g>
<!-- predict_proteins -->
<g id="node10" class="node">
<title>predict_proteins</title>
<ellipse fill="lightblue" stroke="lightblue" cx="756.65" cy="-729.19" rx="217.58" ry="45.01"/>
<text text-anchor="start" x="691.65" y="-746.99" font-family="Times,serif" font-weight="bold" font-size="14.00">predict_proteins</text>
<text text-anchor="start" x="709.65" y="-732.99" font-family="Times,serif" font-size="14.00">Type: string?</text>
<text text-anchor="start" x="638.65" y="-718.99" font-family="Times,serif" font-size="14.00">Default: predicted_proteins.fasta</text>
<text text-anchor="start" x="610.65" y="-704.99" font-family="Times,serif" font-style="italic" font-size="14.00">predicted proteins from assembly (fasta)</text>
</g>
<!-- step_5a_annotation_prodigal -->
<g id="node37" class="node">
<title>step_5a_annotation_prodigal</title>
<polygon fill="grey" stroke="grey" points="1364.15,-647.93 1043.15,-647.93 1043.15,-597.93 1364.15,-597.93 1364.15,-647.93"/>
<text text-anchor="start" x="1091.15" y="-633.73" font-family="Times,serif" font-weight="bold" font-size="14.00">step_5a_annotation_prodigal</text>
<text text-anchor="start" x="1082.65" y="-619.73" font-family="Times,serif" font-size="14.00">Run: ../tools/prodigal/prodigal.cwl</text>
<text text-anchor="start" x="1051.15" y="-605.73" font-family="Times,serif" font-style="italic" font-size="14.00">predict proteins in assembly with Prodigal</text>
</g>
<!-- predict_proteins&#45;&gt;step_5a_annotation_prodigal -->
<g id="edge38" class="edge">
<title>predict_proteins&#45;&gt;step_5a_annotation_prodigal</title>
<path fill="none" stroke="black" d="M899.31,-694.91C961.14,-680.49 1032.51,-663.85 1090.59,-650.3"/>
<polygon fill="black" stroke="black" points="1091.59,-653.66 1100.53,-647.98 1090,-646.84 1091.59,-653.66"/>
</g>
<!-- predict_proteins_gbk -->
<g id="node11" class="node">
<title>predict_proteins_gbk</title>
<ellipse fill="lightblue" stroke="lightblue" cx="1203.65" cy="-729.19" rx="211.35" ry="45.01"/>
<text text-anchor="start" x="1120.65" y="-746.99" font-family="Times,serif" font-weight="bold" font-size="14.00">predict_proteins_gbk</text>
<text text-anchor="start" x="1156.65" y="-732.99" font-family="Times,serif" font-size="14.00">Type: string?</text>
<text text-anchor="start" x="1090.15" y="-718.99" font-family="Times,serif" font-size="14.00">Default: predicted_proteins.gbk</text>
<text text-anchor="start" x="1062.15" y="-704.99" font-family="Times,serif" font-style="italic" font-size="14.00">predicted proteins from assembly (gbk)</text>
</g>
<!-- predict_proteins_gbk&#45;&gt;step_5a_annotation_prodigal -->
<g id="edge39" class="edge">
<title>predict_proteins_gbk&#45;&gt;step_5a_annotation_prodigal</title>
<path fill="none" stroke="black" d="M1203.65,-683.67C1203.65,-675.2 1203.65,-666.46 1203.65,-658.37"/>
<polygon fill="black" stroke="black" points="1207.15,-658.18 1203.65,-648.18 1200.15,-658.18 1207.15,-658.18"/>
</g>
<!-- uniprot_index -->
<g id="node12" class="node">
<title>uniprot_index</title>
<ellipse fill="lightblue" stroke="lightblue" cx="241.65" cy="-516.68" rx="149.81" ry="45.01"/>
<text text-anchor="start" x="187.15" y="-534.48" font-family="Times,serif" font-weight="bold" font-size="14.00">uniprot_index</text>
<text text-anchor="start" x="206.15" y="-520.48" font-family="Times,serif" font-size="14.00">Type: File</text>
<text text-anchor="start" x="143.65" y="-506.48" font-family="Times,serif" font-size="14.00">Default: ../db/uniprot.dmnd</text>
<text text-anchor="start" x="179.65" y="-492.48" font-family="Times,serif" font-style="italic" font-size="14.00">uniprot index file</text>
</g>
<!-- step_5d_annotation_diamond -->
<g id="node39" class="node">
<title>step_5d_annotation_diamond</title>
<polygon fill="grey" stroke="grey" points="743.15,-435.42 448.15,-435.42 448.15,-385.42 743.15,-385.42 743.15,-435.42"/>
<text text-anchor="start" x="481.15" y="-421.22" font-family="Times,serif" font-weight="bold" font-size="14.00">step_5d_annotation_diamond</text>
<text text-anchor="start" x="472.15" y="-407.22" font-family="Times,serif" font-size="14.00">Run: ../tools/diamond/diamond.cwl</text>
<text text-anchor="start" x="456.15" y="-393.22" font-family="Times,serif" font-style="italic" font-size="14.00">search Uniprot database with diamond</text>
</g>
<!-- uniprot_index&#45;&gt;step_5d_annotation_diamond -->
<g id="edge44" class="edge">
<title>uniprot_index&#45;&gt;step_5d_annotation_diamond</title>
<path fill="none" stroke="black" d="M347.38,-484.54C397.32,-469.83 456.34,-452.45 504.31,-438.32"/>
<polygon fill="black" stroke="black" points="505.45,-441.63 514.06,-435.45 503.47,-434.92 505.45,-441.63"/>
</g>
<!-- diamond_out -->
<g id="node13" class="node">
<title>diamond_out</title>
<ellipse fill="lightblue" stroke="lightblue" cx="595.65" cy="-516.68" rx="185.94" ry="45.01"/>
<text text-anchor="start" x="544.65" y="-534.48" font-family="Times,serif" font-weight="bold" font-size="14.00">diamond_out</text>
<text text-anchor="start" x="548.65" y="-520.48" font-family="Times,serif" font-size="14.00">Type: string?</text>
<text text-anchor="start" x="472.15" y="-506.48" font-family="Times,serif" font-size="14.00">Default: predict_proteins_align.tsv</text>
<text text-anchor="start" x="506.65" y="-492.48" font-family="Times,serif" font-style="italic" font-size="14.00">proteins align to Uniprot</text>
</g>
<!-- diamond_out&#45;&gt;step_5d_annotation_diamond -->
<g id="edge42" class="edge">
<title>diamond_out&#45;&gt;step_5d_annotation_diamond</title>
<path fill="none" stroke="black" d="M595.65,-471.16C595.65,-462.69 595.65,-453.95 595.65,-445.86"/>
<polygon fill="black" stroke="black" points="599.15,-445.67 595.65,-435.67 592.15,-445.67 599.15,-445.67"/>
</g>
<!-- ideel_out -->
<g id="node14" class="node">
<title>ideel_out</title>
<ellipse fill="lightblue" stroke="lightblue" cx="189.65" cy="-304.17" rx="176.14" ry="45.01"/>
<text text-anchor="start" x="153.65" y="-321.97" font-family="Times,serif" font-weight="bold" font-size="14.00">ideel_out</text>
<text text-anchor="start" x="142.65" y="-307.97" font-family="Times,serif" font-size="14.00">Type: string?</text>
<text text-anchor="start" x="101.65" y="-293.97" font-family="Times,serif" font-size="14.00">Default: ideel_report.pdf</text>
<text text-anchor="start" x="73.15" y="-279.97" font-family="Times,serif" font-style="italic" font-size="14.00">protein completeness evaluation</text>
</g>
<!-- step_5e_annotation_ideel -->
<g id="node40" class="node">
<title>step_5e_annotation_ideel</title>
<polygon fill="grey" stroke="grey" points="534.65,-222.91 250.65,-222.91 250.65,-172.91 534.65,-172.91 534.65,-222.91"/>
<text text-anchor="start" x="293.65" y="-208.71" font-family="Times,serif" font-weight="bold" font-size="14.00">step_5e_annotation_ideel</text>
<text text-anchor="start" x="288.65" y="-194.71" font-family="Times,serif" font-size="14.00">Run: ../tools/ideel/ideelPy.cwl</text>
<text text-anchor="start" x="258.65" y="-180.71" font-family="Times,serif" font-style="italic" font-size="14.00">ideel report for protein completeness</text>
</g>
<!-- ideel_out&#45;&gt;step_5e_annotation_ideel -->
<g id="edge47" class="edge">
<title>ideel_out&#45;&gt;step_5e_annotation_ideel</title>
<path fill="none" stroke="black" d="M266.97,-263.45C290.21,-251.52 315.24,-238.67 336.8,-227.59"/>
<polygon fill="black" stroke="black" points="338.51,-230.65 345.81,-222.97 335.31,-224.42 338.51,-230.65"/>
</g>
<!-- step_1a_filterShortReads_nano__qchtml -->
<g id="node15" class="node">
<title>step_1a_filterShortReads_nano__qchtml</title>
<ellipse fill="red" stroke="red" cx="631.65" cy="-1662.92" rx="206.45" ry="25.41"/>
<text text-anchor="start" x="519.65" y="-1666.72" font-family="Times,serif" font-weight="bold" font-size="14.00">filtered_reads_nano_qc_html</text>
<text text-anchor="start" x="493.65" y="-1652.72" font-family="Times,serif" font-size="14.00">step_1a_filterShortReads_nano/qchtml</text>
</g>
<!-- step_1a_filterShortReads_nano__qcjson -->
<g id="node16" class="node">
<title>step_1a_filterShortReads_nano__qcjson</title>
<ellipse fill="red" stroke="red" cx="203.65" cy="-1662.92" rx="203.79" ry="25.41"/>
<text text-anchor="start" x="93.65" y="-1666.72" font-family="Times,serif" font-weight="bold" font-size="14.00">filtered_reads_nano_qc_json</text>
<text text-anchor="start" x="67.65" y="-1652.72" font-family="Times,serif" font-size="14.00">step_1a_filterShortReads_nano/qcjson</text>
</g>
<!-- step_1b_filterShortReads_ill__qchtml -->
<g id="node17" class="node">
<title>step_1b_filterShortReads_ill__qchtml</title>
<ellipse fill="red" stroke="red" cx="2778.65" cy="-1662.92" rx="192.17" ry="25.41"/>
<text text-anchor="start" x="2678.15" y="-1666.72" font-family="Times,serif" font-weight="bold" font-size="14.00">filtered_reads_ill_qc_html</text>
<text text-anchor="start" x="2650.65" y="-1652.72" font-family="Times,serif" font-size="14.00">step_1b_filterShortReads_ill/qchtml</text>
</g>
<!-- step_1b_filterShortReads_ill__qcjson -->
<g id="node18" class="node">
<title>step_1b_filterShortReads_ill__qcjson</title>
<ellipse fill="red" stroke="red" cx="1941.65" cy="-1662.92" rx="189.51" ry="25.41"/>
<text text-anchor="start" x="1843.65" y="-1666.72" font-family="Times,serif" font-weight="bold" font-size="14.00">filtered_reads_ill_qc_json</text>
<text text-anchor="start" x="1815.65" y="-1652.72" font-family="Times,serif" font-size="14.00">step_1b_filterShortReads_ill/qcjson</text>
</g>
<!-- step_4b_polishing_pilon_rnd2__outfile -->
<g id="node19" class="node">
<title>step_4b_polishing_pilon_rnd2__outfile</title>
<ellipse fill="red" stroke="red" cx="1628.65" cy="-729.19" rx="195.74" ry="25.41"/>
<text text-anchor="start" x="1570.65" y="-732.99" font-family="Times,serif" font-weight="bold" font-size="14.00">assemblyFasta</text>
<text text-anchor="start" x="1498.15" y="-718.99" font-family="Times,serif" font-size="14.00">step_4b_polishing_pilon_rnd2/outfile</text>
</g>
<!-- step_4b_polishing_pilon_rnd2__outfile&#45;&gt;step_5a_annotation_prodigal -->
<g id="edge37" class="edge">
<title>step_4b_polishing_pilon_rnd2__outfile&#45;&gt;step_5a_annotation_prodigal</title>
<path fill="none" stroke="black" d="M1540.07,-706.46C1473.62,-690.16 1382.32,-667.76 1311.6,-650.41"/>
<polygon fill="black" stroke="black" points="1312.3,-646.98 1301.76,-648 1310.64,-653.78 1312.3,-646.98"/>
</g>
<!-- step_5a_annotation_prodigal__outProt -->
<g id="node20" class="node">
<title>step_5a_annotation_prodigal__outProt</title>
<ellipse fill="red" stroke="red" cx="996.65" cy="-516.68" rx="197.07" ry="25.41"/>
<text text-anchor="start" x="934.65" y="-520.48" font-family="Times,serif" font-weight="bold" font-size="14.00">predictProteins</text>
<text text-anchor="start" x="865.15" y="-506.48" font-family="Times,serif" font-size="14.00">step_5a_annotation_prodigal/outProt</text>
</g>
<!-- step_5a_annotation_prodigal__outProt&#45;&gt;step_5d_annotation_diamond -->
<g id="edge43" class="edge">
<title>step_5a_annotation_prodigal__outProt&#45;&gt;step_5d_annotation_diamond</title>
<path fill="none" stroke="black" d="M911.6,-493.57C849.28,-477.36 764.38,-455.29 698.28,-438.11"/>
<polygon fill="black" stroke="black" points="698.82,-434.63 688.26,-435.5 697.06,-441.4 698.82,-434.63"/>
</g>
<!-- step_5d_annotation_diamond__alignment -->
<g id="node21" class="node">
<title>step_5d_annotation_diamond__alignment</title>
<ellipse fill="red" stroke="red" cx="595.65" cy="-304.17" rx="212.26" ry="25.41"/>
<text text-anchor="start" x="540.65" y="-307.97" font-family="Times,serif" font-weight="bold" font-size="14.00">diamondAlign</text>
<text text-anchor="start" x="453.65" y="-293.97" font-family="Times,serif" font-size="14.00">step_5d_annotation_diamond/alignment</text>
</g>
<!-- step_5d_annotation_diamond__alignment&#45;&gt;step_5e_annotation_ideel -->
<g id="edge46" class="edge">
<title>step_5d_annotation_diamond__alignment&#45;&gt;step_5e_annotation_ideel</title>
<path fill="none" stroke="black" d="M549.07,-279.25C519.24,-263.93 480.35,-243.96 448.81,-227.76"/>
<polygon fill="black" stroke="black" points="450.2,-224.53 439.71,-223.08 447,-230.76 450.2,-224.53"/>
</g>
<!-- step_5e_annotation_ideel__outFig -->
<g id="node22" class="node">
<title>step_5e_annotation_ideel__outFig</title>
<ellipse fill="red" stroke="red" cx="392.65" cy="-111.46" rx="174.81" ry="25.41"/>
<text text-anchor="start" x="357.15" y="-115.26" font-family="Times,serif" font-weight="bold" font-size="14.00">ideelPDF</text>
<text text-anchor="start" x="277.15" y="-101.26" font-family="Times,serif" font-size="14.00">step_5e_annotation_ideel/outFig</text>
</g>
<!-- step_1a_filterShortReads_nano&#45;&gt;step_1a_filterShortReads_nano__qchtml -->
<g id="edge6" class="edge">
<title>step_1a_filterShortReads_nano&#45;&gt;step_1a_filterShortReads_nano__qchtml</title>
<path fill="none" stroke="black" d="M631.65,-1723.94C631.65,-1716.05 631.65,-1707.13 631.65,-1698.64"/>
<polygon fill="black" stroke="black" points="635.15,-1698.58 631.65,-1688.58 628.15,-1698.58 635.15,-1698.58"/>
</g>
<!-- step_1a_filterShortReads_nano&#45;&gt;step_1a_filterShortReads_nano__qcjson -->
<g id="edge5" class="edge">
<title>step_1a_filterShortReads_nano&#45;&gt;step_1a_filterShortReads_nano__qcjson</title>
<path fill="none" stroke="black" d="M509.86,-1724.34C450.06,-1712.54 378.38,-1698.4 319.41,-1686.76"/>
<polygon fill="black" stroke="black" points="319.8,-1683.27 309.31,-1684.77 318.44,-1690.14 319.8,-1683.27"/>
</g>
<!-- step_1a_filterShortReads_nano__outReads -->
<g id="node24" class="node">
<title>step_1a_filterShortReads_nano__outReads</title>
<ellipse fill="none" stroke="grey" cx="1076.65" cy="-1662.92" rx="220.16" ry="18"/>
<text text-anchor="start" x="915.15" y="-1660.22" font-family="Times,serif" font-weight="bold" font-size="14.00">step_1a_filterShortReads_nano/outReads</text>
</g>
<!-- step_1a_filterShortReads_nano&#45;&gt;step_1a_filterShortReads_nano__outReads -->
<g id="edge4" class="edge">
<title>step_1a_filterShortReads_nano&#45;&gt;step_1a_filterShortReads_nano__outReads</title>
<path fill="none" stroke="black" d="M758.27,-1724.34C830.12,-1710.7 918.46,-1693.94 983.84,-1681.53"/>
<polygon fill="black" stroke="black" points="984.55,-1684.96 993.73,-1679.65 983.25,-1678.08 984.55,-1684.96"/>
</g>
<!-- step_2_assembly -->
<g id="node28" class="node">
<title>step_2_assembly</title>
<polygon fill="grey" stroke="grey" points="1644.15,-1601.46 1405.15,-1601.46 1405.15,-1551.46 1644.15,-1551.46 1644.15,-1601.46"/>
<text text-anchor="start" x="1459.65" y="-1587.26" font-family="Times,serif" font-weight="bold" font-size="14.00">step_2_assembly</text>
<text text-anchor="start" x="1413.15" y="-1573.26" font-family="Times,serif" font-size="14.00">Run: ../tools/spades/spades.cwl</text>
<text text-anchor="start" x="1418.65" y="-1559.26" font-family="Times,serif" font-style="italic" font-size="14.00">hybrid assembly with SPAdes</text>
</g>
<!-- step_1a_filterShortReads_nano__outReads&#45;&gt;step_2_assembly -->
<g id="edge15" class="edge">
<title>step_1a_filterShortReads_nano__outReads&#45;&gt;step_2_assembly</title>
<path fill="none" stroke="black" d="M1159.86,-1646.23C1225.85,-1633.79 1319.26,-1616.18 1395.03,-1601.89"/>
<polygon fill="black" stroke="black" points="1395.95,-1605.28 1405.13,-1599.99 1394.65,-1598.4 1395.95,-1605.28"/>
</g>
<!-- step_1b_filterShortReads_ill&#45;&gt;step_1b_filterShortReads_ill__qchtml -->
<g id="edge14" class="edge">
<title>step_1b_filterShortReads_ill&#45;&gt;step_1b_filterShortReads_ill__qchtml</title>
<path fill="none" stroke="black" d="M2395.3,-1728.41C2473,-1715.34 2574.41,-1698.28 2653.41,-1684.99"/>
<polygon fill="black" stroke="black" points="2654.14,-1688.41 2663.42,-1683.3 2652.97,-1681.51 2654.14,-1688.41"/>
</g>
<!-- step_1b_filterShortReads_ill&#45;&gt;step_1b_filterShortReads_ill__qcjson -->
<g id="edge13" class="edge">
<title>step_1b_filterShortReads_ill&#45;&gt;step_1b_filterShortReads_ill__qcjson</title>
<path fill="none" stroke="black" d="M2181.1,-1724.28C2136.14,-1712.95 2082.66,-1699.47 2037.65,-1688.12"/>
<polygon fill="black" stroke="black" points="2038.43,-1684.71 2027.88,-1685.66 2036.72,-1691.49 2038.43,-1684.71"/>
</g>
<!-- step_1b_filterShortReads_ill__outreads1 -->
<g id="node26" class="node">
<title>step_1b_filterShortReads_ill__outreads1</title>
<ellipse fill="none" stroke="grey" cx="1524.65" cy="-1662.92" rx="209.06" ry="18"/>
<text text-anchor="start" x="1371.65" y="-1660.22" font-family="Times,serif" font-weight="bold" font-size="14.00">step_1b_filterShortReads_ill/outreads1</text>
</g>
<!-- step_1b_filterShortReads_ill&#45;&gt;step_1b_filterShortReads_ill__outreads1 -->
<g id="edge11" class="edge">
<title>step_1b_filterShortReads_ill&#45;&gt;step_1b_filterShortReads_ill__outreads1</title>
<path fill="none" stroke="black" d="M2157.91,-1735.04C2021.49,-1719.72 1798.29,-1694.65 1656.57,-1678.73"/>
<polygon fill="black" stroke="black" points="1656.83,-1675.24 1646.5,-1677.6 1656.05,-1682.2 1656.83,-1675.24"/>
</g>
<!-- step_1b_filterShortReads_ill__outreads2 -->
<g id="node27" class="node">
<title>step_1b_filterShortReads_ill__outreads2</title>
<ellipse fill="none" stroke="grey" cx="2358.65" cy="-1662.92" rx="209.06" ry="18"/>
<text text-anchor="start" x="2205.65" y="-1660.22" font-family="Times,serif" font-weight="bold" font-size="14.00">step_1b_filterShortReads_ill/outreads2</text>
</g>
<!-- step_1b_filterShortReads_ill&#45;&gt;step_1b_filterShortReads_ill__outreads2 -->
<g id="edge12" class="edge">
<title>step_1b_filterShortReads_ill&#45;&gt;step_1b_filterShortReads_ill__outreads2</title>
<path fill="none" stroke="black" d="M2300.36,-1723.94C2311.2,-1712.78 2324.01,-1699.59 2334.86,-1688.42"/>
<polygon fill="black" stroke="black" points="2337.55,-1690.67 2342,-1681.06 2332.53,-1685.79 2337.55,-1690.67"/>
</g>
<!-- step_1b_filterShortReads_ill__outreads1&#45;&gt;step_2_assembly -->
<g id="edge16" class="edge">
<title>step_1b_filterShortReads_ill__outreads1&#45;&gt;step_2_assembly</title>
<path fill="none" stroke="black" d="M1524.65,-1644.82C1524.65,-1635.3 1524.65,-1623.1 1524.65,-1611.71"/>
<polygon fill="black" stroke="black" points="1528.15,-1611.57 1524.65,-1601.57 1521.15,-1611.57 1528.15,-1611.57"/>
</g>
<!-- step_1b_filterShortReads_ill__outreads1&#45;&gt;step_3a_polishing_illumina_align_rnd1 -->
<g id="edge19" class="edge">
<title>step_1b_filterShortReads_ill__outreads1&#45;&gt;step_3a_polishing_illumina_align_rnd1</title>
<path fill="none" stroke="black" d="M1577.74,-1645.5C1602.7,-1635.75 1631.55,-1621.35 1652.65,-1601.46 1683.58,-1572.3 1725.71,-1456.68 1745.51,-1398.6"/>
<polygon fill="black" stroke="black" points="1748.83,-1399.72 1748.72,-1389.13 1742.2,-1397.48 1748.83,-1399.72"/>
</g>
<!-- step_1b_filterShortReads_ill__outreads1&#45;&gt;step_4a_polishing_illumina_align_rnd2 -->
<g id="edge28" class="edge">
<title>step_1b_filterShortReads_ill__outreads1&#45;&gt;step_4a_polishing_illumina_align_rnd2</title>
<path fill="none" stroke="black" d="M1623.41,-1647.03C1802.15,-1619.18 2164.53,-1558.13 2203.65,-1515.46 2249.21,-1465.76 2222.65,-1432.37 2222.65,-1364.95 2222.65,-1364.95 2222.65,-1364.95 2222.65,-1150.44 2222.65,-1090.86 2165.47,-1048.52 2116.29,-1023.12"/>
<polygon fill="black" stroke="black" points="2117.72,-1019.92 2107.22,-1018.57 2114.59,-1026.18 2117.72,-1019.92"/>
</g>
<!-- step_1b_filterShortReads_ill__outreads2&#45;&gt;step_2_assembly -->
<g id="edge17" class="edge">
<title>step_1b_filterShortReads_ill__outreads2&#45;&gt;step_2_assembly</title>
<path fill="none" stroke="black" d="M2238.75,-1648.15C2206.87,-1644.57 2172.46,-1640.79 2140.65,-1637.46 1972.74,-1619.87 1778.9,-1601.27 1654.21,-1589.52"/>
<polygon fill="black" stroke="black" points="1654.51,-1586.04 1644.23,-1588.59 1653.86,-1593.01 1654.51,-1586.04"/>
</g>
<!-- step_1b_filterShortReads_ill__outreads2&#45;&gt;step_3a_polishing_illumina_align_rnd1 -->
<g id="edge20" class="edge">
<title>step_1b_filterShortReads_ill__outreads2&#45;&gt;step_3a_polishing_illumina_align_rnd1</title>
<path fill="none" stroke="black" d="M2240.63,-1648C2088.56,-1627.52 1836.47,-1584.09 1775.65,-1515.46 1747.75,-1483.98 1747.27,-1433.19 1750.85,-1399.45"/>
<polygon fill="black" stroke="black" points="1754.37,-1399.49 1752.13,-1389.14 1747.42,-1398.63 1754.37,-1399.49"/>
</g>
<!-- step_1b_filterShortReads_ill__outreads2&#45;&gt;step_4a_polishing_illumina_align_rnd2 -->
<g id="edge29" class="edge">
<title>step_1b_filterShortReads_ill__outreads2&#45;&gt;step_4a_polishing_illumina_align_rnd2</title>
<path fill="none" stroke="black" d="M2351.1,-1644.68C2337.35,-1611.69 2309.65,-1537.01 2309.65,-1471.21 2309.65,-1471.21 2309.65,-1471.21 2309.65,-1150.44 2309.65,-1082.64 2244.19,-1043.66 2178.58,-1021.62"/>
<polygon fill="black" stroke="black" points="2179.5,-1018.24 2168.91,-1018.49 2177.34,-1024.9 2179.5,-1018.24"/>
</g>
<!-- step_2_assembly__contigs_fasta -->
<g id="node29" class="node">
<title>step_2_assembly__contigs_fasta</title>
<ellipse fill="none" stroke="grey" cx="1524.65" cy="-1470.21" rx="165.97" ry="18"/>
<text text-anchor="start" x="1405.15" y="-1467.51" font-family="Times,serif" font-weight="bold" font-size="14.00">step_2_assembly/contigs_fasta</text>
</g>
<!-- step_2_assembly&#45;&gt;step_2_assembly__contigs_fasta -->
<g id="edge18" class="edge">
<title>step_2_assembly&#45;&gt;step_2_assembly__contigs_fasta</title>
<path fill="none" stroke="black" d="M1524.65,-1551.28C1524.65,-1535.49 1524.65,-1514.84 1524.65,-1498.47"/>
<polygon fill="black" stroke="black" points="1528.15,-1498.42 1524.65,-1488.42 1521.15,-1498.42 1528.15,-1498.42"/>
</g>
<!-- step_2_assembly__contigs_fasta&#45;&gt;step_3a_polishing_illumina_align_rnd1 -->
<g id="edge21" class="edge">
<title>step_2_assembly__contigs_fasta&#45;&gt;step_3a_polishing_illumina_align_rnd1</title>
<path fill="none" stroke="black" d="M1561.66,-1452.57C1597.11,-1436.64 1651.28,-1412.3 1693.54,-1393.31"/>
<polygon fill="black" stroke="black" points="1695.23,-1396.39 1702.91,-1389.1 1692.36,-1390 1695.23,-1396.39"/>
</g>
<!-- step_2_assembly__contigs_fasta&#45;&gt;step_3b_polishing_pilon_rnd1 -->
<g id="edge24" class="edge">
<title>step_2_assembly__contigs_fasta&#45;&gt;step_3b_polishing_pilon_rnd1</title>
<path fill="none" stroke="black" d="M1524.64,-1451.91C1524.89,-1410.3 1527.2,-1301.45 1543.65,-1212.44 1545.24,-1203.83 1547.61,-1194.7 1550.11,-1186.24"/>
<polygon fill="black" stroke="black" points="1553.46,-1187.25 1553.07,-1176.67 1546.77,-1185.19 1553.46,-1187.25"/>
</g>
<!-- step_3a_polishing_illumina_align_rnd1__bam -->
<g id="node31" class="node">
<title>step_3a_polishing_illumina_align_rnd1__bam</title>
<ellipse fill="none" stroke="grey" cx="1785.65" cy="-1257.7" rx="233.16" ry="18"/>
<text text-anchor="start" x="1614.15" y="-1255" font-family="Times,serif" font-weight="bold" font-size="14.00">step_3a_polishing_illumina_align_rnd1/bam</text>
</g>
<!-- step_3a_polishing_illumina_align_rnd1&#45;&gt;step_3a_polishing_illumina_align_rnd1__bam -->
<g id="edge23" class="edge">
<title>step_3a_polishing_illumina_align_rnd1&#45;&gt;step_3a_polishing_illumina_align_rnd1__bam</title>
<path fill="none" stroke="black" d="M1763.37,-1338.77C1767.77,-1322.98 1773.51,-1302.33 1778.06,-1285.96"/>
<polygon fill="black" stroke="black" points="1781.55,-1286.48 1780.86,-1275.91 1774.81,-1284.61 1781.55,-1286.48"/>
</g>
<!-- step_3a_polishing_illumina_align_rnd1__bam&#45;&gt;step_3b_polishing_pilon_rnd1 -->
<g id="edge25" class="edge">
<title>step_3a_polishing_illumina_align_rnd1__bam&#45;&gt;step_3b_polishing_pilon_rnd1</title>
<path fill="none" stroke="black" d="M1749.16,-1239.71C1715,-1223.81 1663.3,-1199.75 1622.83,-1180.92"/>
<polygon fill="black" stroke="black" points="1624.14,-1177.66 1613.59,-1176.62 1621.18,-1184.01 1624.14,-1177.66"/>
</g>
<!-- step_3b_polishing_pilon_rnd1__outfile -->
<g id="node33" class="node">
<title>step_3b_polishing_pilon_rnd1__outfile</title>
<ellipse fill="none" stroke="grey" cx="1628.65" cy="-1072.44" rx="198.47" ry="18"/>
<text text-anchor="start" x="1484.15" y="-1069.74" font-family="Times,serif" font-weight="bold" font-size="14.00">step_3b_polishing_pilon_rnd1/outfile</text>
</g>
<!-- step_3b_polishing_pilon_rnd1&#45;&gt;step_3b_polishing_pilon_rnd1__outfile -->
<g id="edge27" class="edge">
<title>step_3b_polishing_pilon_rnd1&#45;&gt;step_3b_polishing_pilon_rnd1__outfile</title>
<path fill="none" stroke="black" d="M1582.85,-1126.08C1590.48,-1117.31 1599.1,-1107.4 1606.79,-1098.57"/>
<polygon fill="black" stroke="black" points="1609.6,-1100.66 1613.53,-1090.82 1604.32,-1096.06 1609.6,-1100.66"/>
</g>
<!-- step_3b_polishing_pilon_rnd1__outfile&#45;&gt;step_4a_polishing_illumina_align_rnd2 -->
<g id="edge30" class="edge">
<title>step_3b_polishing_pilon_rnd1__outfile&#45;&gt;step_4a_polishing_illumina_align_rnd2</title>
<path fill="none" stroke="black" d="M1711.98,-1056.09C1767.48,-1045.87 1841.79,-1032.18 1906.29,-1020.3"/>
<polygon fill="black" stroke="black" points="1906.94,-1023.74 1916.14,-1018.48 1905.67,-1016.85 1906.94,-1023.74"/>
</g>
<!-- step_3b_polishing_pilon_rnd1__outfile&#45;&gt;step_4b_polishing_pilon_rnd2 -->
<g id="edge33" class="edge">
<title>step_3b_polishing_pilon_rnd1__outfile&#45;&gt;step_4b_polishing_pilon_rnd2</title>
<path fill="none" stroke="black" d="M1628.65,-1054.16C1628.65,-1015.57 1628.65,-921.76 1628.65,-870.79"/>
<polygon fill="black" stroke="black" points="1632.15,-870.59 1628.65,-860.59 1625.15,-870.59 1632.15,-870.59"/>
</g>
<!-- step_4a_polishing_illumina_align_rnd2__bam -->
<g id="node35" class="node">
<title>step_4a_polishing_illumina_align_rnd2__bam</title>
<ellipse fill="none" stroke="grey" cx="2015.65" cy="-914.44" rx="233.16" ry="18"/>
<text text-anchor="start" x="1844.15" y="-911.74" font-family="Times,serif" font-weight="bold" font-size="14.00">step_4a_polishing_illumina_align_rnd2/bam</text>
</g>
<!-- step_4a_polishing_illumina_align_rnd2&#45;&gt;step_4a_polishing_illumina_align_rnd2__bam -->
<g id="edge32" class="edge">
<title>step_4a_polishing_illumina_align_rnd2&#45;&gt;step_4a_polishing_illumina_align_rnd2__bam</title>
<path fill="none" stroke="black" d="M2036.84,-968.08C2033.52,-959.84 2029.81,-950.61 2026.42,-942.2"/>
<polygon fill="black" stroke="black" points="2029.62,-940.79 2022.64,-932.82 2023.13,-943.4 2029.62,-940.79"/>
</g>
<!-- step_4a_polishing_illumina_align_rnd2__bam&#45;&gt;step_4b_polishing_pilon_rnd2 -->
<g id="edge34" class="edge">
<title>step_4a_polishing_illumina_align_rnd2__bam&#45;&gt;step_4b_polishing_pilon_rnd2</title>
<path fill="none" stroke="black" d="M1935.46,-897.49C1884.71,-887.39 1817.9,-874.1 1759.58,-862.49"/>
<polygon fill="black" stroke="black" points="1760.04,-859.02 1749.55,-860.5 1758.68,-865.88 1760.04,-859.02"/>
</g>
<!-- step_4b_polishing_pilon_rnd2&#45;&gt;step_4b_polishing_pilon_rnd2__outfile -->
<g id="edge36" class="edge">
<title>step_4b_polishing_pilon_rnd2&#45;&gt;step_4b_polishing_pilon_rnd2__outfile</title>
<path fill="none" stroke="black" d="M1628.65,-810.26C1628.65,-796.9 1628.65,-780.06 1628.65,-765.28"/>
<polygon fill="black" stroke="black" points="1632.15,-764.96 1628.65,-754.96 1625.15,-764.96 1632.15,-764.96"/>
</g>
<!-- step_5a_annotation_prodigal&#45;&gt;step_5a_annotation_prodigal__outProt -->
<g id="edge40" class="edge">
<title>step_5a_annotation_prodigal&#45;&gt;step_5a_annotation_prodigal__outProt</title>
<path fill="none" stroke="black" d="M1155.9,-597.88C1125.25,-582.45 1085.31,-562.33 1053.1,-546.11"/>
<polygon fill="black" stroke="black" points="1054.3,-542.8 1043.8,-541.42 1051.16,-549.05 1054.3,-542.8"/>
</g>
<!-- step_5a_annotation_prodigal__outGBK -->
<g id="node38" class="node">
<title>step_5a_annotation_prodigal__outGBK</title>
<ellipse fill="none" stroke="grey" cx="1411.65" cy="-516.68" rx="200.36" ry="18"/>
<text text-anchor="start" x="1265.65" y="-513.98" font-family="Times,serif" font-weight="bold" font-size="14.00">step_5a_annotation_prodigal/outGBK</text>
</g>
<!-- step_5a_annotation_prodigal&#45;&gt;step_5a_annotation_prodigal__outGBK -->
<g id="edge41" class="edge">
<title>step_5a_annotation_prodigal&#45;&gt;step_5a_annotation_prodigal__outGBK</title>
<path fill="none" stroke="black" d="M1251.63,-597.88C1287.05,-580.13 1334.83,-556.18 1368.94,-539.08"/>
<polygon fill="black" stroke="black" points="1370.8,-542.06 1378.17,-534.45 1367.66,-535.81 1370.8,-542.06"/>
</g>
<!-- step_5d_annotation_diamond&#45;&gt;step_5d_annotation_diamond__alignment -->
<g id="edge45" class="edge">
<title>step_5d_annotation_diamond&#45;&gt;step_5d_annotation_diamond__alignment</title>
<path fill="none" stroke="black" d="M595.65,-385.24C595.65,-371.88 595.65,-355.05 595.65,-340.26"/>
<polygon fill="black" stroke="black" points="599.15,-339.94 595.65,-329.94 592.15,-339.94 599.15,-339.94"/>
</g>
<!-- step_5e_annotation_ideel&#45;&gt;step_5e_annotation_ideel__outFig -->
<g id="edge48" class="edge">
<title>step_5e_annotation_ideel&#45;&gt;step_5e_annotation_ideel__outFig</title>
<path fill="none" stroke="black" d="M392.65,-172.48C392.65,-164.59 392.65,-155.67 392.65,-147.18"/>
<polygon fill="black" stroke="black" points="396.15,-147.12 392.65,-137.12 389.15,-147.12 396.15,-147.12"/>
</g>
<!-- INPUT -->
<g id="node41" class="node">
<title>INPUT</title>
<ellipse fill="lightblue" stroke="lightblue" cx="392.65" cy="-25" rx="41.69" ry="18"/>
<text text-anchor="middle" x="392.65" y="-21.3" font-family="Times,serif" font-size="14.00">INPUT</text>
</g>
<!-- OUTPUT -->
<g id="node42" class="node">
<title>OUTPUT</title>
<ellipse fill="red" stroke="red" cx="503.65" cy="-25" rx="51.19" ry="18"/>
<text text-anchor="middle" x="503.65" y="-21.3" font-family="Times,serif" font-size="14.00">OUTPUT</text>
</g>
<!-- STEP -->
<g id="node43" class="node">
<title>STEP</title>
<polygon fill="grey" stroke="grey" points="628.65,-43 572.65,-43 572.65,-7 628.65,-7 628.65,-43"/>
<text text-anchor="middle" x="600.65" y="-21.3" font-family="Times,serif" font-size="14.00">STEP</text>
</g>
<!-- legend_text -->
<g id="node44" class="node">
<title>legend_text</title>
<polygon fill="none" stroke="black" points="1122.15,-50 647.15,-50 647.15,0 1122.15,0 1122.15,-50"/>
<text text-anchor="start" x="761.15" y="-35.8" font-family="Times,serif" font-weight="bold" font-size="14.00">Hybrid read assembly workflow</text>
<text text-anchor="start" x="819.15" y="-21.8" font-family="Times,serif" font-size="14.00">CWL version: v1.1</text>
<text text-anchor="start" x="655.15" y="-7.8" font-family="Times,serif" font-style="italic" font-size="14.00">Implementation of nanopore + illumina reads assembly pipeline</text>
</g>
</g>
</svg>
