<?xml version="1.0" encoding="UTF-8" standalone="no"?>
<!DOCTYPE svg PUBLIC "-//W3C//DTD SVG 1.1//EN"
 "http://www.w3.org/Graphics/SVG/1.1/DTD/svg11.dtd">
<!-- Generated by graphviz version 2.43.0 (0)
 -->
<!-- Title: G Pages: 1 -->
<svg width="2532pt" height="2334pt"
 viewBox="0.00 0.00 2531.84 2333.90" xmlns="http://www.w3.org/2000/svg" xmlns:xlink="http://www.w3.org/1999/xlink">
<g id="graph0" class="graph" transform="scale(1 1) rotate(0) translate(4 2329.9)">
<title>G</title>
<polygon fill="white" stroke="transparent" points="-4,4 -4,-2329.9 2527.84,-2329.9 2527.84,4 -4,4"/>
<!-- raw_reads -->
<g id="node1" class="node">
<title>raw_reads</title>
<ellipse fill="lightblue" stroke="lightblue" cx="273.07" cy="-2280.65" rx="149.81" ry="45.01"/>
<text text-anchor="start" x="233.57" y="-2298.45" font-family="Times,serif" font-weight="bold" font-size="14.00">raw_reads</text>
<text text-anchor="start" x="237.57" y="-2284.45" font-family="Times,serif" font-size="14.00">Type: File</text>
<text text-anchor="start" x="175.07" y="-2270.45" font-family="Times,serif" font-size="14.00">Format: edam:format_1930</text>
<text text-anchor="start" x="190.07" y="-2256.45" font-family="Times,serif" font-style="italic" font-size="14.00">long reads to assemble</text>
</g>
<!-- step_2_filterShortReads -->
<g id="node22" class="node">
<title>step_2_filterShortReads</title>
<polygon fill="grey" stroke="grey" points="698.07,-2199.39 446.07,-2199.39 446.07,-2149.39 698.07,-2149.39 698.07,-2199.39"/>
<text text-anchor="start" x="477.57" y="-2185.19" font-family="Times,serif" font-weight="bold" font-size="14.00">step_2_filterShortReads</text>
<text text-anchor="start" x="454.07" y="-2171.19" font-family="Times,serif" font-size="14.00">Run: ../tools/fastp/fastp_filter.cwl</text>
<text text-anchor="start" x="499.57" y="-2157.19" font-family="Times,serif" font-style="italic" font-size="14.00">filtering short reads</text>
</g>
<!-- raw_reads&#45;&gt;step_2_filterShortReads -->
<g id="edge1" class="edge">
<title>raw_reads&#45;&gt;step_2_filterShortReads</title>
<path fill="none" stroke="black" d="M369.73,-2245.94C409.84,-2231.96 455.77,-2215.94 493.73,-2202.71"/>
<polygon fill="black" stroke="black" points="494.9,-2206 503.2,-2199.41 492.6,-2199.39 494.9,-2206"/>
</g>
<!-- p1_reads -->
<g id="node2" class="node">
<title>p1_reads</title>
<ellipse fill="lightblue" stroke="lightblue" cx="2318.07" cy="-1470.21" rx="205.54" ry="45.01"/>
<text text-anchor="start" x="2283.07" y="-1488.01" font-family="Times,serif" font-weight="bold" font-size="14.00">p1_reads</text>
<text text-anchor="start" x="2282.57" y="-1474.01" font-family="Times,serif" font-size="14.00">Type: File</text>
<text text-anchor="start" x="2220.07" y="-1460.01" font-family="Times,serif" font-size="14.00">Format: edam:format_1930</text>
<text text-anchor="start" x="2180.57" y="-1446.01" font-family="Times,serif" font-style="italic" font-size="14.00">illumina reads for polishing (first pair)</text>
</g>
<!-- step_4d_polishing_illumina_align_rnd1 -->
<g id="node32" class="node">
<title>step_4d_polishing_illumina_align_rnd1</title>
<polygon fill="grey" stroke="grey" points="1904.07,-1388.95 1510.07,-1388.95 1510.07,-1338.95 1904.07,-1338.95 1904.07,-1388.95"/>
<text text-anchor="start" x="1555.07" y="-1374.75" font-family="Times,serif" font-weight="bold" font-size="14.00">step_4d_polishing_illumina_align_rnd1</text>
<text text-anchor="start" x="1591.57" y="-1360.75" font-family="Times,serif" font-size="14.00">Run: ../tools/bwa/bwa&#45;mem2.cwl</text>
<text text-anchor="start" x="1518.07" y="-1346.75" font-family="Times,serif" font-style="italic" font-size="14.00">polishing step 4, aligning illumina reads to assembly</text>
</g>
<!-- p1_reads&#45;&gt;step_4d_polishing_illumina_align_rnd1 -->
<g id="edge22" class="edge">
<title>p1_reads&#45;&gt;step_4d_polishing_illumina_align_rnd1</title>
<path fill="none" stroke="black" d="M2172.55,-1438.17C2149.35,-1433.54 2125.58,-1428.97 2103.07,-1424.95 2033.4,-1412.51 1956.54,-1400.48 1889.21,-1390.5"/>
<polygon fill="black" stroke="black" points="1889.33,-1386.98 1878.92,-1388.98 1888.3,-1393.9 1889.33,-1386.98"/>
</g>
<!-- step_4f_polishing_illumina_align_rnd2 -->
<g id="node36" class="node">
<title>step_4f_polishing_illumina_align_rnd2</title>
<polygon fill="grey" stroke="grey" points="1659.07,-1018.44 1265.07,-1018.44 1265.07,-968.44 1659.07,-968.44 1659.07,-1018.44"/>
<text text-anchor="start" x="1311.57" y="-1004.24" font-family="Times,serif" font-weight="bold" font-size="14.00">step_4f_polishing_illumina_align_rnd2</text>
<text text-anchor="start" x="1346.57" y="-990.24" font-family="Times,serif" font-size="14.00">Run: ../tools/bwa/bwa&#45;mem2.cwl</text>
<text text-anchor="start" x="1273.07" y="-976.24" font-family="Times,serif" font-style="italic" font-size="14.00">polishing step 6, aligning illumina reads to assembly</text>
</g>
<!-- p1_reads&#45;&gt;step_4f_polishing_illumina_align_rnd2 -->
<g id="edge31" class="edge">
<title>p1_reads&#45;&gt;step_4f_polishing_illumina_align_rnd2</title>
<path fill="none" stroke="black" d="M2260.87,-1426.68C2216.34,-1388.28 2162.07,-1327.38 2162.07,-1258.7 2162.07,-1258.7 2162.07,-1258.7 2162.07,-1150.44 2162.07,-1048.53 1875.86,-1013.17 1669.46,-1000.91"/>
<polygon fill="black" stroke="black" points="1669.57,-997.41 1659.39,-1000.33 1669.17,-1004.4 1669.57,-997.41"/>
</g>
<!-- p2_reads -->
<g id="node3" class="node">
<title>p2_reads</title>
<ellipse fill="lightblue" stroke="lightblue" cx="1446.07" cy="-1470.21" rx="219.82" ry="45.01"/>
<text text-anchor="start" x="1411.07" y="-1488.01" font-family="Times,serif" font-weight="bold" font-size="14.00">p2_reads</text>
<text text-anchor="start" x="1410.57" y="-1474.01" font-family="Times,serif" font-size="14.00">Type: File</text>
<text text-anchor="start" x="1348.07" y="-1460.01" font-family="Times,serif" font-size="14.00">Format: edam:format_1930</text>
<text text-anchor="start" x="1298.57" y="-1446.01" font-family="Times,serif" font-style="italic" font-size="14.00">illumina reads for polishing (second pair)</text>
</g>
<!-- p2_reads&#45;&gt;step_4d_polishing_illumina_align_rnd1 -->
<g id="edge23" class="edge">
<title>p2_reads&#45;&gt;step_4d_polishing_illumina_align_rnd1</title>
<path fill="none" stroke="black" d="M1545.11,-1429.64C1575.82,-1417.38 1609,-1404.12 1637.28,-1392.83"/>
<polygon fill="black" stroke="black" points="1638.68,-1396.04 1646.67,-1389.08 1636.09,-1389.53 1638.68,-1396.04"/>
</g>
<!-- p2_reads&#45;&gt;step_4f_polishing_illumina_align_rnd2 -->
<g id="edge32" class="edge">
<title>p2_reads&#45;&gt;step_4f_polishing_illumina_align_rnd2</title>
<path fill="none" stroke="black" d="M1446.07,-1424.85C1446.07,-1382.25 1446.07,-1316.07 1446.07,-1258.7 1446.07,-1258.7 1446.07,-1258.7 1446.07,-1150.44 1446.07,-1108.37 1451.9,-1060.25 1456.52,-1028.71"/>
<polygon fill="black" stroke="black" points="1460,-1029.09 1458.03,-1018.68 1453.08,-1028.05 1460,-1029.09"/>
</g>
<!-- min_read_size -->
<g id="node4" class="node">
<title>min_read_size</title>
<ellipse fill="lightblue" stroke="lightblue" cx="572.07" cy="-2280.65" rx="130.63" ry="45.01"/>
<text text-anchor="start" x="516.57" y="-2298.45" font-family="Times,serif" font-weight="bold" font-size="14.00">min_read_size</text>
<text text-anchor="start" x="536.57" y="-2284.45" font-family="Times,serif" font-size="14.00">Type: int?</text>
<text text-anchor="start" x="527.57" y="-2270.45" font-family="Times,serif" font-size="14.00">Default: 200</text>
<text text-anchor="start" x="487.57" y="-2256.45" font-family="Times,serif" font-style="italic" font-size="14.00">Raw reads filter by size</text>
</g>
<!-- min_read_size&#45;&gt;step_2_filterShortReads -->
<g id="edge2" class="edge">
<title>min_read_size&#45;&gt;step_2_filterShortReads</title>
<path fill="none" stroke="black" d="M572.07,-2235.13C572.07,-2226.66 572.07,-2217.92 572.07,-2209.83"/>
<polygon fill="black" stroke="black" points="575.57,-2209.64 572.07,-2199.64 568.57,-2209.64 575.57,-2209.64"/>
</g>
<!-- reads_filter_bysize_name -->
<g id="node5" class="node">
<title>reads_filter_bysize_name</title>
<ellipse fill="lightblue" stroke="lightblue" cx="957.07" cy="-2280.65" rx="236.35" ry="45.01"/>
<text text-anchor="start" x="859.07" y="-2298.45" font-family="Times,serif" font-weight="bold" font-size="14.00">reads_filter_bysize_name</text>
<text text-anchor="start" x="910.07" y="-2284.45" font-family="Times,serif" font-size="14.00">Type: string?</text>
<text text-anchor="start" x="876.57" y="-2270.45" font-family="Times,serif" font-size="14.00">Default: reads_filtered</text>
<text text-anchor="start" x="798.07" y="-2256.45" font-family="Times,serif" font-style="italic" font-size="14.00">prefix for reads with length lt min_read_size</text>
</g>
<!-- reads_filter_bysize_name&#45;&gt;step_2_filterShortReads -->
<g id="edge3" class="edge">
<title>reads_filter_bysize_name&#45;&gt;step_2_filterShortReads</title>
<path fill="none" stroke="black" d="M822.96,-2243.33C772.81,-2229.75 716.83,-2214.59 670.49,-2202.04"/>
<polygon fill="black" stroke="black" points="671.32,-2198.64 660.76,-2199.41 669.49,-2205.4 671.32,-2198.64"/>
</g>
<!-- polish_paf -->
<g id="node6" class="node">
<title>polish_paf</title>
<ellipse fill="lightblue" stroke="lightblue" cx="1200.07" cy="-1895.22" rx="156.04" ry="45.01"/>
<text text-anchor="start" x="1160.07" y="-1913.02" font-family="Times,serif" font-weight="bold" font-size="14.00">polish_paf</text>
<text text-anchor="start" x="1153.07" y="-1899.02" font-family="Times,serif" font-size="14.00">Type: string?</text>
<text text-anchor="start" x="1097.57" y="-1885.02" font-family="Times,serif" font-size="14.00">Default: assembly_polish.paf</text>
<text text-anchor="start" x="1128.57" y="-1871.02" font-family="Times,serif" font-style="italic" font-size="14.00">polish align PAF file</text>
</g>
<!-- step_4a_polishing_minimap2 -->
<g id="node26" class="node">
<title>step_4a_polishing_minimap2</title>
<polygon fill="grey" stroke="grey" points="1243.07,-1813.97 789.07,-1813.97 789.07,-1763.97 1243.07,-1763.97 1243.07,-1813.97"/>
<text text-anchor="start" x="903.07" y="-1799.77" font-family="Times,serif" font-weight="bold" font-size="14.00">step_4a_polishing_minimap2</text>
<text text-anchor="start" x="847.57" y="-1785.77" font-family="Times,serif" font-size="14.00">Run: ../tools/minimap2/minimap2_to_polish.cwl</text>
<text text-anchor="start" x="797.07" y="-1771.77" font-family="Times,serif" font-style="italic" font-size="14.00">polishing step 1, map reads back to assembly with minimap2</text>
</g>
<!-- polish_paf&#45;&gt;step_4a_polishing_minimap2 -->
<g id="edge11" class="edge">
<title>polish_paf&#45;&gt;step_4a_polishing_minimap2</title>
<path fill="none" stroke="black" d="M1130.24,-1854.66C1109.35,-1842.82 1086.83,-1830.06 1067.36,-1819.03"/>
<polygon fill="black" stroke="black" points="1069.07,-1815.98 1058.65,-1814.09 1065.62,-1822.07 1069.07,-1815.98"/>
</g>
<!-- polish_assembly_racon -->
<g id="node7" class="node">
<title>polish_assembly_racon</title>
<ellipse fill="lightblue" stroke="lightblue" cx="1401.07" cy="-1682.71" rx="198.89" ry="45.01"/>
<text text-anchor="start" x="1311.57" y="-1700.51" font-family="Times,serif" font-weight="bold" font-size="14.00">polish_assembly_racon</text>
<text text-anchor="start" x="1354.07" y="-1686.51" font-family="Times,serif" font-size="14.00">Type: string?</text>
<text text-anchor="start" x="1268.57" y="-1672.51" font-family="Times,serif" font-size="14.00">Default: assembly_polish_racon.fasta</text>
<text text-anchor="start" x="1303.57" y="-1658.51" font-family="Times,serif" font-style="italic" font-size="14.00">polish assembly with racon</text>
</g>
<!-- step_4b_polishing_racon -->
<g id="node28" class="node">
<title>step_4b_polishing_racon</title>
<polygon fill="grey" stroke="grey" points="1192.07,-1601.46 816.07,-1601.46 816.07,-1551.46 1192.07,-1551.46 1192.07,-1601.46"/>
<text text-anchor="start" x="908.07" y="-1587.26" font-family="Times,serif" font-weight="bold" font-size="14.00">step_4b_polishing_racon</text>
<text text-anchor="start" x="902.57" y="-1573.26" font-family="Times,serif" font-size="14.00">Run: ../tools/racon/racon.cwl</text>
<text text-anchor="start" x="824.07" y="-1559.26" font-family="Times,serif" font-style="italic" font-size="14.00">polishing step 2, using racon to improve assembly</text>
</g>
<!-- polish_assembly_racon&#45;&gt;step_4b_polishing_racon -->
<g id="edge16" class="edge">
<title>polish_assembly_racon&#45;&gt;step_4b_polishing_racon</title>
<path fill="none" stroke="black" d="M1273,-1648.08C1218.71,-1633.83 1156.35,-1617.45 1105.36,-1604.06"/>
<polygon fill="black" stroke="black" points="1106.2,-1600.66 1095.64,-1601.51 1104.43,-1607.43 1106.2,-1600.66"/>
</g>
<!-- medaka_model -->
<g id="node8" class="node">
<title>medaka_model</title>
<ellipse fill="lightblue" stroke="lightblue" cx="407.07" cy="-1470.21" rx="193.08" ry="45.01"/>
<text text-anchor="start" x="348.57" y="-1488.01" font-family="Times,serif" font-weight="bold" font-size="14.00">medaka_model</text>
<text text-anchor="start" x="360.07" y="-1474.01" font-family="Times,serif" font-size="14.00">Type: string?</text>
<text text-anchor="start" x="304.07" y="-1460.01" font-family="Times,serif" font-size="14.00">Default: r941_min_fast_g330</text>
<text text-anchor="start" x="278.57" y="-1446.01" font-family="Times,serif" font-style="italic" font-size="14.00">medaka model to improve assembly</text>
</g>
<!-- step_4c_polishing_medaka -->
<g id="node30" class="node">
<title>step_4c_polishing_medaka</title>
<polygon fill="grey" stroke="grey" points="809.07,-1388.95 411.07,-1388.95 411.07,-1338.95 809.07,-1338.95 809.07,-1388.95"/>
<text text-anchor="start" x="506.07" y="-1374.75" font-family="Times,serif" font-weight="bold" font-size="14.00">step_4c_polishing_medaka</text>
<text text-anchor="start" x="492.57" y="-1360.75" font-family="Times,serif" font-size="14.00">Run: ../tools/medaka/medaka.cwl</text>
<text text-anchor="start" x="419.07" y="-1346.75" font-family="Times,serif" font-style="italic" font-size="14.00">polishing step 3, using medaka to create a consensus</text>
</g>
<!-- medaka_model&#45;&gt;step_4c_polishing_medaka -->
<g id="edge20" class="edge">
<title>medaka_model&#45;&gt;step_4c_polishing_medaka</title>
<path fill="none" stroke="black" d="M485.85,-1428.75C508.66,-1417.03 533.09,-1404.49 554.19,-1393.65"/>
<polygon fill="black" stroke="black" points="556.03,-1396.64 563.33,-1388.95 552.84,-1390.41 556.03,-1396.64"/>
</g>
<!-- pilon_align -->
<g id="node9" class="node">
<title>pilon_align</title>
<ellipse fill="lightblue" stroke="lightblue" cx="1889.07" cy="-1470.21" rx="205.12" ry="45.01"/>
<text text-anchor="start" x="1845.57" y="-1488.01" font-family="Times,serif" font-weight="bold" font-size="14.00">pilon_align</text>
<text text-anchor="start" x="1845.57" y="-1474.01" font-family="Times,serif" font-size="14.00">Type: string</text>
<text text-anchor="start" x="1801.57" y="-1460.01" font-family="Times,serif" font-size="14.00">Default: pilon_align.bam</text>
<text text-anchor="start" x="1752.07" y="-1446.01" font-family="Times,serif" font-style="italic" font-size="14.00">illumina reads alignment for polishing</text>
</g>
<!-- pilon_align&#45;&gt;step_4d_polishing_illumina_align_rnd1 -->
<g id="edge25" class="edge">
<title>pilon_align&#45;&gt;step_4d_polishing_illumina_align_rnd1</title>
<path fill="none" stroke="black" d="M1816.62,-1427.7C1796.94,-1416.43 1776.05,-1404.46 1757.85,-1394.04"/>
<polygon fill="black" stroke="black" points="1759.57,-1390.99 1749.15,-1389.05 1756.09,-1397.06 1759.57,-1390.99"/>
</g>
<!-- pilon_align&#45;&gt;step_4f_polishing_illumina_align_rnd2 -->
<g id="edge34" class="edge">
<title>pilon_align&#45;&gt;step_4f_polishing_illumina_align_rnd2</title>
<path fill="none" stroke="black" d="M1916.26,-1425.01C1939.11,-1383.61 1968.07,-1319.2 1968.07,-1258.7 1968.07,-1258.7 1968.07,-1258.7 1968.07,-1150.44 1968.07,-1084.46 1808.96,-1043.42 1669.18,-1020.1"/>
<polygon fill="black" stroke="black" points="1669.59,-1016.62 1659.15,-1018.45 1668.45,-1023.53 1669.59,-1016.62"/>
</g>
<!-- polish_assembly_pilon -->
<g id="node10" class="node">
<title>polish_assembly_pilon</title>
<ellipse fill="lightblue" stroke="lightblue" cx="1003.07" cy="-1257.7" rx="188.6" ry="45.01"/>
<text text-anchor="start" x="915.57" y="-1275.5" font-family="Times,serif" font-weight="bold" font-size="14.00">polish_assembly_pilon</text>
<text text-anchor="start" x="956.07" y="-1261.5" font-family="Times,serif" font-size="14.00">Type: string?</text>
<text text-anchor="start" x="893.07" y="-1247.5" font-family="Times,serif" font-size="14.00">Default: assembly_polish_pilon</text>
<text text-anchor="start" x="877.57" y="-1233.5" font-family="Times,serif" font-style="italic" font-size="14.00">polish assembly after illumina map</text>
</g>
<!-- step_4e_polishing_pilon_rnd1 -->
<g id="node34" class="node">
<title>step_4e_polishing_pilon_rnd1</title>
<polygon fill="grey" stroke="grey" points="1396.07,-1176.44 1044.07,-1176.44 1044.07,-1126.44 1396.07,-1126.44 1396.07,-1176.44"/>
<text text-anchor="start" x="1104.57" y="-1162.24" font-family="Times,serif" font-weight="bold" font-size="14.00">step_4e_polishing_pilon_rnd1</text>
<text text-anchor="start" x="1123.07" y="-1148.24" font-family="Times,serif" font-size="14.00">Run: ../tools/pilon/pilon.cwl</text>
<text text-anchor="start" x="1052.07" y="-1134.24" font-family="Times,serif" font-style="italic" font-size="14.00">polishing step 5, polishing assembly with pilon</text>
</g>
<!-- polish_assembly_pilon&#45;&gt;step_4e_polishing_pilon_rnd1 -->
<g id="edge29" class="edge">
<title>polish_assembly_pilon&#45;&gt;step_4e_polishing_pilon_rnd1</title>
<path fill="none" stroke="black" d="M1085.73,-1216.98C1110.79,-1204.94 1137.8,-1191.97 1160.98,-1180.83"/>
<polygon fill="black" stroke="black" points="1162.5,-1183.98 1170,-1176.5 1159.47,-1177.67 1162.5,-1183.98"/>
</g>
<!-- step_4g_polishing_pilon_rnd2 -->
<g id="node38" class="node">
<title>step_4g_polishing_pilon_rnd2</title>
<polygon fill="grey" stroke="grey" points="1379.07,-860.44 1027.07,-860.44 1027.07,-810.44 1379.07,-810.44 1379.07,-860.44"/>
<text text-anchor="start" x="1087.07" y="-846.24" font-family="Times,serif" font-weight="bold" font-size="14.00">step_4g_polishing_pilon_rnd2</text>
<text text-anchor="start" x="1106.07" y="-832.24" font-family="Times,serif" font-size="14.00">Run: ../tools/pilon/pilon.cwl</text>
<text text-anchor="start" x="1035.07" y="-818.24" font-family="Times,serif" font-style="italic" font-size="14.00">polishing step 7, polishing assembly with pilon</text>
</g>
<!-- polish_assembly_pilon&#45;&gt;step_4g_polishing_pilon_rnd2 -->
<g id="edge38" class="edge">
<title>polish_assembly_pilon&#45;&gt;step_4g_polishing_pilon_rnd2</title>
<path fill="none" stroke="black" d="M999.67,-1212.29C997.12,-1175.2 994.07,-1120.9 994.07,-1073.44 994.07,-1073.44 994.07,-1073.44 994.07,-992.44 994.07,-928.96 1056.75,-888.23 1113.46,-864.36"/>
<polygon fill="black" stroke="black" points="1114.92,-867.54 1122.86,-860.53 1112.28,-861.06 1114.92,-867.54"/>
</g>
<!-- predict_proteins -->
<g id="node11" class="node">
<title>predict_proteins</title>
<ellipse fill="lightblue" stroke="lightblue" cx="331.07" cy="-729.19" rx="217.58" ry="45.01"/>
<text text-anchor="start" x="266.07" y="-746.99" font-family="Times,serif" font-weight="bold" font-size="14.00">predict_proteins</text>
<text text-anchor="start" x="284.07" y="-732.99" font-family="Times,serif" font-size="14.00">Type: string?</text>
<text text-anchor="start" x="213.07" y="-718.99" font-family="Times,serif" font-size="14.00">Default: predicted_proteins.fasta</text>
<text text-anchor="start" x="185.07" y="-704.99" font-family="Times,serif" font-style="italic" font-size="14.00">predicted proteins from assembly (fasta)</text>
</g>
<!-- step_5a_annotation_prodigal -->
<g id="node39" class="node">
<title>step_5a_annotation_prodigal</title>
<polygon fill="grey" stroke="grey" points="938.57,-647.93 617.57,-647.93 617.57,-597.93 938.57,-597.93 938.57,-647.93"/>
<text text-anchor="start" x="665.57" y="-633.73" font-family="Times,serif" font-weight="bold" font-size="14.00">step_5a_annotation_prodigal</text>
<text text-anchor="start" x="657.07" y="-619.73" font-family="Times,serif" font-size="14.00">Run: ../tools/prodigal/prodigal.cwl</text>
<text text-anchor="start" x="625.57" y="-605.73" font-family="Times,serif" font-style="italic" font-size="14.00">predict proteins in assembly with Prodigal</text>
</g>
<!-- predict_proteins&#45;&gt;step_5a_annotation_prodigal -->
<g id="edge41" class="edge">
<title>predict_proteins&#45;&gt;step_5a_annotation_prodigal</title>
<path fill="none" stroke="black" d="M473.73,-694.91C535.56,-680.49 606.94,-663.85 665.02,-650.3"/>
<polygon fill="black" stroke="black" points="666.01,-653.66 674.96,-647.98 664.42,-646.84 666.01,-653.66"/>
</g>
<!-- predict_proteins_gbk -->
<g id="node12" class="node">
<title>predict_proteins_gbk</title>
<ellipse fill="lightblue" stroke="lightblue" cx="778.07" cy="-729.19" rx="211.35" ry="45.01"/>
<text text-anchor="start" x="695.07" y="-746.99" font-family="Times,serif" font-weight="bold" font-size="14.00">predict_proteins_gbk</text>
<text text-anchor="start" x="731.07" y="-732.99" font-family="Times,serif" font-size="14.00">Type: string?</text>
<text text-anchor="start" x="664.57" y="-718.99" font-family="Times,serif" font-size="14.00">Default: predicted_proteins.gbk</text>
<text text-anchor="start" x="636.57" y="-704.99" font-family="Times,serif" font-style="italic" font-size="14.00">predicted proteins from assembly (gbk)</text>
</g>
<!-- predict_proteins_gbk&#45;&gt;step_5a_annotation_prodigal -->
<g id="edge42" class="edge">
<title>predict_proteins_gbk&#45;&gt;step_5a_annotation_prodigal</title>
<path fill="none" stroke="black" d="M778.07,-683.67C778.07,-675.2 778.07,-666.46 778.07,-658.37"/>
<polygon fill="black" stroke="black" points="781.57,-658.18 778.07,-648.18 774.57,-658.18 781.57,-658.18"/>
</g>
<!-- uniprot_index -->
<g id="node13" class="node">
<title>uniprot_index</title>
<ellipse fill="lightblue" stroke="lightblue" cx="582.07" cy="-516.68" rx="149.81" ry="45.01"/>
<text text-anchor="start" x="527.57" y="-534.48" font-family="Times,serif" font-weight="bold" font-size="14.00">uniprot_index</text>
<text text-anchor="start" x="546.57" y="-520.48" font-family="Times,serif" font-size="14.00">Type: File</text>
<text text-anchor="start" x="484.07" y="-506.48" font-family="Times,serif" font-size="14.00">Default: ../db/uniprot.dmnd</text>
<text text-anchor="start" x="520.07" y="-492.48" font-family="Times,serif" font-style="italic" font-size="14.00">uniprot index file</text>
</g>
<!-- step_5d_annotation_diamond -->
<g id="node41" class="node">
<title>step_5d_annotation_diamond</title>
<polygon fill="grey" stroke="grey" points="729.57,-435.42 434.57,-435.42 434.57,-385.42 729.57,-385.42 729.57,-435.42"/>
<text text-anchor="start" x="467.57" y="-421.22" font-family="Times,serif" font-weight="bold" font-size="14.00">step_5d_annotation_diamond</text>
<text text-anchor="start" x="458.57" y="-407.22" font-family="Times,serif" font-size="14.00">Run: ../tools/diamond/diamond.cwl</text>
<text text-anchor="start" x="442.57" y="-393.22" font-family="Times,serif" font-style="italic" font-size="14.00">search Uniprot database with diamond</text>
</g>
<!-- uniprot_index&#45;&gt;step_5d_annotation_diamond -->
<g id="edge47" class="edge">
<title>uniprot_index&#45;&gt;step_5d_annotation_diamond</title>
<path fill="none" stroke="black" d="M582.07,-471.16C582.07,-462.69 582.07,-453.95 582.07,-445.86"/>
<polygon fill="black" stroke="black" points="585.57,-445.67 582.07,-435.67 578.57,-445.67 585.57,-445.67"/>
</g>
<!-- diamond_out -->
<g id="node14" class="node">
<title>diamond_out</title>
<ellipse fill="lightblue" stroke="lightblue" cx="936.07" cy="-516.68" rx="185.94" ry="45.01"/>
<text text-anchor="start" x="885.07" y="-534.48" font-family="Times,serif" font-weight="bold" font-size="14.00">diamond_out</text>
<text text-anchor="start" x="889.07" y="-520.48" font-family="Times,serif" font-size="14.00">Type: string?</text>
<text text-anchor="start" x="812.57" y="-506.48" font-family="Times,serif" font-size="14.00">Default: predict_proteins_align.tsv</text>
<text text-anchor="start" x="847.07" y="-492.48" font-family="Times,serif" font-style="italic" font-size="14.00">proteins align to Uniprot</text>
</g>
<!-- diamond_out&#45;&gt;step_5d_annotation_diamond -->
<g id="edge45" class="edge">
<title>diamond_out&#45;&gt;step_5d_annotation_diamond</title>
<path fill="none" stroke="black" d="M819.18,-481.25C771.71,-467.27 717.69,-451.36 673.22,-438.27"/>
<polygon fill="black" stroke="black" points="674.17,-434.9 663.59,-435.43 672.2,-441.61 674.17,-434.9"/>
</g>
<!-- ideel_out -->
<g id="node15" class="node">
<title>ideel_out</title>
<ellipse fill="lightblue" stroke="lightblue" cx="176.07" cy="-304.17" rx="176.14" ry="45.01"/>
<text text-anchor="start" x="140.07" y="-321.97" font-family="Times,serif" font-weight="bold" font-size="14.00">ideel_out</text>
<text text-anchor="start" x="129.07" y="-307.97" font-family="Times,serif" font-size="14.00">Type: string?</text>
<text text-anchor="start" x="88.07" y="-293.97" font-family="Times,serif" font-size="14.00">Default: ideel_report.pdf</text>
<text text-anchor="start" x="59.57" y="-279.97" font-family="Times,serif" font-style="italic" font-size="14.00">protein completeness evaluation</text>
</g>
<!-- step_5e_annotation_ideel -->
<g id="node42" class="node">
<title>step_5e_annotation_ideel</title>
<polygon fill="grey" stroke="grey" points="521.07,-222.91 237.07,-222.91 237.07,-172.91 521.07,-172.91 521.07,-222.91"/>
<text text-anchor="start" x="280.07" y="-208.71" font-family="Times,serif" font-weight="bold" font-size="14.00">step_5e_annotation_ideel</text>
<text text-anchor="start" x="275.07" y="-194.71" font-family="Times,serif" font-size="14.00">Run: ../tools/ideel/ideelPy.cwl</text>
<text text-anchor="start" x="245.07" y="-180.71" font-family="Times,serif" font-style="italic" font-size="14.00">ideel report for protein completeness</text>
</g>
<!-- ideel_out&#45;&gt;step_5e_annotation_ideel -->
<g id="edge50" class="edge">
<title>ideel_out&#45;&gt;step_5e_annotation_ideel</title>
<path fill="none" stroke="black" d="M253.39,-263.45C276.63,-251.52 301.66,-238.67 323.22,-227.59"/>
<polygon fill="black" stroke="black" points="324.93,-230.65 332.23,-222.97 321.74,-224.42 324.93,-230.65"/>
</g>
<!-- step_2_filterShortReads__qchtml -->
<g id="node16" class="node">
<title>step_2_filterShortReads__qchtml</title>
<ellipse fill="red" stroke="red" cx="214.07" cy="-2087.94" rx="171.24" ry="25.41"/>
<text text-anchor="start" x="125.07" y="-2091.74" font-family="Times,serif" font-weight="bold" font-size="14.00">filtered_reads_qc_html</text>
<text text-anchor="start" x="101.07" y="-2077.74" font-family="Times,serif" font-size="14.00">step_2_filterShortReads/qchtml</text>
</g>
<!-- step_2_filterShortReads__qcjson -->
<g id="node17" class="node">
<title>step_2_filterShortReads__qcjson</title>
<ellipse fill="red" stroke="red" cx="572.07" cy="-2087.94" rx="169" ry="25.41"/>
<text text-anchor="start" x="485.07" y="-2091.74" font-family="Times,serif" font-weight="bold" font-size="14.00">filtered_reads_qc_json</text>
<text text-anchor="start" x="460.57" y="-2077.74" font-family="Times,serif" font-size="14.00">step_2_filterShortReads/qcjson</text>
</g>
<!-- step_4g_polishing_pilon_rnd2__outfile -->
<g id="node18" class="node">
<title>step_4g_polishing_pilon_rnd2__outfile</title>
<ellipse fill="red" stroke="red" cx="1203.07" cy="-729.19" rx="195.74" ry="25.41"/>
<text text-anchor="start" x="1158.57" y="-732.99" font-family="Times,serif" font-weight="bold" font-size="14.00">polishPilon</text>
<text text-anchor="start" x="1072.57" y="-718.99" font-family="Times,serif" font-size="14.00">step_4g_polishing_pilon_rnd2/outfile</text>
</g>
<!-- step_4g_polishing_pilon_rnd2__outfile&#45;&gt;step_5a_annotation_prodigal -->
<g id="edge40" class="edge">
<title>step_4g_polishing_pilon_rnd2__outfile&#45;&gt;step_5a_annotation_prodigal</title>
<path fill="none" stroke="black" d="M1114.49,-706.46C1048.04,-690.16 956.74,-667.76 886.02,-650.41"/>
<polygon fill="black" stroke="black" points="886.73,-646.98 876.18,-648 885.06,-653.78 886.73,-646.98"/>
</g>
<!-- step_5a_annotation_prodigal__outProt -->
<g id="node19" class="node">
<title>step_5a_annotation_prodigal__outProt</title>
<ellipse fill="red" stroke="red" cx="217.07" cy="-516.68" rx="197.07" ry="25.41"/>
<text text-anchor="start" x="155.07" y="-520.48" font-family="Times,serif" font-weight="bold" font-size="14.00">predictProteins</text>
<text text-anchor="start" x="85.57" y="-506.48" font-family="Times,serif" font-size="14.00">step_5a_annotation_prodigal/outProt</text>
</g>
<!-- step_5a_annotation_prodigal__outProt&#45;&gt;step_5d_annotation_diamond -->
<g id="edge46" class="edge">
<title>step_5a_annotation_prodigal__outProt&#45;&gt;step_5d_annotation_diamond</title>
<path fill="none" stroke="black" d="M295.37,-493.31C351.82,-477.19 428.28,-455.35 488.04,-438.28"/>
<polygon fill="black" stroke="black" points="489.2,-441.59 497.86,-435.47 487.28,-434.86 489.2,-441.59"/>
</g>
<!-- step_5d_annotation_diamond__alignment -->
<g id="node20" class="node">
<title>step_5d_annotation_diamond__alignment</title>
<ellipse fill="red" stroke="red" cx="582.07" cy="-304.17" rx="212.26" ry="25.41"/>
<text text-anchor="start" x="527.07" y="-307.97" font-family="Times,serif" font-weight="bold" font-size="14.00">diamondAlign</text>
<text text-anchor="start" x="440.07" y="-293.97" font-family="Times,serif" font-size="14.00">step_5d_annotation_diamond/alignment</text>
</g>
<!-- step_5d_annotation_diamond__alignment&#45;&gt;step_5e_annotation_ideel -->
<g id="edge49" class="edge">
<title>step_5d_annotation_diamond__alignment&#45;&gt;step_5e_annotation_ideel</title>
<path fill="none" stroke="black" d="M535.5,-279.25C505.67,-263.93 466.78,-243.96 435.24,-227.76"/>
<polygon fill="black" stroke="black" points="436.62,-224.53 426.13,-223.08 433.42,-230.76 436.62,-224.53"/>
</g>
<!-- step_5e_annotation_ideel__outFig -->
<g id="node21" class="node">
<title>step_5e_annotation_ideel__outFig</title>
<ellipse fill="red" stroke="red" cx="379.07" cy="-111.46" rx="174.81" ry="25.41"/>
<text text-anchor="start" x="343.57" y="-115.26" font-family="Times,serif" font-weight="bold" font-size="14.00">ideelPDF</text>
<text text-anchor="start" x="263.57" y="-101.26" font-family="Times,serif" font-size="14.00">step_5e_annotation_ideel/outFig</text>
</g>
<!-- step_2_filterShortReads&#45;&gt;step_2_filterShortReads__qchtml -->
<g id="edge6" class="edge">
<title>step_2_filterShortReads&#45;&gt;step_2_filterShortReads__qchtml</title>
<path fill="none" stroke="black" d="M469.96,-2149.3C420.46,-2137.63 361.28,-2123.66 312.3,-2112.11"/>
<polygon fill="black" stroke="black" points="312.87,-2108.65 302.33,-2109.76 311.26,-2115.46 312.87,-2108.65"/>
</g>
<!-- step_2_filterShortReads&#45;&gt;step_2_filterShortReads__qcjson -->
<g id="edge5" class="edge">
<title>step_2_filterShortReads&#45;&gt;step_2_filterShortReads__qcjson</title>
<path fill="none" stroke="black" d="M572.07,-2148.96C572.07,-2141.07 572.07,-2132.15 572.07,-2123.66"/>
<polygon fill="black" stroke="black" points="575.57,-2123.6 572.07,-2113.6 568.57,-2123.6 575.57,-2123.6"/>
</g>
<!-- step_2_filterShortReads__outReads -->
<g id="node23" class="node">
<title>step_2_filterShortReads__outReads</title>
<ellipse fill="none" stroke="grey" cx="944.07" cy="-2087.94" rx="184.67" ry="18"/>
<text text-anchor="start" x="810.07" y="-2085.24" font-family="Times,serif" font-weight="bold" font-size="14.00">step_2_filterShortReads/outReads</text>
</g>
<!-- step_2_filterShortReads&#45;&gt;step_2_filterShortReads__outReads -->
<g id="edge4" class="edge">
<title>step_2_filterShortReads&#45;&gt;step_2_filterShortReads__outReads</title>
<path fill="none" stroke="black" d="M678.17,-2149.3C737.61,-2135.81 810.49,-2119.26 864.9,-2106.91"/>
<polygon fill="black" stroke="black" points="865.87,-2110.28 874.84,-2104.65 864.32,-2103.45 865.87,-2110.28"/>
</g>
<!-- step_3_assembly -->
<g id="node24" class="node">
<title>step_3_assembly</title>
<polygon fill="grey" stroke="grey" points="962.07,-2026.48 732.07,-2026.48 732.07,-1976.48 962.07,-1976.48 962.07,-2026.48"/>
<text text-anchor="start" x="782.07" y="-2012.28" font-family="Times,serif" font-weight="bold" font-size="14.00">step_3_assembly</text>
<text text-anchor="start" x="759.07" y="-1998.28" font-family="Times,serif" font-size="14.00">Run: ../tools/flye/flye.cwl</text>
<text text-anchor="start" x="740.07" y="-1984.28" font-family="Times,serif" font-style="italic" font-size="14.00">assembly long&#45;reads with flye</text>
</g>
<!-- step_2_filterShortReads__outReads&#45;&gt;step_3_assembly -->
<g id="edge7" class="edge">
<title>step_2_filterShortReads__outReads&#45;&gt;step_3_assembly</title>
<path fill="none" stroke="black" d="M924.44,-2069.84C912.39,-2059.35 896.6,-2045.6 882.43,-2033.27"/>
<polygon fill="black" stroke="black" points="884.6,-2030.51 874.76,-2026.59 880,-2035.79 884.6,-2030.51"/>
</g>
<!-- step_2_filterShortReads__outReads&#45;&gt;step_4a_polishing_minimap2 -->
<g id="edge10" class="edge">
<title>step_2_filterShortReads__outReads&#45;&gt;step_4a_polishing_minimap2</title>
<path fill="none" stroke="black" d="M952.46,-2069.72C958.12,-2057.75 965.53,-2041.34 971.07,-2026.48 985.02,-1989.06 988.76,-1979.54 997.07,-1940.48 1005.45,-1901.07 1010.6,-1855.02 1013.39,-1824.34"/>
<polygon fill="black" stroke="black" points="1016.89,-1824.43 1014.28,-1814.16 1009.92,-1823.82 1016.89,-1824.43"/>
</g>
<!-- step_2_filterShortReads__outReads&#45;&gt;step_4b_polishing_racon -->
<g id="edge13" class="edge">
<title>step_2_filterShortReads__outReads&#45;&gt;step_4b_polishing_racon</title>
<path fill="none" stroke="black" d="M1084.97,-2076.23C1285.2,-2057.07 1628.07,-2007.95 1628.07,-1896.22 1628.07,-1896.22 1628.07,-1896.22 1628.07,-1787.97 1628.07,-1720.55 1657.38,-1684.49 1609.07,-1637.46 1580,-1609.15 1367.54,-1593.2 1202.51,-1584.98"/>
<polygon fill="black" stroke="black" points="1202.37,-1581.47 1192.21,-1584.47 1202.02,-1588.46 1202.37,-1581.47"/>
</g>
<!-- step_2_filterShortReads__outReads&#45;&gt;step_4c_polishing_medaka -->
<g id="edge18" class="edge">
<title>step_2_filterShortReads__outReads&#45;&gt;step_4c_polishing_medaka</title>
<path fill="none" stroke="black" d="M845.55,-2072.7C805.4,-2063.76 759.87,-2049.4 723.07,-2026.48 662.25,-1988.6 628.07,-1967.88 628.07,-1896.22 628.07,-1896.22 628.07,-1896.22 628.07,-1575.46 628.07,-1513.2 620.16,-1440.97 614.82,-1399.35"/>
<polygon fill="black" stroke="black" points="618.27,-1398.67 613.5,-1389.2 611.32,-1399.57 618.27,-1398.67"/>
</g>
<!-- step_3_assembly__contigs_fasta -->
<g id="node25" class="node">
<title>step_3_assembly__contigs_fasta</title>
<ellipse fill="none" stroke="grey" cx="822.07" cy="-1895.22" rx="165.97" ry="18"/>
<text text-anchor="start" x="702.57" y="-1892.52" font-family="Times,serif" font-weight="bold" font-size="14.00">step_3_assembly/contigs_fasta</text>
</g>
<!-- step_3_assembly&#45;&gt;step_3_assembly__contigs_fasta -->
<g id="edge8" class="edge">
<title>step_3_assembly&#45;&gt;step_3_assembly__contigs_fasta</title>
<path fill="none" stroke="black" d="M841.27,-1976.3C837.48,-1960.51 832.53,-1939.86 828.61,-1923.49"/>
<polygon fill="black" stroke="black" points="831.93,-1922.35 826.2,-1913.44 825.13,-1923.98 831.93,-1922.35"/>
</g>
<!-- step_3_assembly__contigs_fasta&#45;&gt;step_4a_polishing_minimap2 -->
<g id="edge9" class="edge">
<title>step_3_assembly__contigs_fasta&#45;&gt;step_4a_polishing_minimap2</title>
<path fill="none" stroke="black" d="M853.24,-1877.47C882.54,-1861.73 927.01,-1837.83 962.08,-1818.98"/>
<polygon fill="black" stroke="black" points="964.09,-1821.88 971.24,-1814.06 960.77,-1815.71 964.09,-1821.88"/>
</g>
<!-- step_3_assembly__contigs_fasta&#45;&gt;step_4b_polishing_racon -->
<g id="edge15" class="edge">
<title>step_3_assembly__contigs_fasta&#45;&gt;step_4b_polishing_racon</title>
<path fill="none" stroke="black" d="M811.41,-1877.11C785.14,-1832.56 723.42,-1711.28 780.07,-1637.46 790.41,-1623.98 818.29,-1612.86 851.02,-1604.02"/>
<polygon fill="black" stroke="black" points="852.04,-1607.37 860.84,-1601.47 850.28,-1600.6 852.04,-1607.37"/>
</g>
<!-- step_4a_polishing_minimap2__outPAF -->
<g id="node27" class="node">
<title>step_4a_polishing_minimap2__outPAF</title>
<ellipse fill="none" stroke="grey" cx="987.07" cy="-1682.71" rx="197.66" ry="18"/>
<text text-anchor="start" x="843.07" y="-1680.01" font-family="Times,serif" font-weight="bold" font-size="14.00">step_4a_polishing_minimap2/outPAF</text>
</g>
<!-- step_4a_polishing_minimap2&#45;&gt;step_4a_polishing_minimap2__outPAF -->
<g id="edge12" class="edge">
<title>step_4a_polishing_minimap2&#45;&gt;step_4a_polishing_minimap2__outPAF</title>
<path fill="none" stroke="black" d="M1009.34,-1763.79C1004.95,-1748 999.21,-1727.35 994.65,-1710.98"/>
<polygon fill="black" stroke="black" points="997.91,-1709.63 991.86,-1700.93 991.17,-1711.5 997.91,-1709.63"/>
</g>
<!-- step_4a_polishing_minimap2__outPAF&#45;&gt;step_4b_polishing_racon -->
<g id="edge14" class="edge">
<title>step_4a_polishing_minimap2__outPAF&#45;&gt;step_4b_polishing_racon</title>
<path fill="none" stroke="black" d="M989.88,-1664.5C992.21,-1650.19 995.6,-1629.38 998.49,-1611.7"/>
<polygon fill="black" stroke="black" points="1001.96,-1612.16 1000.11,-1601.72 995.05,-1611.03 1001.96,-1612.16"/>
</g>
<!-- step_4b_polishing_racon__outAssembly -->
<g id="node29" class="node">
<title>step_4b_polishing_racon__outAssembly</title>
<ellipse fill="none" stroke="grey" cx="1004.07" cy="-1470.21" rx="204.16" ry="18"/>
<text text-anchor="start" x="855.07" y="-1467.51" font-family="Times,serif" font-weight="bold" font-size="14.00">step_4b_polishing_racon/outAssembly</text>
</g>
<!-- step_4b_polishing_racon&#45;&gt;step_4b_polishing_racon__outAssembly -->
<g id="edge17" class="edge">
<title>step_4b_polishing_racon&#45;&gt;step_4b_polishing_racon__outAssembly</title>
<path fill="none" stroke="black" d="M1004.07,-1551.28C1004.07,-1535.49 1004.07,-1514.84 1004.07,-1498.47"/>
<polygon fill="black" stroke="black" points="1007.57,-1498.42 1004.07,-1488.42 1000.57,-1498.42 1007.57,-1498.42"/>
</g>
<!-- step_4b_polishing_racon__outAssembly&#45;&gt;step_4c_polishing_medaka -->
<g id="edge19" class="edge">
<title>step_4b_polishing_racon__outAssembly&#45;&gt;step_4c_polishing_medaka</title>
<path fill="none" stroke="black" d="M942.94,-1453.03C880.98,-1436.64 784.07,-1410.99 710.76,-1391.59"/>
<polygon fill="black" stroke="black" points="711.6,-1388.2 701.04,-1389.02 709.81,-1394.96 711.6,-1388.2"/>
</g>
<!-- step_4b_polishing_racon__outAssembly&#45;&gt;step_4d_polishing_illumina_align_rnd1 -->
<g id="edge24" class="edge">
<title>step_4b_polishing_racon__outAssembly&#45;&gt;step_4d_polishing_illumina_align_rnd1</title>
<path fill="none" stroke="black" d="M1073.83,-1453.19C1115.29,-1444.05 1169,-1432.87 1217.07,-1424.95 1309.49,-1409.72 1412.3,-1396.56 1499.79,-1386.47"/>
<polygon fill="black" stroke="black" points="1500.3,-1389.94 1509.83,-1385.32 1499.5,-1382.98 1500.3,-1389.94"/>
</g>
<!-- step_4b_polishing_racon__outAssembly&#45;&gt;step_4e_polishing_pilon_rnd1 -->
<g id="edge27" class="edge">
<title>step_4b_polishing_racon__outAssembly&#45;&gt;step_4e_polishing_pilon_rnd1</title>
<path fill="none" stroke="black" d="M1036.44,-1452.23C1081.75,-1426.58 1162.83,-1373.34 1201.07,-1302.95 1220.73,-1266.77 1223.46,-1218.65 1222.61,-1186.67"/>
<polygon fill="black" stroke="black" points="1226.1,-1186.33 1222.2,-1176.48 1219.11,-1186.61 1226.1,-1186.33"/>
</g>
<!-- step_4c_polishing_medaka__outConsensus -->
<g id="node31" class="node">
<title>step_4c_polishing_medaka__outConsensus</title>
<ellipse fill="none" stroke="grey" cx="575.07" cy="-1257.7" rx="221.76" ry="18"/>
<text text-anchor="start" x="412.57" y="-1255" font-family="Times,serif" font-weight="bold" font-size="14.00">step_4c_polishing_medaka/outConsensus</text>
</g>
<!-- step_4c_polishing_medaka&#45;&gt;step_4c_polishing_medaka__outConsensus -->
<g id="edge21" class="edge">
<title>step_4c_polishing_medaka&#45;&gt;step_4c_polishing_medaka__outConsensus</title>
<path fill="none" stroke="black" d="M601.95,-1338.77C596.6,-1322.83 589.59,-1301.94 584.07,-1285.49"/>
<polygon fill="black" stroke="black" points="587.35,-1284.28 580.85,-1275.91 580.71,-1286.51 587.35,-1284.28"/>
</g>
<!-- step_4d_polishing_illumina_align_rnd1__bam -->
<g id="node33" class="node">
<title>step_4d_polishing_illumina_align_rnd1__bam</title>
<ellipse fill="none" stroke="grey" cx="1707.07" cy="-1257.7" rx="233.16" ry="18"/>
<text text-anchor="start" x="1535.57" y="-1255" font-family="Times,serif" font-weight="bold" font-size="14.00">step_4d_polishing_illumina_align_rnd1/bam</text>
</g>
<!-- step_4d_polishing_illumina_align_rnd1&#45;&gt;step_4d_polishing_illumina_align_rnd1__bam -->
<g id="edge26" class="edge">
<title>step_4d_polishing_illumina_align_rnd1&#45;&gt;step_4d_polishing_illumina_align_rnd1__bam</title>
<path fill="none" stroke="black" d="M1707.07,-1338.77C1707.07,-1322.98 1707.07,-1302.33 1707.07,-1285.96"/>
<polygon fill="black" stroke="black" points="1710.57,-1285.91 1707.07,-1275.91 1703.57,-1285.91 1710.57,-1285.91"/>
</g>
<!-- step_4d_polishing_illumina_align_rnd1__bam&#45;&gt;step_4e_polishing_pilon_rnd1 -->
<g id="edge28" class="edge">
<title>step_4d_polishing_illumina_align_rnd1__bam&#45;&gt;step_4e_polishing_pilon_rnd1</title>
<path fill="none" stroke="black" d="M1632.04,-1240.63C1554.81,-1224.1 1433.24,-1198.07 1342.14,-1178.57"/>
<polygon fill="black" stroke="black" points="1342.81,-1175.14 1332.3,-1176.47 1341.35,-1181.98 1342.81,-1175.14"/>
</g>
<!-- step_4e_polishing_pilon_rnd1__outfile -->
<g id="node35" class="node">
<title>step_4e_polishing_pilon_rnd1__outfile</title>
<ellipse fill="none" stroke="grey" cx="1220.07" cy="-1072.44" rx="197.66" ry="18"/>
<text text-anchor="start" x="1076.07" y="-1069.74" font-family="Times,serif" font-weight="bold" font-size="14.00">step_4e_polishing_pilon_rnd1/outfile</text>
</g>
<!-- step_4e_polishing_pilon_rnd1&#45;&gt;step_4e_polishing_pilon_rnd1__outfile -->
<g id="edge30" class="edge">
<title>step_4e_polishing_pilon_rnd1&#45;&gt;step_4e_polishing_pilon_rnd1__outfile</title>
<path fill="none" stroke="black" d="M1220.07,-1126.08C1220.07,-1118.11 1220.07,-1109.21 1220.07,-1101.02"/>
<polygon fill="black" stroke="black" points="1223.57,-1100.82 1220.07,-1090.82 1216.57,-1100.82 1223.57,-1100.82"/>
</g>
<!-- step_4e_polishing_pilon_rnd1__outfile&#45;&gt;step_4f_polishing_illumina_align_rnd2 -->
<g id="edge33" class="edge">
<title>step_4e_polishing_pilon_rnd1__outfile&#45;&gt;step_4f_polishing_illumina_align_rnd2</title>
<path fill="none" stroke="black" d="M1271.69,-1055.02C1302.27,-1045.29 1341.78,-1032.72 1376.87,-1021.55"/>
<polygon fill="black" stroke="black" points="1378.17,-1024.81 1386.64,-1018.44 1376.05,-1018.14 1378.17,-1024.81"/>
</g>
<!-- step_4e_polishing_pilon_rnd1__outfile&#45;&gt;step_4g_polishing_pilon_rnd2 -->
<g id="edge36" class="edge">
<title>step_4e_polishing_pilon_rnd1__outfile&#45;&gt;step_4g_polishing_pilon_rnd2</title>
<path fill="none" stroke="black" d="M1218.82,-1054.16C1216.03,-1015.57 1209.24,-921.76 1205.55,-870.79"/>
<polygon fill="black" stroke="black" points="1209.03,-870.31 1204.82,-860.59 1202.05,-870.82 1209.03,-870.31"/>
</g>
<!-- step_4f_polishing_illumina_align_rnd2__bam -->
<g id="node37" class="node">
<title>step_4f_polishing_illumina_align_rnd2__bam</title>
<ellipse fill="none" stroke="grey" cx="1462.07" cy="-914.44" rx="231.26" ry="18"/>
<text text-anchor="start" x="1292.07" y="-911.74" font-family="Times,serif" font-weight="bold" font-size="14.00">step_4f_polishing_illumina_align_rnd2/bam</text>
</g>
<!-- step_4f_polishing_illumina_align_rnd2&#45;&gt;step_4f_polishing_illumina_align_rnd2__bam -->
<g id="edge35" class="edge">
<title>step_4f_polishing_illumina_align_rnd2&#45;&gt;step_4f_polishing_illumina_align_rnd2__bam</title>
<path fill="none" stroke="black" d="M1462.07,-968.08C1462.07,-960.11 1462.07,-951.21 1462.07,-943.02"/>
<polygon fill="black" stroke="black" points="1465.57,-942.82 1462.07,-932.82 1458.57,-942.82 1465.57,-942.82"/>
</g>
<!-- step_4f_polishing_illumina_align_rnd2__bam&#45;&gt;step_4g_polishing_pilon_rnd2 -->
<g id="edge37" class="edge">
<title>step_4f_polishing_illumina_align_rnd2__bam&#45;&gt;step_4g_polishing_pilon_rnd2</title>
<path fill="none" stroke="black" d="M1406.51,-896.92C1373.76,-887.19 1331.53,-874.63 1294.04,-863.48"/>
<polygon fill="black" stroke="black" points="1294.69,-860.03 1284.11,-860.53 1292.7,-866.74 1294.69,-860.03"/>
</g>
<!-- step_4g_polishing_pilon_rnd2&#45;&gt;step_4g_polishing_pilon_rnd2__outfile -->
<g id="edge39" class="edge">
<title>step_4g_polishing_pilon_rnd2&#45;&gt;step_4g_polishing_pilon_rnd2__outfile</title>
<path fill="none" stroke="black" d="M1203.07,-810.26C1203.07,-796.9 1203.07,-780.06 1203.07,-765.28"/>
<polygon fill="black" stroke="black" points="1206.57,-764.96 1203.07,-754.96 1199.57,-764.96 1206.57,-764.96"/>
</g>
<!-- step_5a_annotation_prodigal&#45;&gt;step_5a_annotation_prodigal__outProt -->
<g id="edge43" class="edge">
<title>step_5a_annotation_prodigal&#45;&gt;step_5a_annotation_prodigal__outProt</title>
<path fill="none" stroke="black" d="M627.09,-597.92C563.93,-587.49 489.83,-574.74 423.07,-561.93 390.19,-555.62 354.48,-548.17 322.18,-541.19"/>
<polygon fill="black" stroke="black" points="322.79,-537.74 312.27,-539.05 321.3,-544.59 322.79,-537.74"/>
</g>
<!-- step_5a_annotation_prodigal__outGBK -->
<g id="node40" class="node">
<title>step_5a_annotation_prodigal__outGBK</title>
<ellipse fill="none" stroke="grey" cx="1340.07" cy="-516.68" rx="200.36" ry="18"/>
<text text-anchor="start" x="1194.07" y="-513.98" font-family="Times,serif" font-weight="bold" font-size="14.00">step_5a_annotation_prodigal/outGBK</text>
</g>
<!-- step_5a_annotation_prodigal&#45;&gt;step_5a_annotation_prodigal__outGBK -->
<g id="edge44" class="edge">
<title>step_5a_annotation_prodigal&#45;&gt;step_5a_annotation_prodigal__outGBK</title>
<path fill="none" stroke="black" d="M927.74,-597.86C990.64,-587.39 1064.51,-574.63 1131.07,-561.93 1173.21,-553.89 1219.93,-544.08 1258.5,-535.74"/>
<polygon fill="black" stroke="black" points="1259.6,-539.09 1268.63,-533.55 1258.12,-532.25 1259.6,-539.09"/>
</g>
<!-- step_5d_annotation_diamond&#45;&gt;step_5d_annotation_diamond__alignment -->
<g id="edge48" class="edge">
<title>step_5d_annotation_diamond&#45;&gt;step_5d_annotation_diamond__alignment</title>
<path fill="none" stroke="black" d="M582.07,-385.24C582.07,-371.88 582.07,-355.05 582.07,-340.26"/>
<polygon fill="black" stroke="black" points="585.57,-339.94 582.07,-329.94 578.57,-339.94 585.57,-339.94"/>
</g>
<!-- step_5e_annotation_ideel&#45;&gt;step_5e_annotation_ideel__outFig -->
<g id="edge51" class="edge">
<title>step_5e_annotation_ideel&#45;&gt;step_5e_annotation_ideel__outFig</title>
<path fill="none" stroke="black" d="M379.07,-172.48C379.07,-164.59 379.07,-155.67 379.07,-147.18"/>
<polygon fill="black" stroke="black" points="382.57,-147.12 379.07,-137.12 375.57,-147.12 382.57,-147.12"/>
</g>
<!-- INPUT -->
<g id="node43" class="node">
<title>INPUT</title>
<ellipse fill="lightblue" stroke="lightblue" cx="379.07" cy="-25" rx="41.69" ry="18"/>
<text text-anchor="middle" x="379.07" y="-21.3" font-family="Times,serif" font-size="14.00">INPUT</text>
</g>
<!-- OUTPUT -->
<g id="node44" class="node">
<title>OUTPUT</title>
<ellipse fill="red" stroke="red" cx="490.07" cy="-25" rx="51.19" ry="18"/>
<text text-anchor="middle" x="490.07" y="-21.3" font-family="Times,serif" font-size="14.00">OUTPUT</text>
</g>
<!-- STEP -->
<g id="node45" class="node">
<title>STEP</title>
<polygon fill="grey" stroke="grey" points="615.07,-43 559.07,-43 559.07,-7 615.07,-7 615.07,-43"/>
<text text-anchor="middle" x="587.07" y="-21.3" font-family="Times,serif" font-size="14.00">STEP</text>
</g>
<!-- legend_text -->
<g id="node46" class="node">
<title>legend_text</title>
<polygon fill="none" stroke="black" points="1381.57,-50 632.57,-50 632.57,0 1381.57,0 1381.57,-50"/>
<text text-anchor="start" x="796.57" y="-35.8" font-family="Times,serif" font-weight="bold" font-size="14.00">Long read assembly workflow with Illumina polishing</text>
<text text-anchor="start" x="941.57" y="-21.8" font-family="Times,serif" font-size="14.00">CWL version: v1.1</text>
<text text-anchor="start" x="640.57" y="-7.8" font-family="Times,serif" font-style="italic" font-size="14.00">Implementation of nanopore reads assembly pipeline with final polishing using Illumina reads (paired)</text>
</g>
</g>
</svg>
