<?xml version="1.0" encoding="UTF-8" standalone="no"?>
<!DOCTYPE svg PUBLIC "-//W3C//DTD SVG 1.1//EN"
 "http://www.w3.org/Graphics/SVG/1.1/DTD/svg11.dtd">
<!-- Generated by graphviz version 2.43.0 (0)
 -->
<!-- Title: G Pages: 1 -->
<svg width="3071pt" height="1805pt"
 viewBox="0.00 0.00 3071.17 1805.39" xmlns="http://www.w3.org/2000/svg" xmlns:xlink="http://www.w3.org/1999/xlink">
<g id="graph0" class="graph" transform="scale(1 1) rotate(0) translate(4 1801.39)">
<title>G</title>
<polygon fill="white" stroke="transparent" points="-4,4 -4,-1801.39 3067.17,-1801.39 3067.17,4 -4,4"/>
<!-- raw_reads -->
<g id="node1" class="node">
<title>raw_reads</title>
<ellipse fill="lightblue" stroke="lightblue" cx="618.17" cy="-1752.14" rx="149.81" ry="45.01"/>
<text text-anchor="start" x="578.67" y="-1769.94" font-family="Times,serif" font-weight="bold" font-size="14.00">raw_reads</text>
<text text-anchor="start" x="582.67" y="-1755.94" font-family="Times,serif" font-size="14.00">Type: File</text>
<text text-anchor="start" x="520.17" y="-1741.94" font-family="Times,serif" font-size="14.00">Format: edam:format_1930</text>
<text text-anchor="start" x="535.17" y="-1727.94" font-family="Times,serif" font-style="italic" font-size="14.00">long reads to assemble</text>
</g>
<!-- step_2_filterShortReads -->
<g id="node23" class="node">
<title>step_2_filterShortReads</title>
<polygon fill="grey" stroke="grey" points="1043.17,-1670.88 791.17,-1670.88 791.17,-1620.88 1043.17,-1620.88 1043.17,-1670.88"/>
<text text-anchor="start" x="822.67" y="-1656.68" font-family="Times,serif" font-weight="bold" font-size="14.00">step_2_filterShortReads</text>
<text text-anchor="start" x="799.17" y="-1642.68" font-family="Times,serif" font-size="14.00">Run: ../tools/fastp/fastp_filter.cwl</text>
<text text-anchor="start" x="844.67" y="-1628.68" font-family="Times,serif" font-style="italic" font-size="14.00">filtering short reads</text>
</g>
<!-- raw_reads&#45;&gt;step_2_filterShortReads -->
<g id="edge1" class="edge">
<title>raw_reads&#45;&gt;step_2_filterShortReads</title>
<path fill="none" stroke="black" d="M714.83,-1717.43C754.94,-1703.45 800.87,-1687.43 838.83,-1674.2"/>
<polygon fill="black" stroke="black" points="840.01,-1677.49 848.3,-1670.9 837.7,-1670.88 840.01,-1677.49"/>
</g>
<!-- min_read_size -->
<g id="node2" class="node">
<title>min_read_size</title>
<ellipse fill="lightblue" stroke="lightblue" cx="917.17" cy="-1752.14" rx="130.63" ry="45.01"/>
<text text-anchor="start" x="861.67" y="-1769.94" font-family="Times,serif" font-weight="bold" font-size="14.00">min_read_size</text>
<text text-anchor="start" x="881.67" y="-1755.94" font-family="Times,serif" font-size="14.00">Type: int?</text>
<text text-anchor="start" x="872.67" y="-1741.94" font-family="Times,serif" font-size="14.00">Default: 200</text>
<text text-anchor="start" x="832.67" y="-1727.94" font-family="Times,serif" font-style="italic" font-size="14.00">Raw reads filter by size</text>
</g>
<!-- min_read_size&#45;&gt;step_2_filterShortReads -->
<g id="edge2" class="edge">
<title>min_read_size&#45;&gt;step_2_filterShortReads</title>
<path fill="none" stroke="black" d="M917.17,-1706.62C917.17,-1698.15 917.17,-1689.41 917.17,-1681.32"/>
<polygon fill="black" stroke="black" points="920.67,-1681.13 917.17,-1671.13 913.67,-1681.13 920.67,-1681.13"/>
</g>
<!-- reads_filter_bysize_name -->
<g id="node3" class="node">
<title>reads_filter_bysize_name</title>
<ellipse fill="lightblue" stroke="lightblue" cx="1302.17" cy="-1752.14" rx="236.35" ry="45.01"/>
<text text-anchor="start" x="1204.17" y="-1769.94" font-family="Times,serif" font-weight="bold" font-size="14.00">reads_filter_bysize_name</text>
<text text-anchor="start" x="1255.17" y="-1755.94" font-family="Times,serif" font-size="14.00">Type: string?</text>
<text text-anchor="start" x="1221.67" y="-1741.94" font-family="Times,serif" font-size="14.00">Default: reads_filtered</text>
<text text-anchor="start" x="1143.17" y="-1727.94" font-family="Times,serif" font-style="italic" font-size="14.00">prefix for reads with length lt min_read_size</text>
</g>
<!-- reads_filter_bysize_name&#45;&gt;step_2_filterShortReads -->
<g id="edge3" class="edge">
<title>reads_filter_bysize_name&#45;&gt;step_2_filterShortReads</title>
<path fill="none" stroke="black" d="M1168.06,-1714.82C1117.91,-1701.24 1061.93,-1686.08 1015.59,-1673.53"/>
<polygon fill="black" stroke="black" points="1016.42,-1670.13 1005.86,-1670.9 1014.59,-1676.89 1016.42,-1670.13"/>
</g>
<!-- polish_paf -->
<g id="node4" class="node">
<title>polish_paf</title>
<ellipse fill="lightblue" stroke="lightblue" cx="544.17" cy="-1366.71" rx="156.04" ry="45.01"/>
<text text-anchor="start" x="504.17" y="-1384.51" font-family="Times,serif" font-weight="bold" font-size="14.00">polish_paf</text>
<text text-anchor="start" x="497.17" y="-1370.51" font-family="Times,serif" font-size="14.00">Type: string?</text>
<text text-anchor="start" x="441.67" y="-1356.51" font-family="Times,serif" font-size="14.00">Default: assembly_polish.paf</text>
<text text-anchor="start" x="472.67" y="-1342.51" font-family="Times,serif" font-style="italic" font-size="14.00">polish align PAF file</text>
</g>
<!-- step_4a_polishing_minimap2 -->
<g id="node25" class="node">
<title>step_4a_polishing_minimap2</title>
<polygon fill="grey" stroke="grey" points="674.17,-1285.46 220.17,-1285.46 220.17,-1235.46 674.17,-1235.46 674.17,-1285.46"/>
<text text-anchor="start" x="334.17" y="-1271.26" font-family="Times,serif" font-weight="bold" font-size="14.00">step_4a_polishing_minimap2</text>
<text text-anchor="start" x="278.67" y="-1257.26" font-family="Times,serif" font-size="14.00">Run: ../tools/minimap2/minimap2_to_polish.cwl</text>
<text text-anchor="start" x="228.17" y="-1243.26" font-family="Times,serif" font-style="italic" font-size="14.00">polishing step 1, map reads back to assembly with minimap2</text>
</g>
<!-- polish_paf&#45;&gt;step_4a_polishing_minimap2 -->
<g id="edge11" class="edge">
<title>polish_paf&#45;&gt;step_4a_polishing_minimap2</title>
<path fill="none" stroke="black" d="M504.16,-1322.71C494.94,-1312.81 485.31,-1302.45 476.63,-1293.13"/>
<polygon fill="black" stroke="black" points="478.98,-1290.51 469.61,-1285.58 473.86,-1295.28 478.98,-1290.51"/>
</g>
<!-- polish_assembly_racon -->
<g id="node5" class="node">
<title>polish_assembly_racon</title>
<ellipse fill="lightblue" stroke="lightblue" cx="955.17" cy="-1154.21" rx="198.89" ry="45.01"/>
<text text-anchor="start" x="865.67" y="-1172.01" font-family="Times,serif" font-weight="bold" font-size="14.00">polish_assembly_racon</text>
<text text-anchor="start" x="908.17" y="-1158.01" font-family="Times,serif" font-size="14.00">Type: string?</text>
<text text-anchor="start" x="822.67" y="-1144.01" font-family="Times,serif" font-size="14.00">Default: assembly_polish_racon.fasta</text>
<text text-anchor="start" x="857.67" y="-1130.01" font-family="Times,serif" font-style="italic" font-size="14.00">polish assembly with racon</text>
</g>
<!-- step_4b_polishing_racon -->
<g id="node26" class="node">
<title>step_4b_polishing_racon</title>
<polygon fill="grey" stroke="grey" points="916.17,-1072.95 540.17,-1072.95 540.17,-1022.95 916.17,-1022.95 916.17,-1072.95"/>
<text text-anchor="start" x="632.17" y="-1058.75" font-family="Times,serif" font-weight="bold" font-size="14.00">step_4b_polishing_racon</text>
<text text-anchor="start" x="626.67" y="-1044.75" font-family="Times,serif" font-size="14.00">Run: ../tools/racon/racon.cwl</text>
<text text-anchor="start" x="548.17" y="-1030.75" font-family="Times,serif" font-style="italic" font-size="14.00">polishing step 2, using racon to improve assembly</text>
</g>
<!-- polish_assembly_racon&#45;&gt;step_4b_polishing_racon -->
<g id="edge16" class="edge">
<title>polish_assembly_racon&#45;&gt;step_4b_polishing_racon</title>
<path fill="none" stroke="black" d="M868.38,-1113.34C842.3,-1101.37 814.23,-1088.48 790.11,-1077.4"/>
<polygon fill="black" stroke="black" points="791.27,-1074.08 780.72,-1073.09 788.35,-1080.44 791.27,-1074.08"/>
</g>
<!-- medaka_model -->
<g id="node6" class="node">
<title>medaka_model</title>
<ellipse fill="lightblue" stroke="lightblue" cx="1403.17" cy="-941.7" rx="193.08" ry="45.01"/>
<text text-anchor="start" x="1344.67" y="-959.5" font-family="Times,serif" font-weight="bold" font-size="14.00">medaka_model</text>
<text text-anchor="start" x="1356.17" y="-945.5" font-family="Times,serif" font-size="14.00">Type: string?</text>
<text text-anchor="start" x="1300.17" y="-931.5" font-family="Times,serif" font-size="14.00">Default: r941_min_fast_g330</text>
<text text-anchor="start" x="1274.67" y="-917.5" font-family="Times,serif" font-style="italic" font-size="14.00">medaka model to improve assembly</text>
</g>
<!-- step_4c_polishing_medaka -->
<g id="node27" class="node">
<title>step_4c_polishing_medaka</title>
<polygon fill="grey" stroke="grey" points="1381.17,-860.44 983.17,-860.44 983.17,-810.44 1381.17,-810.44 1381.17,-860.44"/>
<text text-anchor="start" x="1078.17" y="-846.24" font-family="Times,serif" font-weight="bold" font-size="14.00">step_4c_polishing_medaka</text>
<text text-anchor="start" x="1064.67" y="-832.24" font-family="Times,serif" font-size="14.00">Run: ../tools/medaka/medaka.cwl</text>
<text text-anchor="start" x="991.17" y="-818.24" font-family="Times,serif" font-style="italic" font-size="14.00">polishing step 3, using medaka to create a consensus</text>
</g>
<!-- medaka_model&#45;&gt;step_4c_polishing_medaka -->
<g id="edge20" class="edge">
<title>medaka_model&#45;&gt;step_4c_polishing_medaka</title>
<path fill="none" stroke="black" d="M1318.67,-900.83C1293.29,-888.86 1265.96,-875.97 1242.47,-864.89"/>
<polygon fill="black" stroke="black" points="1243.87,-861.68 1233.33,-860.58 1240.88,-868.01 1243.87,-861.68"/>
</g>
<!-- predict_proteins -->
<g id="node7" class="node">
<title>predict_proteins</title>
<ellipse fill="lightblue" stroke="lightblue" cx="1636.17" cy="-729.19" rx="217.58" ry="45.01"/>
<text text-anchor="start" x="1571.17" y="-746.99" font-family="Times,serif" font-weight="bold" font-size="14.00">predict_proteins</text>
<text text-anchor="start" x="1589.17" y="-732.99" font-family="Times,serif" font-size="14.00">Type: string?</text>
<text text-anchor="start" x="1518.17" y="-718.99" font-family="Times,serif" font-size="14.00">Default: predicted_proteins.fasta</text>
<text text-anchor="start" x="1490.17" y="-704.99" font-family="Times,serif" font-style="italic" font-size="14.00">predicted proteins from assembly (fasta)</text>
</g>
<!-- step_5a_annotation_prodigal -->
<g id="node28" class="node">
<title>step_5a_annotation_prodigal</title>
<polygon fill="grey" stroke="grey" points="1796.67,-647.93 1475.67,-647.93 1475.67,-597.93 1796.67,-597.93 1796.67,-647.93"/>
<text text-anchor="start" x="1523.67" y="-633.73" font-family="Times,serif" font-weight="bold" font-size="14.00">step_5a_annotation_prodigal</text>
<text text-anchor="start" x="1515.17" y="-619.73" font-family="Times,serif" font-size="14.00">Run: ../tools/prodigal/prodigal.cwl</text>
<text text-anchor="start" x="1483.67" y="-605.73" font-family="Times,serif" font-style="italic" font-size="14.00">predict proteins in assembly with Prodigal</text>
</g>
<!-- predict_proteins&#45;&gt;step_5a_annotation_prodigal -->
<g id="edge23" class="edge">
<title>predict_proteins&#45;&gt;step_5a_annotation_prodigal</title>
<path fill="none" stroke="black" d="M1636.17,-683.67C1636.17,-675.2 1636.17,-666.46 1636.17,-658.37"/>
<polygon fill="black" stroke="black" points="1639.67,-658.18 1636.17,-648.18 1632.67,-658.18 1639.67,-658.18"/>
</g>
<!-- predict_proteins_gbk -->
<g id="node8" class="node">
<title>predict_proteins_gbk</title>
<ellipse fill="lightblue" stroke="lightblue" cx="2083.17" cy="-729.19" rx="211.35" ry="45.01"/>
<text text-anchor="start" x="2000.17" y="-746.99" font-family="Times,serif" font-weight="bold" font-size="14.00">predict_proteins_gbk</text>
<text text-anchor="start" x="2036.17" y="-732.99" font-family="Times,serif" font-size="14.00">Type: string?</text>
<text text-anchor="start" x="1969.67" y="-718.99" font-family="Times,serif" font-size="14.00">Default: predicted_proteins.gbk</text>
<text text-anchor="start" x="1941.67" y="-704.99" font-family="Times,serif" font-style="italic" font-size="14.00">predicted proteins from assembly (gbk)</text>
</g>
<!-- predict_proteins_gbk&#45;&gt;step_5a_annotation_prodigal -->
<g id="edge24" class="edge">
<title>predict_proteins_gbk&#45;&gt;step_5a_annotation_prodigal</title>
<path fill="none" stroke="black" d="M1942.35,-695.34C1880.18,-680.84 1808.07,-664.02 1749.45,-650.35"/>
<polygon fill="black" stroke="black" points="1749.96,-646.88 1739.42,-648.01 1748.37,-653.69 1749.96,-646.88"/>
</g>
<!-- uniprot_index -->
<g id="node9" class="node">
<title>uniprot_index</title>
<ellipse fill="lightblue" stroke="lightblue" cx="2210.17" cy="-516.68" rx="149.81" ry="45.01"/>
<text text-anchor="start" x="2155.67" y="-534.48" font-family="Times,serif" font-weight="bold" font-size="14.00">uniprot_index</text>
<text text-anchor="start" x="2174.67" y="-520.48" font-family="Times,serif" font-size="14.00">Type: File</text>
<text text-anchor="start" x="2112.17" y="-506.48" font-family="Times,serif" font-size="14.00">Default: ../db/uniprot.dmnd</text>
<text text-anchor="start" x="2148.17" y="-492.48" font-family="Times,serif" font-style="italic" font-size="14.00">uniprot index file</text>
</g>
<!-- step_5d_annotation_diamond -->
<g id="node29" class="node">
<title>step_5d_annotation_diamond</title>
<polygon fill="grey" stroke="grey" points="2357.67,-435.42 2062.67,-435.42 2062.67,-385.42 2357.67,-385.42 2357.67,-435.42"/>
<text text-anchor="start" x="2095.67" y="-421.22" font-family="Times,serif" font-weight="bold" font-size="14.00">step_5d_annotation_diamond</text>
<text text-anchor="start" x="2086.67" y="-407.22" font-family="Times,serif" font-size="14.00">Run: ../tools/diamond/diamond.cwl</text>
<text text-anchor="start" x="2070.67" y="-393.22" font-family="Times,serif" font-style="italic" font-size="14.00">search Uniprot database with diamond</text>
</g>
<!-- uniprot_index&#45;&gt;step_5d_annotation_diamond -->
<g id="edge29" class="edge">
<title>uniprot_index&#45;&gt;step_5d_annotation_diamond</title>
<path fill="none" stroke="black" d="M2210.17,-471.16C2210.17,-462.69 2210.17,-453.95 2210.17,-445.86"/>
<polygon fill="black" stroke="black" points="2213.67,-445.67 2210.17,-435.67 2206.67,-445.67 2213.67,-445.67"/>
</g>
<!-- diamond_out -->
<g id="node10" class="node">
<title>diamond_out</title>
<ellipse fill="lightblue" stroke="lightblue" cx="2564.17" cy="-516.68" rx="185.94" ry="45.01"/>
<text text-anchor="start" x="2513.17" y="-534.48" font-family="Times,serif" font-weight="bold" font-size="14.00">diamond_out</text>
<text text-anchor="start" x="2517.17" y="-520.48" font-family="Times,serif" font-size="14.00">Type: string?</text>
<text text-anchor="start" x="2440.67" y="-506.48" font-family="Times,serif" font-size="14.00">Default: predict_proteins_align.tsv</text>
<text text-anchor="start" x="2475.17" y="-492.48" font-family="Times,serif" font-style="italic" font-size="14.00">proteins align to Uniprot</text>
</g>
<!-- diamond_out&#45;&gt;step_5d_annotation_diamond -->
<g id="edge27" class="edge">
<title>diamond_out&#45;&gt;step_5d_annotation_diamond</title>
<path fill="none" stroke="black" d="M2447.28,-481.25C2399.81,-467.27 2345.79,-451.36 2301.32,-438.27"/>
<polygon fill="black" stroke="black" points="2302.27,-434.9 2291.69,-435.43 2300.3,-441.61 2302.27,-434.9"/>
</g>
<!-- ideel_out -->
<g id="node11" class="node">
<title>ideel_out</title>
<ellipse fill="lightblue" stroke="lightblue" cx="2616.17" cy="-304.17" rx="176.14" ry="45.01"/>
<text text-anchor="start" x="2580.17" y="-321.97" font-family="Times,serif" font-weight="bold" font-size="14.00">ideel_out</text>
<text text-anchor="start" x="2569.17" y="-307.97" font-family="Times,serif" font-size="14.00">Type: string?</text>
<text text-anchor="start" x="2528.17" y="-293.97" font-family="Times,serif" font-size="14.00">Default: ideel_report.pdf</text>
<text text-anchor="start" x="2499.67" y="-279.97" font-family="Times,serif" font-style="italic" font-size="14.00">protein completeness evaluation</text>
</g>
<!-- step_5e_annotation_ideel -->
<g id="node30" class="node">
<title>step_5e_annotation_ideel</title>
<polygon fill="grey" stroke="grey" points="2555.17,-222.91 2271.17,-222.91 2271.17,-172.91 2555.17,-172.91 2555.17,-222.91"/>
<text text-anchor="start" x="2314.17" y="-208.71" font-family="Times,serif" font-weight="bold" font-size="14.00">step_5e_annotation_ideel</text>
<text text-anchor="start" x="2309.17" y="-194.71" font-family="Times,serif" font-size="14.00">Run: ../tools/ideel/ideelPy.cwl</text>
<text text-anchor="start" x="2279.17" y="-180.71" font-family="Times,serif" font-style="italic" font-size="14.00">ideel report for protein completeness</text>
</g>
<!-- ideel_out&#45;&gt;step_5e_annotation_ideel -->
<g id="edge32" class="edge">
<title>ideel_out&#45;&gt;step_5e_annotation_ideel</title>
<path fill="none" stroke="black" d="M2538.85,-263.45C2515.61,-251.52 2490.58,-238.67 2469.02,-227.59"/>
<polygon fill="black" stroke="black" points="2470.5,-224.42 2460.01,-222.97 2467.3,-230.65 2470.5,-224.42"/>
</g>
<!-- step_2_filterShortReads__outReads -->
<g id="node12" class="node">
<title>step_2_filterShortReads__outReads</title>
<ellipse fill="red" stroke="red" cx="544.17" cy="-1559.43" rx="183.7" ry="25.41"/>
<text text-anchor="start" x="489.67" y="-1563.23" font-family="Times,serif" font-weight="bold" font-size="14.00">filtered_reads</text>
<text text-anchor="start" x="422.17" y="-1549.23" font-family="Times,serif" font-size="14.00">step_2_filterShortReads/outReads</text>
</g>
<!-- step_3_assembly -->
<g id="node24" class="node">
<title>step_3_assembly</title>
<polygon fill="grey" stroke="grey" points="307.17,-1497.97 77.17,-1497.97 77.17,-1447.97 307.17,-1447.97 307.17,-1497.97"/>
<text text-anchor="start" x="127.17" y="-1483.77" font-family="Times,serif" font-weight="bold" font-size="14.00">step_3_assembly</text>
<text text-anchor="start" x="104.17" y="-1469.77" font-family="Times,serif" font-size="14.00">Run: ../tools/flye/flye.cwl</text>
<text text-anchor="start" x="85.17" y="-1455.77" font-family="Times,serif" font-style="italic" font-size="14.00">assembly long&#45;reads with flye</text>
</g>
<!-- step_2_filterShortReads__outReads&#45;&gt;step_3_assembly -->
<g id="edge7" class="edge">
<title>step_2_filterShortReads__outReads&#45;&gt;step_3_assembly</title>
<path fill="none" stroke="black" d="M455.35,-1537.11C408.85,-1525.96 351.5,-1512.2 302.22,-1500.37"/>
<polygon fill="black" stroke="black" points="303.01,-1496.97 292.47,-1498.04 301.38,-1503.77 303.01,-1496.97"/>
</g>
<!-- step_2_filterShortReads__outReads&#45;&gt;step_4a_polishing_minimap2 -->
<g id="edge10" class="edge">
<title>step_2_filterShortReads__outReads&#45;&gt;step_4a_polishing_minimap2</title>
<path fill="none" stroke="black" d="M500.67,-1534.5C460.66,-1509.75 403.9,-1466.99 379.17,-1411.97 362.68,-1375.28 362.62,-1358.13 379.17,-1321.46 384.13,-1310.47 392.2,-1300.69 401.09,-1292.38"/>
<polygon fill="black" stroke="black" points="403.45,-1294.95 408.69,-1285.74 398.85,-1289.68 403.45,-1294.95"/>
</g>
<!-- step_2_filterShortReads__outReads&#45;&gt;step_4b_polishing_racon -->
<g id="edge13" class="edge">
<title>step_2_filterShortReads__outReads&#45;&gt;step_4b_polishing_racon</title>
<path fill="none" stroke="black" d="M592.51,-1534.8C647.03,-1504.36 728.17,-1445.93 728.17,-1367.71 728.17,-1367.71 728.17,-1367.71 728.17,-1259.46 728.17,-1197.43 728.17,-1125.12 728.17,-1083.43"/>
<polygon fill="black" stroke="black" points="731.67,-1083.26 728.17,-1073.26 724.67,-1083.26 731.67,-1083.26"/>
</g>
<!-- step_2_filterShortReads__outReads&#45;&gt;step_4c_polishing_medaka -->
<g id="edge18" class="edge">
<title>step_2_filterShortReads__outReads&#45;&gt;step_4c_polishing_medaka</title>
<path fill="none" stroke="black" d="M647.38,-1538.32C827.95,-1501.7 1182.17,-1422.84 1182.17,-1367.71 1182.17,-1367.71 1182.17,-1367.71 1182.17,-1046.95 1182.17,-984.92 1182.17,-912.61 1182.17,-870.92"/>
<polygon fill="black" stroke="black" points="1185.67,-870.75 1182.17,-860.75 1178.67,-870.75 1185.67,-870.75"/>
</g>
<!-- step_2_filterShortReads__qchtml -->
<g id="node13" class="node">
<title>step_2_filterShortReads__qchtml</title>
<ellipse fill="red" stroke="red" cx="917.17" cy="-1559.43" rx="171.24" ry="25.41"/>
<text text-anchor="start" x="828.17" y="-1563.23" font-family="Times,serif" font-weight="bold" font-size="14.00">filtered_reads_qc_html</text>
<text text-anchor="start" x="804.17" y="-1549.23" font-family="Times,serif" font-size="14.00">step_2_filterShortReads/qchtml</text>
</g>
<!-- step_2_filterShortReads__qcjson -->
<g id="node14" class="node">
<title>step_2_filterShortReads__qcjson</title>
<ellipse fill="red" stroke="red" cx="1275.17" cy="-1559.43" rx="169" ry="25.41"/>
<text text-anchor="start" x="1188.17" y="-1563.23" font-family="Times,serif" font-weight="bold" font-size="14.00">filtered_reads_qc_json</text>
<text text-anchor="start" x="1163.67" y="-1549.23" font-family="Times,serif" font-size="14.00">step_2_filterShortReads/qcjson</text>
</g>
<!-- step_3_assembly__contigs_fasta -->
<g id="node15" class="node">
<title>step_3_assembly__contigs_fasta</title>
<ellipse fill="red" stroke="red" cx="166.17" cy="-1366.71" rx="166.34" ry="25.41"/>
<text text-anchor="start" x="115.67" y="-1370.51" font-family="Times,serif" font-weight="bold" font-size="14.00">contigsFasta</text>
<text text-anchor="start" x="56.67" y="-1356.51" font-family="Times,serif" font-size="14.00">step_3_assembly/contigs_fasta</text>
</g>
<!-- step_3_assembly__contigs_fasta&#45;&gt;step_4a_polishing_minimap2 -->
<g id="edge9" class="edge">
<title>step_3_assembly__contigs_fasta&#45;&gt;step_4a_polishing_minimap2</title>
<path fill="none" stroke="black" d="M227.49,-1342.96C270.16,-1327.13 327.29,-1305.94 372.59,-1289.13"/>
<polygon fill="black" stroke="black" points="373.91,-1292.37 382.07,-1285.61 371.48,-1285.81 373.91,-1292.37"/>
</g>
<!-- step_3_assembly__contigs_fasta&#45;&gt;step_4b_polishing_racon -->
<g id="edge15" class="edge">
<title>step_3_assembly__contigs_fasta&#45;&gt;step_4b_polishing_racon</title>
<path fill="none" stroke="black" d="M167.81,-1341.24C172.77,-1288.75 192.44,-1165.54 269.17,-1108.95 310.6,-1078.39 425.52,-1063.39 530,-1056.03"/>
<polygon fill="black" stroke="black" points="530.34,-1059.52 540.08,-1055.35 529.86,-1052.54 530.34,-1059.52"/>
</g>
<!-- step_4a_polishing_minimap2__outPAF -->
<g id="node16" class="node">
<title>step_4a_polishing_minimap2__outPAF</title>
<ellipse fill="red" stroke="red" cx="475.17" cy="-1154.21" rx="196.65" ry="25.41"/>
<text text-anchor="start" x="435.67" y="-1158.01" font-family="Times,serif" font-weight="bold" font-size="14.00">polishPAF</text>
<text text-anchor="start" x="344.17" y="-1144.01" font-family="Times,serif" font-size="14.00">step_4a_polishing_minimap2/outPAF</text>
</g>
<!-- step_4a_polishing_minimap2__outPAF&#45;&gt;step_4b_polishing_racon -->
<g id="edge14" class="edge">
<title>step_4a_polishing_minimap2__outPAF&#45;&gt;step_4b_polishing_racon</title>
<path fill="none" stroke="black" d="M531.95,-1129.81C569.98,-1114.14 620.25,-1093.42 660.38,-1076.88"/>
<polygon fill="black" stroke="black" points="661.91,-1080.04 669.83,-1072.99 659.25,-1073.57 661.91,-1080.04"/>
</g>
<!-- step_4b_polishing_racon__outAssembly -->
<g id="node17" class="node">
<title>step_4b_polishing_racon__outAssembly</title>
<ellipse fill="red" stroke="red" cx="840.17" cy="-941.7" rx="202.88" ry="25.41"/>
<text text-anchor="start" x="791.67" y="-945.5" font-family="Times,serif" font-weight="bold" font-size="14.00">polishRacon</text>
<text text-anchor="start" x="704.67" y="-931.5" font-family="Times,serif" font-size="14.00">step_4b_polishing_racon/outAssembly</text>
</g>
<!-- step_4b_polishing_racon__outAssembly&#45;&gt;step_4c_polishing_medaka -->
<g id="edge19" class="edge">
<title>step_4b_polishing_racon__outAssembly&#45;&gt;step_4c_polishing_medaka</title>
<path fill="none" stroke="black" d="M914.8,-917.95C967.36,-901.92 1037.97,-880.4 1093.42,-863.5"/>
<polygon fill="black" stroke="black" points="1094.69,-866.77 1103.24,-860.5 1092.65,-860.07 1094.69,-866.77"/>
</g>
<!-- step_4c_polishing_medaka__outConsensus -->
<g id="node18" class="node">
<title>step_4c_polishing_medaka__outConsensus</title>
<ellipse fill="red" stroke="red" cx="1182.17" cy="-729.19" rx="218.49" ry="25.41"/>
<text text-anchor="start" x="1126.67" y="-732.99" font-family="Times,serif" font-weight="bold" font-size="14.00">polishMedaka</text>
<text text-anchor="start" x="1035.67" y="-718.99" font-family="Times,serif" font-size="14.00">step_4c_polishing_medaka/outConsensus</text>
</g>
<!-- step_4c_polishing_medaka__outConsensus&#45;&gt;step_5a_annotation_prodigal -->
<g id="edge22" class="edge">
<title>step_4c_polishing_medaka__outConsensus&#45;&gt;step_5a_annotation_prodigal</title>
<path fill="none" stroke="black" d="M1277.62,-706.27C1348.68,-689.95 1446.01,-667.6 1521.33,-650.3"/>
<polygon fill="black" stroke="black" points="1522.38,-653.65 1531.34,-648 1520.81,-646.83 1522.38,-653.65"/>
</g>
<!-- step_5a_annotation_prodigal__outProt -->
<g id="node19" class="node">
<title>step_5a_annotation_prodigal__outProt</title>
<ellipse fill="red" stroke="red" cx="1429.17" cy="-516.68" rx="197.07" ry="25.41"/>
<text text-anchor="start" x="1367.17" y="-520.48" font-family="Times,serif" font-weight="bold" font-size="14.00">predictProteins</text>
<text text-anchor="start" x="1297.67" y="-506.48" font-family="Times,serif" font-size="14.00">step_5a_annotation_prodigal/outProt</text>
</g>
<!-- step_5a_annotation_prodigal__outProt&#45;&gt;step_5d_annotation_diamond -->
<g id="edge28" class="edge">
<title>step_5a_annotation_prodigal__outProt&#45;&gt;step_5d_annotation_diamond</title>
<path fill="none" stroke="black" d="M1519.79,-494.01C1555.57,-486.03 1597.15,-477.47 1635.17,-471.42 1775.55,-449.09 1936.58,-433.1 2052.46,-423.27"/>
<polygon fill="black" stroke="black" points="2052.8,-426.76 2062.47,-422.43 2052.22,-419.78 2052.8,-426.76"/>
</g>
<!-- step_5a_annotation_prodigal__outGBK -->
<g id="node20" class="node">
<title>step_5a_annotation_prodigal__outGBK</title>
<ellipse fill="red" stroke="red" cx="1843.17" cy="-516.68" rx="198.89" ry="25.41"/>
<text text-anchor="start" x="1763.17" y="-520.48" font-family="Times,serif" font-weight="bold" font-size="14.00">predictProteinsGBK</text>
<text text-anchor="start" x="1710.67" y="-506.48" font-family="Times,serif" font-size="14.00">step_5a_annotation_prodigal/outGBK</text>
</g>
<!-- step_5d_annotation_diamond__alignment -->
<g id="node21" class="node">
<title>step_5d_annotation_diamond__alignment</title>
<ellipse fill="red" stroke="red" cx="2210.17" cy="-304.17" rx="212.26" ry="25.41"/>
<text text-anchor="start" x="2155.17" y="-307.97" font-family="Times,serif" font-weight="bold" font-size="14.00">diamondAlign</text>
<text text-anchor="start" x="2068.17" y="-293.97" font-family="Times,serif" font-size="14.00">step_5d_annotation_diamond/alignment</text>
</g>
<!-- step_5d_annotation_diamond__alignment&#45;&gt;step_5e_annotation_ideel -->
<g id="edge31" class="edge">
<title>step_5d_annotation_diamond__alignment&#45;&gt;step_5e_annotation_ideel</title>
<path fill="none" stroke="black" d="M2256.74,-279.25C2286.57,-263.93 2325.46,-243.96 2357,-227.76"/>
<polygon fill="black" stroke="black" points="2358.82,-230.76 2366.11,-223.08 2355.62,-224.53 2358.82,-230.76"/>
</g>
<!-- step_5e_annotation_ideel__outFig -->
<g id="node22" class="node">
<title>step_5e_annotation_ideel__outFig</title>
<ellipse fill="red" stroke="red" cx="2413.17" cy="-111.46" rx="174.81" ry="25.41"/>
<text text-anchor="start" x="2377.67" y="-115.26" font-family="Times,serif" font-weight="bold" font-size="14.00">ideelPDF</text>
<text text-anchor="start" x="2297.67" y="-101.26" font-family="Times,serif" font-size="14.00">step_5e_annotation_ideel/outFig</text>
</g>
<!-- step_2_filterShortReads&#45;&gt;step_2_filterShortReads__outReads -->
<g id="edge4" class="edge">
<title>step_2_filterShortReads&#45;&gt;step_2_filterShortReads__outReads</title>
<path fill="none" stroke="black" d="M810.78,-1620.79C759.41,-1609.16 698.02,-1595.26 647.1,-1583.73"/>
<polygon fill="black" stroke="black" points="647.59,-1580.25 637.06,-1581.46 646.04,-1587.08 647.59,-1580.25"/>
</g>
<!-- step_2_filterShortReads&#45;&gt;step_2_filterShortReads__qchtml -->
<g id="edge6" class="edge">
<title>step_2_filterShortReads&#45;&gt;step_2_filterShortReads__qchtml</title>
<path fill="none" stroke="black" d="M917.17,-1620.45C917.17,-1612.56 917.17,-1603.64 917.17,-1595.15"/>
<polygon fill="black" stroke="black" points="920.67,-1595.09 917.17,-1585.09 913.67,-1595.09 920.67,-1595.09"/>
</g>
<!-- step_2_filterShortReads&#45;&gt;step_2_filterShortReads__qcjson -->
<g id="edge5" class="edge">
<title>step_2_filterShortReads&#45;&gt;step_2_filterShortReads__qcjson</title>
<path fill="none" stroke="black" d="M1019.28,-1620.79C1068.87,-1609.09 1128.19,-1595.1 1177.22,-1583.53"/>
<polygon fill="black" stroke="black" points="1178.27,-1586.88 1187.2,-1581.18 1176.67,-1580.07 1178.27,-1586.88"/>
</g>
<!-- step_3_assembly&#45;&gt;step_3_assembly__contigs_fasta -->
<g id="edge8" class="edge">
<title>step_3_assembly&#45;&gt;step_3_assembly__contigs_fasta</title>
<path fill="none" stroke="black" d="M186.14,-1447.79C182.78,-1434.3 178.53,-1417.27 174.82,-1402.38"/>
<polygon fill="black" stroke="black" points="178.16,-1401.34 172.35,-1392.49 171.37,-1403.04 178.16,-1401.34"/>
</g>
<!-- step_4a_polishing_minimap2&#45;&gt;step_4a_polishing_minimap2__outPAF -->
<g id="edge12" class="edge">
<title>step_4a_polishing_minimap2&#45;&gt;step_4a_polishing_minimap2__outPAF</title>
<path fill="none" stroke="black" d="M453.66,-1235.28C457.29,-1221.79 461.86,-1204.76 465.86,-1189.87"/>
<polygon fill="black" stroke="black" points="469.3,-1190.54 468.52,-1179.98 462.54,-1188.73 469.3,-1190.54"/>
</g>
<!-- step_4b_polishing_racon&#45;&gt;step_4b_polishing_racon__outAssembly -->
<g id="edge17" class="edge">
<title>step_4b_polishing_racon&#45;&gt;step_4b_polishing_racon__outAssembly</title>
<path fill="none" stroke="black" d="M754.15,-1022.77C769.73,-1008.27 789.71,-989.67 806.49,-974.05"/>
<polygon fill="black" stroke="black" points="809.01,-976.48 813.95,-967.11 804.24,-971.36 809.01,-976.48"/>
</g>
<!-- step_4c_polishing_medaka&#45;&gt;step_4c_polishing_medaka__outConsensus -->
<g id="edge21" class="edge">
<title>step_4c_polishing_medaka&#45;&gt;step_4c_polishing_medaka__outConsensus</title>
<path fill="none" stroke="black" d="M1182.17,-810.26C1182.17,-796.9 1182.17,-780.06 1182.17,-765.28"/>
<polygon fill="black" stroke="black" points="1185.67,-764.96 1182.17,-754.96 1178.67,-764.96 1185.67,-764.96"/>
</g>
<!-- step_5a_annotation_prodigal&#45;&gt;step_5a_annotation_prodigal__outProt -->
<g id="edge25" class="edge">
<title>step_5a_annotation_prodigal&#45;&gt;step_5a_annotation_prodigal__outProt</title>
<path fill="none" stroke="black" d="M1588.42,-597.88C1557.77,-582.45 1517.84,-562.33 1485.62,-546.11"/>
<polygon fill="black" stroke="black" points="1486.83,-542.8 1476.32,-541.42 1483.68,-549.05 1486.83,-542.8"/>
</g>
<!-- step_5a_annotation_prodigal&#45;&gt;step_5a_annotation_prodigal__outGBK -->
<g id="edge26" class="edge">
<title>step_5a_annotation_prodigal&#45;&gt;step_5a_annotation_prodigal__outGBK</title>
<path fill="none" stroke="black" d="M1683.92,-597.88C1714.57,-582.45 1754.51,-562.33 1786.72,-546.11"/>
<polygon fill="black" stroke="black" points="1788.66,-549.05 1796.02,-541.42 1785.51,-542.8 1788.66,-549.05"/>
</g>
<!-- step_5d_annotation_diamond&#45;&gt;step_5d_annotation_diamond__alignment -->
<g id="edge30" class="edge">
<title>step_5d_annotation_diamond&#45;&gt;step_5d_annotation_diamond__alignment</title>
<path fill="none" stroke="black" d="M2210.17,-385.24C2210.17,-371.88 2210.17,-355.05 2210.17,-340.26"/>
<polygon fill="black" stroke="black" points="2213.67,-339.94 2210.17,-329.94 2206.67,-339.94 2213.67,-339.94"/>
</g>
<!-- step_5e_annotation_ideel&#45;&gt;step_5e_annotation_ideel__outFig -->
<g id="edge33" class="edge">
<title>step_5e_annotation_ideel&#45;&gt;step_5e_annotation_ideel__outFig</title>
<path fill="none" stroke="black" d="M2413.17,-172.48C2413.17,-164.59 2413.17,-155.67 2413.17,-147.18"/>
<polygon fill="black" stroke="black" points="2416.67,-147.12 2413.17,-137.12 2409.67,-147.12 2416.67,-147.12"/>
</g>
<!-- INPUT -->
<g id="node31" class="node">
<title>INPUT</title>
<ellipse fill="lightblue" stroke="lightblue" cx="2413.17" cy="-25" rx="41.69" ry="18"/>
<text text-anchor="middle" x="2413.17" y="-21.3" font-family="Times,serif" font-size="14.00">INPUT</text>
</g>
<!-- OUTPUT -->
<g id="node32" class="node">
<title>OUTPUT</title>
<ellipse fill="red" stroke="red" cx="2524.17" cy="-25" rx="51.19" ry="18"/>
<text text-anchor="middle" x="2524.17" y="-21.3" font-family="Times,serif" font-size="14.00">OUTPUT</text>
</g>
<!-- STEP -->
<g id="node33" class="node">
<title>STEP</title>
<polygon fill="grey" stroke="grey" points="2649.17,-43 2593.17,-43 2593.17,-7 2649.17,-7 2649.17,-43"/>
<text text-anchor="middle" x="2621.17" y="-21.3" font-family="Times,serif" font-size="14.00">STEP</text>
</g>
<!-- legend_text -->
<g id="node34" class="node">
<title>legend_text</title>
<polygon fill="none" stroke="black" points="3063.17,-50 2667.17,-50 2667.17,0 3063.17,0 3063.17,-50"/>
<text text-anchor="start" x="2749.17" y="-35.8" font-family="Times,serif" font-weight="bold" font-size="14.00">Long read assembly workflow</text>
<text text-anchor="start" x="2799.67" y="-21.8" font-family="Times,serif" font-size="14.00">CWL version: v1.1</text>
<text text-anchor="start" x="2675.17" y="-7.8" font-family="Times,serif" font-style="italic" font-size="14.00">Implementation of nanopore reads assembly pipeline</text>
</g>
</g>
</svg>
