<?xml version="1.0" encoding="UTF-8" standalone="no"?>
<!DOCTYPE svg PUBLIC "-//W3C//DTD SVG 1.1//EN"
 "http://www.w3.org/Graphics/SVG/1.1/DTD/svg11.dtd">
<!-- Generated by graphviz version 2.43.0 (0)
 -->
<!-- Title: G Pages: 1 -->
<svg width="2747pt" height="2215pt"
 viewBox="0.00 0.00 2746.65 2215.50" xmlns="http://www.w3.org/2000/svg" xmlns:xlink="http://www.w3.org/1999/xlink">
<g id="graph0" class="graph" transform="scale(1 1) rotate(0) translate(4 2211.5)">
<title>G</title>
<polygon fill="white" stroke="transparent" points="-4,4 -4,-2211.5 2742.65,-2211.5 2742.65,4 -4,4"/>
<!-- raw_reads -->
<g id="node1" class="node">
<title>raw_reads</title>
<ellipse fill="lightblue" stroke="lightblue" cx="635.07" cy="-2162.24" rx="149.81" ry="45.01"/>
<text text-anchor="start" x="595.57" y="-2180.04" font-family="Times,serif" font-weight="bold" font-size="14.00">raw_reads</text>
<text text-anchor="start" x="599.57" y="-2166.04" font-family="Times,serif" font-size="14.00">Type: File</text>
<text text-anchor="start" x="537.07" y="-2152.04" font-family="Times,serif" font-size="14.00">Format: edam:format_1930</text>
<text text-anchor="start" x="552.07" y="-2138.04" font-family="Times,serif" font-style="italic" font-size="14.00">long reads to assemble</text>
</g>
<!-- step_2_filterShortReads -->
<g id="node23" class="node">
<title>step_2_filterShortReads</title>
<polygon fill="grey" stroke="grey" points="1058.07,-2080.99 806.07,-2080.99 806.07,-2030.99 1058.07,-2030.99 1058.07,-2080.99"/>
<text text-anchor="start" x="837.57" y="-2066.79" font-family="Times,serif" font-weight="bold" font-size="14.00">step_2_filterShortReads</text>
<text text-anchor="start" x="814.07" y="-2052.79" font-family="Times,serif" font-size="14.00">Run: ../tools/fastp/fastp_filter.cwl</text>
<text text-anchor="start" x="859.57" y="-2038.79" font-family="Times,serif" font-style="italic" font-size="14.00">filtering short reads</text>
</g>
<!-- raw_reads&#45;&gt;step_2_filterShortReads -->
<g id="edge1" class="edge">
<title>raw_reads&#45;&gt;step_2_filterShortReads</title>
<path fill="none" stroke="black" d="M731.5,-2127.4C770.99,-2113.53 816.11,-2097.69 853.54,-2084.55"/>
<polygon fill="black" stroke="black" points="855.1,-2087.72 863.38,-2081.1 852.79,-2081.11 855.1,-2087.72"/>
</g>
<!-- min_read_size -->
<g id="node2" class="node">
<title>min_read_size</title>
<ellipse fill="lightblue" stroke="lightblue" cx="932.07" cy="-2162.24" rx="128.89" ry="45.01"/>
<text text-anchor="start" x="876.57" y="-2180.04" font-family="Times,serif" font-weight="bold" font-size="14.00">min_read_size</text>
<text text-anchor="start" x="896.57" y="-2166.04" font-family="Times,serif" font-size="14.00">Type: int?</text>
<text text-anchor="start" x="887.57" y="-2152.04" font-family="Times,serif" font-size="14.00">Default: 200</text>
<text text-anchor="start" x="849.07" y="-2138.04" font-family="Times,serif" font-style="italic" font-size="14.00">raw reads filter by size</text>
</g>
<!-- min_read_size&#45;&gt;step_2_filterShortReads -->
<g id="edge2" class="edge">
<title>min_read_size&#45;&gt;step_2_filterShortReads</title>
<path fill="none" stroke="black" d="M932.07,-2116.73C932.07,-2108.26 932.07,-2099.52 932.07,-2091.43"/>
<polygon fill="black" stroke="black" points="935.57,-2091.24 932.07,-2081.24 928.57,-2091.24 935.57,-2091.24"/>
</g>
<!-- reads_filter_bysize_name -->
<g id="node3" class="node">
<title>reads_filter_bysize_name</title>
<ellipse fill="lightblue" stroke="lightblue" cx="1334.07" cy="-2162.24" rx="255.03" ry="45.01"/>
<text text-anchor="start" x="1236.07" y="-2180.04" font-family="Times,serif" font-weight="bold" font-size="14.00">reads_filter_bysize_name</text>
<text text-anchor="start" x="1287.07" y="-2166.04" font-family="Times,serif" font-size="14.00">Type: string?</text>
<text text-anchor="start" x="1253.57" y="-2152.04" font-family="Times,serif" font-size="14.00">Default: reads_filtered</text>
<text text-anchor="start" x="1161.57" y="-2138.04" font-family="Times,serif" font-style="italic" font-size="14.00">prefix file for reads with length lt min_read_size</text>
</g>
<!-- reads_filter_bysize_name&#45;&gt;step_2_filterShortReads -->
<g id="edge3" class="edge">
<title>reads_filter_bysize_name&#45;&gt;step_2_filterShortReads</title>
<path fill="none" stroke="black" d="M1192.62,-2124.56C1140.47,-2111.04 1082.44,-2095.99 1034.41,-2083.53"/>
<polygon fill="black" stroke="black" points="1035.18,-2080.12 1024.63,-2080.99 1033.43,-2086.89 1035.18,-2080.12"/>
</g>
<!-- host_index -->
<g id="node4" class="node">
<title>host_index</title>
<ellipse fill="lightblue" stroke="lightblue" cx="1400.07" cy="-1949.73" rx="281.36" ry="45.01"/>
<text text-anchor="start" x="1357.57" y="-1967.53" font-family="Times,serif" font-weight="bold" font-size="14.00">host_index</text>
<text text-anchor="start" x="1364.57" y="-1953.53" font-family="Times,serif" font-size="14.00">Type: File</text>
<text text-anchor="start" x="1305.07" y="-1939.53" font-family="Times,serif" font-size="14.00">Default: ../db/genome.mmi</text>
<text text-anchor="start" x="1209.07" y="-1925.53" font-family="Times,serif" font-style="italic" font-size="14.00">index name for genome host, used for decontaminate</text>
</g>
<!-- step_3c_cleaning_alignHost -->
<g id="node25" class="node">
<title>step_3c_cleaning_alignHost</title>
<polygon fill="grey" stroke="grey" points="2326.57,-1868.48 1907.57,-1868.48 1907.57,-1818.48 2326.57,-1818.48 2326.57,-1868.48"/>
<text text-anchor="start" x="2008.57" y="-1854.28" font-family="Times,serif" font-weight="bold" font-size="14.00">step_3c_cleaning_alignHost</text>
<text text-anchor="start" x="1915.57" y="-1840.28" font-family="Times,serif" font-size="14.00">Run: ../tools/minimap2_filter/minimap2_filterHostFq.cwl</text>
<text text-anchor="start" x="1981.57" y="-1826.28" font-family="Times,serif" font-style="italic" font-size="14.00">align reads to the genome fasta index</text>
</g>
<!-- host_index&#45;&gt;step_3c_cleaning_alignHost -->
<g id="edge10" class="edge">
<title>host_index&#45;&gt;step_3c_cleaning_alignHost</title>
<path fill="none" stroke="black" d="M1600.1,-1917.89C1630.24,-1913.34 1660.97,-1908.74 1690.07,-1904.48 1769.55,-1892.83 1857.42,-1880.41 1932.69,-1869.9"/>
<polygon fill="black" stroke="black" points="1933.33,-1873.35 1942.75,-1868.5 1932.36,-1866.41 1933.33,-1873.35"/>
</g>
<!-- step_6a_cleaning2_alignHost -->
<g id="node35" class="node">
<title>step_6a_cleaning2_alignHost</title>
<polygon fill="grey" stroke="grey" points="1854.07,-860.44 1438.07,-860.44 1438.07,-810.44 1854.07,-810.44 1854.07,-860.44"/>
<text text-anchor="start" x="1532.07" y="-846.24" font-family="Times,serif" font-weight="bold" font-size="14.00">step_6a_cleaning2_alignHost</text>
<text text-anchor="start" x="1446.07" y="-832.24" font-family="Times,serif" font-size="14.00">Run: ../tools/minimap2_filter/minimap2_filterHostFa.cwl</text>
<text text-anchor="start" x="1471.07" y="-818.24" font-family="Times,serif" font-style="italic" font-size="14.00">post&#45;assembly cleaning, mapping with minimap2</text>
</g>
<!-- host_index&#45;&gt;step_6a_cleaning2_alignHost -->
<g id="edge29" class="edge">
<title>host_index&#45;&gt;step_6a_cleaning2_alignHost</title>
<path fill="none" stroke="black" d="M1420.03,-1904.54C1434.69,-1868.03 1452.07,-1814.42 1452.07,-1765.48 1452.07,-1765.48 1452.07,-1765.48 1452.07,-1046.95 1452.07,-975.58 1458.98,-948.25 1508.07,-896.44 1520.43,-883.4 1536.1,-873.04 1552.42,-864.85"/>
<polygon fill="black" stroke="black" points="1554,-867.97 1561.54,-860.53 1551,-861.65 1554,-867.97"/>
</g>
<!-- align_preset -->
<g id="node5" class="node">
<title>align_preset</title>
<ellipse fill="lightblue" stroke="lightblue" cx="1820.07" cy="-1949.73" rx="120.83" ry="45.01"/>
<text text-anchor="start" x="1771.57" y="-1967.53" font-family="Times,serif" font-weight="bold" font-size="14.00">align_preset</text>
<text text-anchor="start" x="1773.07" y="-1953.53" font-family="Times,serif" font-size="14.00">Type: string?</text>
<text text-anchor="start" x="1759.57" y="-1939.53" font-family="Times,serif" font-size="14.00">Default: map&#45;ont</text>
<text text-anchor="start" x="1742.57" y="-1925.53" font-family="Times,serif" font-style="italic" font-size="14.00">minimap2 align mode</text>
</g>
<!-- align_preset&#45;&gt;step_3c_cleaning_alignHost -->
<g id="edge7" class="edge">
<title>align_preset&#45;&gt;step_3c_cleaning_alignHost</title>
<path fill="none" stroke="black" d="M1907.17,-1918.16C1948.85,-1903.53 1998.35,-1886.15 2038.82,-1871.95"/>
<polygon fill="black" stroke="black" points="2040.09,-1875.21 2048.37,-1868.6 2037.77,-1868.61 2040.09,-1875.21"/>
</g>
<!-- align_preset&#45;&gt;step_6a_cleaning2_alignHost -->
<g id="edge27" class="edge">
<title>align_preset&#45;&gt;step_6a_cleaning2_alignHost</title>
<path fill="none" stroke="black" d="M1736.6,-1916.84C1646.6,-1879.8 1516.07,-1817.17 1516.07,-1765.48 1516.07,-1765.48 1516.07,-1765.48 1516.07,-1046.95 1516.07,-979.53 1496.98,-952.07 1535.07,-896.44 1543.65,-883.91 1555.72,-873.77 1568.76,-865.64"/>
<polygon fill="black" stroke="black" points="1570.57,-868.64 1577.45,-860.58 1567.04,-862.59 1570.57,-868.64"/>
</g>
<!-- host_unmaped_reads -->
<g id="node6" class="node">
<title>host_unmaped_reads</title>
<ellipse fill="lightblue" stroke="lightblue" cx="2155.07" cy="-1949.73" rx="196.65" ry="45.01"/>
<text text-anchor="start" x="2072.07" y="-1967.53" font-family="Times,serif" font-weight="bold" font-size="14.00">host_unmaped_reads</text>
<text text-anchor="start" x="2108.07" y="-1953.53" font-family="Times,serif" font-size="14.00">Type: string?</text>
<text text-anchor="start" x="2041.57" y="-1939.53" font-family="Times,serif" font-size="14.00">Default: host_unmaped.fastq.gz</text>
<text text-anchor="start" x="2024.07" y="-1925.53" font-family="Times,serif" font-style="italic" font-size="14.00">unmapped reads to the host genome</text>
</g>
<!-- host_unmaped_reads&#45;&gt;step_3c_cleaning_alignHost -->
<g id="edge8" class="edge">
<title>host_unmaped_reads&#45;&gt;step_3c_cleaning_alignHost</title>
<path fill="none" stroke="black" d="M2138.95,-1904.52C2135.73,-1895.67 2132.39,-1886.5 2129.31,-1878.07"/>
<polygon fill="black" stroke="black" points="2132.57,-1876.78 2125.86,-1868.59 2125.99,-1879.18 2132.57,-1876.78"/>
</g>
<!-- polish_paf -->
<g id="node7" class="node">
<title>polish_paf</title>
<ellipse fill="lightblue" stroke="lightblue" cx="1700.07" cy="-1579.22" rx="156.04" ry="45.01"/>
<text text-anchor="start" x="1660.07" y="-1597.02" font-family="Times,serif" font-weight="bold" font-size="14.00">polish_paf</text>
<text text-anchor="start" x="1653.07" y="-1583.02" font-family="Times,serif" font-size="14.00">Type: string?</text>
<text text-anchor="start" x="1597.57" y="-1569.02" font-family="Times,serif" font-size="14.00">Default: assembly_polish.paf</text>
<text text-anchor="start" x="1628.57" y="-1555.02" font-family="Times,serif" font-style="italic" font-size="14.00">polish align PAF file</text>
</g>
<!-- step_5a_polishing_minimap2 -->
<g id="node29" class="node">
<title>step_5a_polishing_minimap2</title>
<polygon fill="grey" stroke="grey" points="2135.07,-1497.97 1681.07,-1497.97 1681.07,-1447.97 2135.07,-1447.97 2135.07,-1497.97"/>
<text text-anchor="start" x="1795.07" y="-1483.77" font-family="Times,serif" font-weight="bold" font-size="14.00">step_5a_polishing_minimap2</text>
<text text-anchor="start" x="1739.57" y="-1469.77" font-family="Times,serif" font-size="14.00">Run: ../tools/minimap2/minimap2_to_polish.cwl</text>
<text text-anchor="start" x="1689.07" y="-1455.77" font-family="Times,serif" font-style="italic" font-size="14.00">polishing step 1, map reads back to assembly with minimap2</text>
</g>
<!-- polish_paf&#45;&gt;step_5a_polishing_minimap2 -->
<g id="edge16" class="edge">
<title>polish_paf&#45;&gt;step_5a_polishing_minimap2</title>
<path fill="none" stroke="black" d="M1776.93,-1539.7C1801.44,-1527.41 1828.12,-1514.04 1850.97,-1502.59"/>
<polygon fill="black" stroke="black" points="1852.81,-1505.58 1860.18,-1497.97 1849.68,-1499.32 1852.81,-1505.58"/>
</g>
<!-- polish_assembly_racon -->
<g id="node8" class="node">
<title>polish_assembly_racon</title>
<ellipse fill="lightblue" stroke="lightblue" cx="2497.07" cy="-1366.71" rx="198.89" ry="45.01"/>
<text text-anchor="start" x="2407.57" y="-1384.51" font-family="Times,serif" font-weight="bold" font-size="14.00">polish_assembly_racon</text>
<text text-anchor="start" x="2450.07" y="-1370.51" font-family="Times,serif" font-size="14.00">Type: string?</text>
<text text-anchor="start" x="2364.57" y="-1356.51" font-family="Times,serif" font-size="14.00">Default: assembly_polish_racon.fasta</text>
<text text-anchor="start" x="2399.57" y="-1342.51" font-family="Times,serif" font-style="italic" font-size="14.00">polish assembly with racon</text>
</g>
<!-- step_5b_polishing_racon -->
<g id="node31" class="node">
<title>step_5b_polishing_racon</title>
<polygon fill="grey" stroke="grey" points="2455.07,-1285.46 2079.07,-1285.46 2079.07,-1235.46 2455.07,-1235.46 2455.07,-1285.46"/>
<text text-anchor="start" x="2171.07" y="-1271.26" font-family="Times,serif" font-weight="bold" font-size="14.00">step_5b_polishing_racon</text>
<text text-anchor="start" x="2165.57" y="-1257.26" font-family="Times,serif" font-size="14.00">Run: ../tools/racon/racon.cwl</text>
<text text-anchor="start" x="2087.07" y="-1243.26" font-family="Times,serif" font-style="italic" font-size="14.00">polishing step 2, using racon to improve assembly</text>
</g>
<!-- polish_assembly_racon&#45;&gt;step_5b_polishing_racon -->
<g id="edge21" class="edge">
<title>polish_assembly_racon&#45;&gt;step_5b_polishing_racon</title>
<path fill="none" stroke="black" d="M2409.46,-1326C2382.78,-1313.91 2354.01,-1300.87 2329.37,-1289.7"/>
<polygon fill="black" stroke="black" points="2330.69,-1286.46 2320.14,-1285.51 2327.8,-1292.83 2330.69,-1286.46"/>
</g>
<!-- medaka_model -->
<g id="node9" class="node">
<title>medaka_model</title>
<ellipse fill="lightblue" stroke="lightblue" cx="1852.07" cy="-1154.21" rx="193.08" ry="45.01"/>
<text text-anchor="start" x="1793.57" y="-1172.01" font-family="Times,serif" font-weight="bold" font-size="14.00">medaka_model</text>
<text text-anchor="start" x="1805.07" y="-1158.01" font-family="Times,serif" font-size="14.00">Type: string?</text>
<text text-anchor="start" x="1749.07" y="-1144.01" font-family="Times,serif" font-size="14.00">Default: r941_min_fast_g330</text>
<text text-anchor="start" x="1723.57" y="-1130.01" font-family="Times,serif" font-style="italic" font-size="14.00">medaka model to improve assembly</text>
</g>
<!-- step_5c_polishing_medaka -->
<g id="node33" class="node">
<title>step_5c_polishing_medaka</title>
<polygon fill="grey" stroke="grey" points="2460.07,-1072.95 2062.07,-1072.95 2062.07,-1022.95 2460.07,-1022.95 2460.07,-1072.95"/>
<text text-anchor="start" x="2157.07" y="-1058.75" font-family="Times,serif" font-weight="bold" font-size="14.00">step_5c_polishing_medaka</text>
<text text-anchor="start" x="2143.57" y="-1044.75" font-family="Times,serif" font-size="14.00">Run: ../tools/medaka/medaka.cwl</text>
<text text-anchor="start" x="2070.07" y="-1030.75" font-family="Times,serif" font-style="italic" font-size="14.00">polishing step 3, using medaka to create a consensus</text>
</g>
<!-- medaka_model&#45;&gt;step_5c_polishing_medaka -->
<g id="edge25" class="edge">
<title>medaka_model&#45;&gt;step_5c_polishing_medaka</title>
<path fill="none" stroke="black" d="M1980.64,-1120.43C2037.41,-1105.96 2103.29,-1089.17 2156.92,-1075.5"/>
<polygon fill="black" stroke="black" points="2157.96,-1078.84 2166.79,-1072.98 2156.23,-1072.06 2157.96,-1078.84"/>
</g>
<!-- host_unmaped_contigs -->
<g id="node10" class="node">
<title>host_unmaped_contigs</title>
<ellipse fill="lightblue" stroke="lightblue" cx="1777.07" cy="-941.7" rx="232.78" ry="45.01"/>
<text text-anchor="start" x="1687.07" y="-959.5" font-family="Times,serif" font-weight="bold" font-size="14.00">host_unmaped_contigs</text>
<text text-anchor="start" x="1730.07" y="-945.5" font-family="Times,serif" font-size="14.00">Type: string?</text>
<text text-anchor="start" x="1648.07" y="-931.5" font-family="Times,serif" font-size="14.00">Default: assembly_unmapHost.fasta</text>
<text text-anchor="start" x="1620.57" y="-917.5" font-family="Times,serif" font-style="italic" font-size="14.00">clean contigs unmap to host genome (fasta)</text>
</g>
<!-- host_unmaped_contigs&#45;&gt;step_6a_cleaning2_alignHost -->
<g id="edge28" class="edge">
<title>host_unmaped_contigs&#45;&gt;step_6a_cleaning2_alignHost</title>
<path fill="none" stroke="black" d="M1722.65,-897.39C1709.86,-887.21 1696.48,-876.56 1684.56,-867.07"/>
<polygon fill="black" stroke="black" points="1686.56,-864.19 1676.56,-860.7 1682.2,-869.67 1686.56,-864.19"/>
</g>
<!-- predict_proteins -->
<g id="node11" class="node">
<title>predict_proteins</title>
<ellipse fill="lightblue" stroke="lightblue" cx="762.07" cy="-729.19" rx="217.58" ry="45.01"/>
<text text-anchor="start" x="697.07" y="-746.99" font-family="Times,serif" font-weight="bold" font-size="14.00">predict_proteins</text>
<text text-anchor="start" x="715.07" y="-732.99" font-family="Times,serif" font-size="14.00">Type: string?</text>
<text text-anchor="start" x="644.07" y="-718.99" font-family="Times,serif" font-size="14.00">Default: predicted_proteins.fasta</text>
<text text-anchor="start" x="616.07" y="-704.99" font-family="Times,serif" font-style="italic" font-size="14.00">predicted proteins from assembly (fasta)</text>
</g>
<!-- step_7a_annotation_prodigal -->
<g id="node36" class="node">
<title>step_7a_annotation_prodigal</title>
<polygon fill="grey" stroke="grey" points="1369.57,-647.93 1048.57,-647.93 1048.57,-597.93 1369.57,-597.93 1369.57,-647.93"/>
<text text-anchor="start" x="1096.57" y="-633.73" font-family="Times,serif" font-weight="bold" font-size="14.00">step_7a_annotation_prodigal</text>
<text text-anchor="start" x="1088.07" y="-619.73" font-family="Times,serif" font-size="14.00">Run: ../tools/prodigal/prodigal.cwl</text>
<text text-anchor="start" x="1056.57" y="-605.73" font-family="Times,serif" font-style="italic" font-size="14.00">predict proteins in assembly with Prodigal</text>
</g>
<!-- predict_proteins&#45;&gt;step_7a_annotation_prodigal -->
<g id="edge33" class="edge">
<title>predict_proteins&#45;&gt;step_7a_annotation_prodigal</title>
<path fill="none" stroke="black" d="M904.73,-694.91C966.56,-680.49 1037.94,-663.85 1096.02,-650.3"/>
<polygon fill="black" stroke="black" points="1097.01,-653.66 1105.96,-647.98 1095.42,-646.84 1097.01,-653.66"/>
</g>
<!-- predict_proteins_gbk -->
<g id="node12" class="node">
<title>predict_proteins_gbk</title>
<ellipse fill="lightblue" stroke="lightblue" cx="1209.07" cy="-729.19" rx="211.35" ry="45.01"/>
<text text-anchor="start" x="1126.07" y="-746.99" font-family="Times,serif" font-weight="bold" font-size="14.00">predict_proteins_gbk</text>
<text text-anchor="start" x="1162.07" y="-732.99" font-family="Times,serif" font-size="14.00">Type: string?</text>
<text text-anchor="start" x="1095.57" y="-718.99" font-family="Times,serif" font-size="14.00">Default: predicted_proteins.gbk</text>
<text text-anchor="start" x="1067.57" y="-704.99" font-family="Times,serif" font-style="italic" font-size="14.00">predicted proteins from assembly (gbk)</text>
</g>
<!-- predict_proteins_gbk&#45;&gt;step_7a_annotation_prodigal -->
<g id="edge34" class="edge">
<title>predict_proteins_gbk&#45;&gt;step_7a_annotation_prodigal</title>
<path fill="none" stroke="black" d="M1209.07,-683.67C1209.07,-675.2 1209.07,-666.46 1209.07,-658.37"/>
<polygon fill="black" stroke="black" points="1212.57,-658.18 1209.07,-648.18 1205.57,-658.18 1212.57,-658.18"/>
</g>
<!-- uniprot_index -->
<g id="node13" class="node">
<title>uniprot_index</title>
<ellipse fill="lightblue" stroke="lightblue" cx="209.07" cy="-516.68" rx="149.81" ry="45.01"/>
<text text-anchor="start" x="154.57" y="-534.48" font-family="Times,serif" font-weight="bold" font-size="14.00">uniprot_index</text>
<text text-anchor="start" x="173.57" y="-520.48" font-family="Times,serif" font-size="14.00">Type: File</text>
<text text-anchor="start" x="111.07" y="-506.48" font-family="Times,serif" font-size="14.00">Default: ../db/uniprot.dmnd</text>
<text text-anchor="start" x="147.07" y="-492.48" font-family="Times,serif" font-style="italic" font-size="14.00">uniprot index file</text>
</g>
<!-- step_7d_annotation_diamond -->
<g id="node37" class="node">
<title>step_7d_annotation_diamond</title>
<polygon fill="grey" stroke="grey" points="729.57,-435.42 434.57,-435.42 434.57,-385.42 729.57,-385.42 729.57,-435.42"/>
<text text-anchor="start" x="467.57" y="-421.22" font-family="Times,serif" font-weight="bold" font-size="14.00">step_7d_annotation_diamond</text>
<text text-anchor="start" x="458.57" y="-407.22" font-family="Times,serif" font-size="14.00">Run: ../tools/diamond/diamond.cwl</text>
<text text-anchor="start" x="442.57" y="-393.22" font-family="Times,serif" font-style="italic" font-size="14.00">search Uniprot database with diamond</text>
</g>
<!-- uniprot_index&#45;&gt;step_7d_annotation_diamond -->
<g id="edge39" class="edge">
<title>uniprot_index&#45;&gt;step_7d_annotation_diamond</title>
<path fill="none" stroke="black" d="M317.46,-485.38C370.8,-470.47 434.56,-452.65 486.12,-438.24"/>
<polygon fill="black" stroke="black" points="487.24,-441.56 495.93,-435.5 485.36,-434.82 487.24,-441.56"/>
</g>
<!-- diamond_out -->
<g id="node14" class="node">
<title>diamond_out</title>
<ellipse fill="lightblue" stroke="lightblue" cx="582.07" cy="-516.68" rx="205.12" ry="45.01"/>
<text text-anchor="start" x="531.07" y="-534.48" font-family="Times,serif" font-weight="bold" font-size="14.00">diamond_out</text>
<text text-anchor="start" x="535.07" y="-520.48" font-family="Times,serif" font-size="14.00">Type: string?</text>
<text text-anchor="start" x="445.07" y="-506.48" font-family="Times,serif" font-size="14.00">Default: predict_proteins_diamond.tsv</text>
<text text-anchor="start" x="493.07" y="-492.48" font-family="Times,serif" font-style="italic" font-size="14.00">proteins align to Uniprot</text>
</g>
<!-- diamond_out&#45;&gt;step_7d_annotation_diamond -->
<g id="edge37" class="edge">
<title>diamond_out&#45;&gt;step_7d_annotation_diamond</title>
<path fill="none" stroke="black" d="M582.07,-471.16C582.07,-462.69 582.07,-453.95 582.07,-445.86"/>
<polygon fill="black" stroke="black" points="585.57,-445.67 582.07,-435.67 578.57,-445.67 585.57,-445.67"/>
</g>
<!-- ideel_out -->
<g id="node15" class="node">
<title>ideel_out</title>
<ellipse fill="lightblue" stroke="lightblue" cx="176.07" cy="-304.17" rx="176.14" ry="45.01"/>
<text text-anchor="start" x="140.07" y="-321.97" font-family="Times,serif" font-weight="bold" font-size="14.00">ideel_out</text>
<text text-anchor="start" x="129.07" y="-307.97" font-family="Times,serif" font-size="14.00">Type: string?</text>
<text text-anchor="start" x="88.07" y="-293.97" font-family="Times,serif" font-size="14.00">Default: ideel_report.pdf</text>
<text text-anchor="start" x="59.57" y="-279.97" font-family="Times,serif" font-style="italic" font-size="14.00">protein completeness evaluation</text>
</g>
<!-- step_7e_annotation_ideel -->
<g id="node38" class="node">
<title>step_7e_annotation_ideel</title>
<polygon fill="grey" stroke="grey" points="521.07,-222.91 237.07,-222.91 237.07,-172.91 521.07,-172.91 521.07,-222.91"/>
<text text-anchor="start" x="280.07" y="-208.71" font-family="Times,serif" font-weight="bold" font-size="14.00">step_7e_annotation_ideel</text>
<text text-anchor="start" x="275.07" y="-194.71" font-family="Times,serif" font-size="14.00">Run: ../tools/ideel/ideelPy.cwl</text>
<text text-anchor="start" x="245.07" y="-180.71" font-family="Times,serif" font-style="italic" font-size="14.00">ideel report for protein completeness</text>
</g>
<!-- ideel_out&#45;&gt;step_7e_annotation_ideel -->
<g id="edge42" class="edge">
<title>ideel_out&#45;&gt;step_7e_annotation_ideel</title>
<path fill="none" stroke="black" d="M253.39,-263.45C276.63,-251.52 301.66,-238.67 323.22,-227.59"/>
<polygon fill="black" stroke="black" points="324.93,-230.65 332.23,-222.97 321.74,-224.42 324.93,-230.65"/>
</g>
<!-- step_2_filterShortReads__qchtml -->
<g id="node16" class="node">
<title>step_2_filterShortReads__qchtml</title>
<ellipse fill="red" stroke="red" cx="574.07" cy="-1949.73" rx="171.24" ry="25.41"/>
<text text-anchor="start" x="486.57" y="-1953.53" font-family="Times,serif" font-weight="bold" font-size="14.00">filtered_reads_qcHtml</text>
<text text-anchor="start" x="461.07" y="-1939.53" font-family="Times,serif" font-size="14.00">step_2_filterShortReads/qchtml</text>
</g>
<!-- step_2_filterShortReads__qcjson -->
<g id="node17" class="node">
<title>step_2_filterShortReads__qcjson</title>
<ellipse fill="red" stroke="red" cx="932.07" cy="-1949.73" rx="169" ry="25.41"/>
<text text-anchor="start" x="847.57" y="-1953.53" font-family="Times,serif" font-weight="bold" font-size="14.00">filtered_reads_qcJson</text>
<text text-anchor="start" x="820.57" y="-1939.53" font-family="Times,serif" font-size="14.00">step_2_filterShortReads/qcjson</text>
</g>
<!-- step_6a_cleaning2_alignHost__outReads -->
<g id="node18" class="node">
<title>step_6a_cleaning2_alignHost__outReads</title>
<ellipse fill="red" stroke="red" cx="1646.07" cy="-729.19" rx="207.78" ry="25.41"/>
<text text-anchor="start" x="1559.57" y="-732.99" font-family="Times,serif" font-weight="bold" font-size="14.00">cleanAssemblyUnmap</text>
<text text-anchor="start" x="1507.07" y="-718.99" font-family="Times,serif" font-size="14.00">step_6a_cleaning2_alignHost/outReads</text>
</g>
<!-- step_6a_cleaning2_alignHost__outReads&#45;&gt;step_7a_annotation_prodigal -->
<g id="edge32" class="edge">
<title>step_6a_cleaning2_alignHost__outReads&#45;&gt;step_7a_annotation_prodigal</title>
<path fill="none" stroke="black" d="M1554.46,-706.33C1486.1,-690.02 1392.37,-667.66 1319.8,-650.35"/>
<polygon fill="black" stroke="black" points="1320.25,-646.86 1309.71,-647.94 1318.62,-653.67 1320.25,-646.86"/>
</g>
<!-- step_7a_annotation_prodigal__outProt -->
<g id="node19" class="node">
<title>step_7a_annotation_prodigal__outProt</title>
<ellipse fill="red" stroke="red" cx="1002.07" cy="-516.68" rx="197.07" ry="25.41"/>
<text text-anchor="start" x="940.07" y="-520.48" font-family="Times,serif" font-weight="bold" font-size="14.00">predictProteins</text>
<text text-anchor="start" x="870.57" y="-506.48" font-family="Times,serif" font-size="14.00">step_7a_annotation_prodigal/outProt</text>
</g>
<!-- step_7a_annotation_prodigal__outProt&#45;&gt;step_7d_annotation_diamond -->
<g id="edge38" class="edge">
<title>step_7a_annotation_prodigal__outProt&#45;&gt;step_7d_annotation_diamond</title>
<path fill="none" stroke="black" d="M914.02,-493.82C848.45,-477.54 758.61,-455.24 688.92,-437.95"/>
<polygon fill="black" stroke="black" points="689.34,-434.44 678.79,-435.43 687.65,-441.24 689.34,-434.44"/>
</g>
<!-- step_7a_annotation_prodigal__outGBK -->
<g id="node20" class="node">
<title>step_7a_annotation_prodigal__outGBK</title>
<ellipse fill="red" stroke="red" cx="1416.07" cy="-516.68" rx="198.89" ry="25.41"/>
<text text-anchor="start" x="1336.07" y="-520.48" font-family="Times,serif" font-weight="bold" font-size="14.00">predictProteinsGBK</text>
<text text-anchor="start" x="1283.57" y="-506.48" font-family="Times,serif" font-size="14.00">step_7a_annotation_prodigal/outGBK</text>
</g>
<!-- step_7d_annotation_diamond__alignment -->
<g id="node21" class="node">
<title>step_7d_annotation_diamond__alignment</title>
<ellipse fill="red" stroke="red" cx="582.07" cy="-304.17" rx="212.26" ry="25.41"/>
<text text-anchor="start" x="527.07" y="-307.97" font-family="Times,serif" font-weight="bold" font-size="14.00">diamondAlign</text>
<text text-anchor="start" x="440.07" y="-293.97" font-family="Times,serif" font-size="14.00">step_7d_annotation_diamond/alignment</text>
</g>
<!-- step_7d_annotation_diamond__alignment&#45;&gt;step_7e_annotation_ideel -->
<g id="edge41" class="edge">
<title>step_7d_annotation_diamond__alignment&#45;&gt;step_7e_annotation_ideel</title>
<path fill="none" stroke="black" d="M535.5,-279.25C505.67,-263.93 466.78,-243.96 435.24,-227.76"/>
<polygon fill="black" stroke="black" points="436.62,-224.53 426.13,-223.08 433.42,-230.76 436.62,-224.53"/>
</g>
<!-- step_7e_annotation_ideel__outFig -->
<g id="node22" class="node">
<title>step_7e_annotation_ideel__outFig</title>
<ellipse fill="red" stroke="red" cx="379.07" cy="-111.46" rx="174.81" ry="25.41"/>
<text text-anchor="start" x="343.57" y="-115.26" font-family="Times,serif" font-weight="bold" font-size="14.00">ideelPDF</text>
<text text-anchor="start" x="263.57" y="-101.26" font-family="Times,serif" font-size="14.00">step_7e_annotation_ideel/outFig</text>
</g>
<!-- step_2_filterShortReads&#45;&gt;step_2_filterShortReads__qchtml -->
<g id="edge6" class="edge">
<title>step_2_filterShortReads&#45;&gt;step_2_filterShortReads__qchtml</title>
<path fill="none" stroke="black" d="M849.49,-2030.94C792.39,-2014.31 716.64,-1992.25 659.03,-1975.48"/>
<polygon fill="black" stroke="black" points="659.8,-1972.06 649.22,-1972.62 657.85,-1978.78 659.8,-1972.06"/>
</g>
<!-- step_2_filterShortReads&#45;&gt;step_2_filterShortReads__qcjson -->
<g id="edge5" class="edge">
<title>step_2_filterShortReads&#45;&gt;step_2_filterShortReads__qcjson</title>
<path fill="none" stroke="black" d="M932.07,-2030.81C932.07,-2017.45 932.07,-2000.61 932.07,-1985.83"/>
<polygon fill="black" stroke="black" points="935.57,-1985.51 932.07,-1975.51 928.57,-1985.51 935.57,-1985.51"/>
</g>
<!-- step_2_filterShortReads__outReads -->
<g id="node24" class="node">
<title>step_2_filterShortReads__outReads</title>
<ellipse fill="none" stroke="grey" cx="2554.07" cy="-1949.73" rx="184.67" ry="18"/>
<text text-anchor="start" x="2420.07" y="-1947.03" font-family="Times,serif" font-weight="bold" font-size="14.00">step_2_filterShortReads/outReads</text>
</g>
<!-- step_2_filterShortReads&#45;&gt;step_2_filterShortReads__outReads -->
<g id="edge4" class="edge">
<title>step_2_filterShortReads&#45;&gt;step_2_filterShortReads__outReads</title>
<path fill="none" stroke="black" d="M1058.34,-2052.66C1359.09,-2046.63 2111.28,-2028.58 2361.07,-1994.99 2403.11,-1989.34 2449.47,-1978.85 2486.21,-1969.5"/>
<polygon fill="black" stroke="black" points="2487.49,-1972.79 2496.3,-1966.9 2485.75,-1966.01 2487.49,-1972.79"/>
</g>
<!-- step_2_filterShortReads__outReads&#45;&gt;step_3c_cleaning_alignHost -->
<g id="edge9" class="edge">
<title>step_2_filterShortReads__outReads&#45;&gt;step_3c_cleaning_alignHost</title>
<path fill="none" stroke="black" d="M2487.7,-1932.9C2418.75,-1916.45 2309.68,-1890.43 2227.68,-1870.87"/>
<polygon fill="black" stroke="black" points="2228.36,-1867.43 2217.82,-1868.52 2226.74,-1874.24 2228.36,-1867.43"/>
</g>
<!-- step_3c_cleaning_alignHost__outReads -->
<g id="node26" class="node">
<title>step_3c_cleaning_alignHost__outReads</title>
<ellipse fill="none" stroke="grey" cx="2117.07" cy="-1764.48" rx="203.36" ry="18"/>
<text text-anchor="start" x="1968.57" y="-1761.78" font-family="Times,serif" font-weight="bold" font-size="14.00">step_3c_cleaning_alignHost/outReads</text>
</g>
<!-- step_3c_cleaning_alignHost&#45;&gt;step_3c_cleaning_alignHost__outReads -->
<g id="edge11" class="edge">
<title>step_3c_cleaning_alignHost&#45;&gt;step_3c_cleaning_alignHost__outReads</title>
<path fill="none" stroke="black" d="M2117.07,-1818.12C2117.07,-1810.15 2117.07,-1801.25 2117.07,-1793.06"/>
<polygon fill="black" stroke="black" points="2120.57,-1792.86 2117.07,-1782.86 2113.57,-1792.86 2120.57,-1792.86"/>
</g>
<!-- step_4_assembly -->
<g id="node27" class="node">
<title>step_4_assembly</title>
<polygon fill="grey" stroke="grey" points="2219.07,-1710.48 1989.07,-1710.48 1989.07,-1660.48 2219.07,-1660.48 2219.07,-1710.48"/>
<text text-anchor="start" x="2039.07" y="-1696.28" font-family="Times,serif" font-weight="bold" font-size="14.00">step_4_assembly</text>
<text text-anchor="start" x="2016.07" y="-1682.28" font-family="Times,serif" font-size="14.00">Run: ../tools/flye/flye.cwl</text>
<text text-anchor="start" x="1997.07" y="-1668.28" font-family="Times,serif" font-style="italic" font-size="14.00">assembly long&#45;reads with flye</text>
</g>
<!-- step_3c_cleaning_alignHost__outReads&#45;&gt;step_4_assembly -->
<g id="edge12" class="edge">
<title>step_3c_cleaning_alignHost__outReads&#45;&gt;step_4_assembly</title>
<path fill="none" stroke="black" d="M2114.18,-1746.39C2112.89,-1738.73 2111.32,-1729.41 2109.8,-1720.42"/>
<polygon fill="black" stroke="black" points="2113.25,-1719.81 2108.13,-1710.53 2106.34,-1720.97 2113.25,-1719.81"/>
</g>
<!-- step_3c_cleaning_alignHost__outReads&#45;&gt;step_5a_polishing_minimap2 -->
<g id="edge15" class="edge">
<title>step_3c_cleaning_alignHost__outReads&#45;&gt;step_5a_polishing_minimap2</title>
<path fill="none" stroke="black" d="M2057.41,-1747.22C2032.2,-1738.68 2003.36,-1726.58 1980.07,-1710.48 1937.87,-1681.31 1921.39,-1672.4 1903.07,-1624.48 1888.6,-1586.63 1893.48,-1539.45 1899.59,-1508.1"/>
<polygon fill="black" stroke="black" points="1903.06,-1508.62 1901.68,-1498.12 1896.21,-1507.19 1903.06,-1508.62"/>
</g>
<!-- step_3c_cleaning_alignHost__outReads&#45;&gt;step_5b_polishing_racon -->
<g id="edge18" class="edge">
<title>step_3c_cleaning_alignHost__outReads&#45;&gt;step_5b_polishing_racon</title>
<path fill="none" stroke="black" d="M2173.65,-1747.16C2193.28,-1738.98 2213.9,-1727.16 2228.07,-1710.48 2280.87,-1648.32 2273.54,-1389.64 2269,-1295.72"/>
<polygon fill="black" stroke="black" points="2272.49,-1295.43 2268.49,-1285.62 2265.49,-1295.78 2272.49,-1295.43"/>
</g>
<!-- step_3c_cleaning_alignHost__outReads&#45;&gt;step_5c_polishing_medaka -->
<g id="edge23" class="edge">
<title>step_3c_cleaning_alignHost__outReads&#45;&gt;step_5c_polishing_medaka</title>
<path fill="none" stroke="black" d="M2247.29,-1750.63C2425.64,-1729.37 2724.07,-1679.02 2724.07,-1580.22 2724.07,-1580.22 2724.07,-1580.22 2724.07,-1259.46 2724.07,-1139.1 2592.81,-1087.23 2470.06,-1065.04"/>
<polygon fill="black" stroke="black" points="2470.56,-1061.57 2460.11,-1063.3 2469.36,-1068.47 2470.56,-1061.57"/>
</g>
<!-- step_4_assembly__contigs_fasta -->
<g id="node28" class="node">
<title>step_4_assembly__contigs_fasta</title>
<ellipse fill="none" stroke="grey" cx="2078.07" cy="-1579.22" rx="165.97" ry="18"/>
<text text-anchor="start" x="1958.57" y="-1576.52" font-family="Times,serif" font-weight="bold" font-size="14.00">step_4_assembly/contigs_fasta</text>
</g>
<!-- step_4_assembly&#45;&gt;step_4_assembly__contigs_fasta -->
<g id="edge13" class="edge">
<title>step_4_assembly&#45;&gt;step_4_assembly__contigs_fasta</title>
<path fill="none" stroke="black" d="M2098.04,-1660.3C2094.1,-1644.51 2088.95,-1623.86 2084.87,-1607.49"/>
<polygon fill="black" stroke="black" points="2088.18,-1606.3 2082.36,-1597.44 2081.39,-1607.99 2088.18,-1606.3"/>
</g>
<!-- step_4_assembly__contigs_fasta&#45;&gt;step_5a_polishing_minimap2 -->
<g id="edge14" class="edge">
<title>step_4_assembly__contigs_fasta&#45;&gt;step_5a_polishing_minimap2</title>
<path fill="none" stroke="black" d="M2050.38,-1561.24C2024.95,-1545.65 1986.7,-1522.19 1956.26,-1503.52"/>
<polygon fill="black" stroke="black" points="1957.85,-1500.39 1947.49,-1498.15 1954.19,-1506.36 1957.85,-1500.39"/>
</g>
<!-- step_4_assembly__contigs_fasta&#45;&gt;step_5b_polishing_racon -->
<g id="edge20" class="edge">
<title>step_4_assembly__contigs_fasta&#45;&gt;step_5b_polishing_racon</title>
<path fill="none" stroke="black" d="M2093.86,-1561.19C2107.98,-1545.48 2128.75,-1521.15 2144.07,-1497.97 2189.45,-1429.3 2231.14,-1341.89 2252.37,-1294.93"/>
<polygon fill="black" stroke="black" points="2255.68,-1296.1 2256.58,-1285.54 2249.29,-1293.23 2255.68,-1296.1"/>
</g>
<!-- step_5a_polishing_minimap2__outPAF -->
<g id="node30" class="node">
<title>step_5a_polishing_minimap2__outPAF</title>
<ellipse fill="none" stroke="grey" cx="1946.07" cy="-1366.71" rx="197.66" ry="18"/>
<text text-anchor="start" x="1802.07" y="-1364.01" font-family="Times,serif" font-weight="bold" font-size="14.00">step_5a_polishing_minimap2/outPAF</text>
</g>
<!-- step_5a_polishing_minimap2&#45;&gt;step_5a_polishing_minimap2__outPAF -->
<g id="edge17" class="edge">
<title>step_5a_polishing_minimap2&#45;&gt;step_5a_polishing_minimap2__outPAF</title>
<path fill="none" stroke="black" d="M1916.88,-1447.79C1922.69,-1431.85 1930.31,-1410.96 1936.3,-1394.51"/>
<polygon fill="black" stroke="black" points="1939.66,-1395.52 1939.79,-1384.93 1933.08,-1393.13 1939.66,-1395.52"/>
</g>
<!-- step_5a_polishing_minimap2__outPAF&#45;&gt;step_5b_polishing_racon -->
<g id="edge19" class="edge">
<title>step_5a_polishing_minimap2__outPAF&#45;&gt;step_5b_polishing_racon</title>
<path fill="none" stroke="black" d="M1996.58,-1349.31C2046.59,-1333.07 2124.04,-1307.91 2183.27,-1288.68"/>
<polygon fill="black" stroke="black" points="2184.56,-1291.94 2192.99,-1285.52 2182.4,-1285.28 2184.56,-1291.94"/>
</g>
<!-- step_5b_polishing_racon__outAssembly -->
<g id="node32" class="node">
<title>step_5b_polishing_racon__outAssembly</title>
<ellipse fill="none" stroke="grey" cx="2267.07" cy="-1154.21" rx="204.16" ry="18"/>
<text text-anchor="start" x="2118.07" y="-1151.51" font-family="Times,serif" font-weight="bold" font-size="14.00">step_5b_polishing_racon/outAssembly</text>
</g>
<!-- step_5b_polishing_racon&#45;&gt;step_5b_polishing_racon__outAssembly -->
<g id="edge22" class="edge">
<title>step_5b_polishing_racon&#45;&gt;step_5b_polishing_racon__outAssembly</title>
<path fill="none" stroke="black" d="M2267.07,-1235.28C2267.07,-1219.49 2267.07,-1198.84 2267.07,-1182.47"/>
<polygon fill="black" stroke="black" points="2270.57,-1182.42 2267.07,-1172.42 2263.57,-1182.42 2270.57,-1182.42"/>
</g>
<!-- step_5b_polishing_racon__outAssembly&#45;&gt;step_5c_polishing_medaka -->
<g id="edge24" class="edge">
<title>step_5b_polishing_racon__outAssembly&#45;&gt;step_5c_polishing_medaka</title>
<path fill="none" stroke="black" d="M2266.08,-1135.99C2265.26,-1121.81 2264.08,-1101.26 2263.07,-1083.69"/>
<polygon fill="black" stroke="black" points="2266.53,-1082.99 2262.47,-1073.21 2259.55,-1083.4 2266.53,-1082.99"/>
</g>
<!-- step_5c_polishing_medaka__outConsensus -->
<g id="node34" class="node">
<title>step_5c_polishing_medaka__outConsensus</title>
<ellipse fill="none" stroke="grey" cx="2260.07" cy="-941.7" rx="221.76" ry="18"/>
<text text-anchor="start" x="2097.57" y="-939" font-family="Times,serif" font-weight="bold" font-size="14.00">step_5c_polishing_medaka/outConsensus</text>
</g>
<!-- step_5c_polishing_medaka&#45;&gt;step_5c_polishing_medaka__outConsensus -->
<g id="edge26" class="edge">
<title>step_5c_polishing_medaka&#45;&gt;step_5c_polishing_medaka__outConsensus</title>
<path fill="none" stroke="black" d="M2260.84,-1022.77C2260.69,-1006.98 2260.49,-986.33 2260.33,-969.96"/>
<polygon fill="black" stroke="black" points="2263.83,-969.88 2260.23,-959.91 2256.83,-969.94 2263.83,-969.88"/>
</g>
<!-- step_5c_polishing_medaka__outConsensus&#45;&gt;step_6a_cleaning2_alignHost -->
<g id="edge30" class="edge">
<title>step_5c_polishing_medaka__outConsensus&#45;&gt;step_6a_cleaning2_alignHost</title>
<path fill="none" stroke="black" d="M2177.06,-924.98C2130.63,-916.31 2071.68,-905.5 2019.07,-896.44 1950.82,-884.69 1875.43,-872.42 1810.38,-862.07"/>
<polygon fill="black" stroke="black" points="1810.88,-858.6 1800.45,-860.49 1809.78,-865.52 1810.88,-858.6"/>
</g>
<!-- step_6a_cleaning2_alignHost&#45;&gt;step_6a_cleaning2_alignHost__outReads -->
<g id="edge31" class="edge">
<title>step_6a_cleaning2_alignHost&#45;&gt;step_6a_cleaning2_alignHost__outReads</title>
<path fill="none" stroke="black" d="M1646.07,-810.26C1646.07,-796.9 1646.07,-780.06 1646.07,-765.28"/>
<polygon fill="black" stroke="black" points="1649.57,-764.96 1646.07,-754.96 1642.57,-764.96 1649.57,-764.96"/>
</g>
<!-- step_7a_annotation_prodigal&#45;&gt;step_7a_annotation_prodigal__outProt -->
<g id="edge35" class="edge">
<title>step_7a_annotation_prodigal&#45;&gt;step_7a_annotation_prodigal__outProt</title>
<path fill="none" stroke="black" d="M1161.32,-597.88C1130.67,-582.45 1090.73,-562.33 1058.52,-546.11"/>
<polygon fill="black" stroke="black" points="1059.73,-542.8 1049.22,-541.42 1056.58,-549.05 1059.73,-542.8"/>
</g>
<!-- step_7a_annotation_prodigal&#45;&gt;step_7a_annotation_prodigal__outGBK -->
<g id="edge36" class="edge">
<title>step_7a_annotation_prodigal&#45;&gt;step_7a_annotation_prodigal__outGBK</title>
<path fill="none" stroke="black" d="M1256.82,-597.88C1287.46,-582.45 1327.4,-562.33 1359.62,-546.11"/>
<polygon fill="black" stroke="black" points="1361.56,-549.05 1368.92,-541.42 1358.41,-542.8 1361.56,-549.05"/>
</g>
<!-- step_7d_annotation_diamond&#45;&gt;step_7d_annotation_diamond__alignment -->
<g id="edge40" class="edge">
<title>step_7d_annotation_diamond&#45;&gt;step_7d_annotation_diamond__alignment</title>
<path fill="none" stroke="black" d="M582.07,-385.24C582.07,-371.88 582.07,-355.05 582.07,-340.26"/>
<polygon fill="black" stroke="black" points="585.57,-339.94 582.07,-329.94 578.57,-339.94 585.57,-339.94"/>
</g>
<!-- step_7e_annotation_ideel&#45;&gt;step_7e_annotation_ideel__outFig -->
<g id="edge43" class="edge">
<title>step_7e_annotation_ideel&#45;&gt;step_7e_annotation_ideel__outFig</title>
<path fill="none" stroke="black" d="M379.07,-172.48C379.07,-164.59 379.07,-155.67 379.07,-147.18"/>
<polygon fill="black" stroke="black" points="382.57,-147.12 379.07,-137.12 375.57,-147.12 382.57,-147.12"/>
</g>
<!-- INPUT -->
<g id="node39" class="node">
<title>INPUT</title>
<ellipse fill="lightblue" stroke="lightblue" cx="379.07" cy="-25" rx="41.69" ry="18"/>
<text text-anchor="middle" x="379.07" y="-21.3" font-family="Times,serif" font-size="14.00">INPUT</text>
</g>
<!-- OUTPUT -->
<g id="node40" class="node">
<title>OUTPUT</title>
<ellipse fill="red" stroke="red" cx="490.07" cy="-25" rx="51.19" ry="18"/>
<text text-anchor="middle" x="490.07" y="-21.3" font-family="Times,serif" font-size="14.00">OUTPUT</text>
</g>
<!-- STEP -->
<g id="node41" class="node">
<title>STEP</title>
<polygon fill="grey" stroke="grey" points="615.07,-43 559.07,-43 559.07,-7 615.07,-7 615.07,-43"/>
<text text-anchor="middle" x="587.07" y="-21.3" font-family="Times,serif" font-size="14.00">STEP</text>
</g>
<!-- legend_text -->
<g id="node42" class="node">
<title>legend_text</title>
<polygon fill="none" stroke="black" points="1029.07,-50 633.07,-50 633.07,0 1029.07,0 1029.07,-50"/>
<text text-anchor="start" x="715.07" y="-35.8" font-family="Times,serif" font-weight="bold" font-size="14.00">Long read assembly workflow</text>
<text text-anchor="start" x="765.57" y="-21.8" font-family="Times,serif" font-size="14.00">CWL version: v1.1</text>
<text text-anchor="start" x="641.07" y="-7.8" font-family="Times,serif" font-style="italic" font-size="14.00">Implementation of nanopore reads assembly pipeline</text>
</g>
</g>
</svg>
