<?xml version="1.0" encoding="UTF-8" standalone="no"?>
<!DOCTYPE svg PUBLIC "-//W3C//DTD SVG 1.1//EN"
 "http://www.w3.org/Graphics/SVG/1.1/DTD/svg11.dtd">
<!-- Generated by graphviz version 2.43.0 (0)
 -->
<!-- Title: G Pages: 1 -->
<svg width="3990pt" height="2018pt"
 viewBox="0.00 0.00 3990.23 2017.90" xmlns="http://www.w3.org/2000/svg" xmlns:xlink="http://www.w3.org/1999/xlink">
<g id="graph0" class="graph" transform="scale(1 1) rotate(0) translate(4 2013.9)">
<title>G</title>
<polygon fill="white" stroke="transparent" points="-4,4 -4,-2013.9 3986.23,-2013.9 3986.23,4 -4,4"/>
<!-- raw_reads -->
<g id="node1" class="node">
<title>raw_reads</title>
<ellipse fill="lightblue" stroke="lightblue" cx="620.23" cy="-1964.65" rx="149.81" ry="45.01"/>
<text text-anchor="start" x="580.73" y="-1982.45" font-family="Times,serif" font-weight="bold" font-size="14.00">raw_reads</text>
<text text-anchor="start" x="584.73" y="-1968.45" font-family="Times,serif" font-size="14.00">Type: File</text>
<text text-anchor="start" x="522.23" y="-1954.45" font-family="Times,serif" font-size="14.00">Format: edam:format_1930</text>
<text text-anchor="start" x="537.23" y="-1940.45" font-family="Times,serif" font-style="italic" font-size="14.00">long reads to assemble</text>
</g>
<!-- step_1_pre_assembly_stats -->
<g id="node24" class="node">
<title>step_1_pre_assembly_stats</title>
<polygon fill="grey" stroke="grey" points="462.23,-1883.39 70.23,-1883.39 70.23,-1833.39 462.23,-1833.39 462.23,-1883.39"/>
<text text-anchor="start" x="161.73" y="-1869.19" font-family="Times,serif" font-weight="bold" font-size="14.00">step_1_pre_assembly_stats</text>
<text text-anchor="start" x="78.23" y="-1855.19" font-family="Times,serif" font-size="14.00">Run: ../tools/assembly_stats/assemblyStatsFastq.cwl</text>
<text text-anchor="start" x="198.23" y="-1841.19" font-family="Times,serif" font-style="italic" font-size="14.00">pre&#45;assembly stats</text>
</g>
<!-- raw_reads&#45;&gt;step_1_pre_assembly_stats -->
<g id="edge1" class="edge">
<title>raw_reads&#45;&gt;step_1_pre_assembly_stats</title>
<path fill="none" stroke="black" d="M514.5,-1932.51C464.56,-1917.8 405.54,-1900.42 357.57,-1886.29"/>
<polygon fill="black" stroke="black" points="358.41,-1882.89 347.82,-1883.42 356.43,-1889.6 358.41,-1882.89"/>
</g>
<!-- step_2_filterShortReads -->
<g id="node25" class="node">
<title>step_2_filterShortReads</title>
<polygon fill="grey" stroke="grey" points="1069.23,-1883.39 817.23,-1883.39 817.23,-1833.39 1069.23,-1833.39 1069.23,-1883.39"/>
<text text-anchor="start" x="848.73" y="-1869.19" font-family="Times,serif" font-weight="bold" font-size="14.00">step_2_filterShortReads</text>
<text text-anchor="start" x="825.23" y="-1855.19" font-family="Times,serif" font-size="14.00">Run: ../tools/fastp/fastp_filter.cwl</text>
<text text-anchor="start" x="870.73" y="-1841.19" font-family="Times,serif" font-style="italic" font-size="14.00">filtering short reads</text>
</g>
<!-- raw_reads&#45;&gt;step_2_filterShortReads -->
<g id="edge4" class="edge">
<title>raw_reads&#45;&gt;step_2_filterShortReads</title>
<path fill="none" stroke="black" d="M721.1,-1931.09C765.41,-1916.79 816.83,-1900.19 859.04,-1886.57"/>
<polygon fill="black" stroke="black" points="860.29,-1889.84 868.73,-1883.44 858.14,-1883.18 860.29,-1889.84"/>
</g>
<!-- min_read_size -->
<g id="node2" class="node">
<title>min_read_size</title>
<ellipse fill="lightblue" stroke="lightblue" cx="935.23" cy="-1964.65" rx="130.63" ry="45.01"/>
<text text-anchor="start" x="879.73" y="-1982.45" font-family="Times,serif" font-weight="bold" font-size="14.00">min_read_size</text>
<text text-anchor="start" x="899.73" y="-1968.45" font-family="Times,serif" font-size="14.00">Type: int?</text>
<text text-anchor="start" x="890.73" y="-1954.45" font-family="Times,serif" font-size="14.00">Default: 200</text>
<text text-anchor="start" x="850.73" y="-1940.45" font-family="Times,serif" font-style="italic" font-size="14.00">Raw reads filter by size</text>
</g>
<!-- min_read_size&#45;&gt;step_2_filterShortReads -->
<g id="edge5" class="edge">
<title>min_read_size&#45;&gt;step_2_filterShortReads</title>
<path fill="none" stroke="black" d="M938.65,-1919.13C939.3,-1910.66 939.97,-1901.92 940.59,-1893.83"/>
<polygon fill="black" stroke="black" points="944.1,-1893.88 941.37,-1883.64 937.12,-1893.34 944.1,-1893.88"/>
</g>
<!-- min_contig_size -->
<g id="node3" class="node">
<title>min_contig_size</title>
<ellipse fill="lightblue" stroke="lightblue" cx="2315.23" cy="-941.7" rx="114.6" ry="45.01"/>
<text text-anchor="start" x="2252.73" y="-959.5" font-family="Times,serif" font-weight="bold" font-size="14.00">min_contig_size</text>
<text text-anchor="start" x="2279.73" y="-945.5" font-family="Times,serif" font-size="14.00">Type: int?</text>
<text text-anchor="start" x="2270.73" y="-931.5" font-family="Times,serif" font-size="14.00">Default: 500</text>
<text text-anchor="start" x="2242.23" y="-917.5" font-family="Times,serif" font-style="italic" font-size="14.00">contigs filter by size</text>
</g>
<!-- step_4d_cleaning_filterContigs -->
<g id="node35" class="node">
<title>step_4d_cleaning_filterContigs</title>
<polygon fill="grey" stroke="grey" points="2475.23,-860.44 2155.23,-860.44 2155.23,-810.44 2475.23,-810.44 2475.23,-860.44"/>
<text text-anchor="start" x="2194.23" y="-846.24" font-family="Times,serif" font-weight="bold" font-size="14.00">step_4d_cleaning_filterContigs</text>
<text text-anchor="start" x="2163.23" y="-832.24" font-family="Times,serif" font-size="14.00">Run: ../tools/filterContigs/filterContigs.cwl</text>
<text text-anchor="start" x="2239.23" y="-818.24" font-family="Times,serif" font-style="italic" font-size="14.00">remove short contigs</text>
</g>
<!-- min_contig_size&#45;&gt;step_4d_cleaning_filterContigs -->
<g id="edge25" class="edge">
<title>min_contig_size&#45;&gt;step_4d_cleaning_filterContigs</title>
<path fill="none" stroke="black" d="M2315.23,-896.18C2315.23,-887.71 2315.23,-878.97 2315.23,-870.88"/>
<polygon fill="black" stroke="black" points="2318.73,-870.69 2315.23,-860.69 2311.73,-870.69 2318.73,-870.69"/>
</g>
<!-- raw_reads_report -->
<g id="node4" class="node">
<title>raw_reads_report</title>
<ellipse fill="lightblue" stroke="lightblue" cx="266.23" cy="-1964.65" rx="154.3" ry="45.01"/>
<text text-anchor="start" x="198.23" y="-1982.45" font-family="Times,serif" font-weight="bold" font-size="14.00">raw_reads_report</text>
<text text-anchor="start" x="219.23" y="-1968.45" font-family="Times,serif" font-size="14.00">Type: string?</text>
<text text-anchor="start" x="165.23" y="-1954.45" font-family="Times,serif" font-size="14.00">Default: raw_reads_stats.txt</text>
<text text-anchor="start" x="181.23" y="-1940.45" font-family="Times,serif" font-style="italic" font-size="14.00">initial sequences report</text>
</g>
<!-- raw_reads_report&#45;&gt;step_1_pre_assembly_stats -->
<g id="edge2" class="edge">
<title>raw_reads_report&#45;&gt;step_1_pre_assembly_stats</title>
<path fill="none" stroke="black" d="M266.23,-1919.13C266.23,-1910.66 266.23,-1901.92 266.23,-1893.83"/>
<polygon fill="black" stroke="black" points="269.73,-1893.64 266.23,-1883.64 262.73,-1893.64 269.73,-1893.64"/>
</g>
<!-- reads_filter_bysize_name -->
<g id="node5" class="node">
<title>reads_filter_bysize_name</title>
<ellipse fill="lightblue" stroke="lightblue" cx="1320.23" cy="-1964.65" rx="236.35" ry="45.01"/>
<text text-anchor="start" x="1222.23" y="-1982.45" font-family="Times,serif" font-weight="bold" font-size="14.00">reads_filter_bysize_name</text>
<text text-anchor="start" x="1273.23" y="-1968.45" font-family="Times,serif" font-size="14.00">Type: string?</text>
<text text-anchor="start" x="1239.73" y="-1954.45" font-family="Times,serif" font-size="14.00">Default: reads_filtered</text>
<text text-anchor="start" x="1161.23" y="-1940.45" font-family="Times,serif" font-style="italic" font-size="14.00">prefix for reads with length lt min_read_size</text>
</g>
<!-- reads_filter_bysize_name&#45;&gt;step_2_filterShortReads -->
<g id="edge6" class="edge">
<title>reads_filter_bysize_name&#45;&gt;step_2_filterShortReads</title>
<path fill="none" stroke="black" d="M1188.11,-1927.11C1139.37,-1913.63 1085.09,-1898.62 1040.04,-1886.16"/>
<polygon fill="black" stroke="black" points="1040.85,-1882.75 1030.28,-1883.46 1038.98,-1889.5 1040.85,-1882.75"/>
</g>
<!-- polish_paf -->
<g id="node6" class="node">
<title>polish_paf</title>
<ellipse fill="lightblue" stroke="lightblue" cx="1323.23" cy="-1579.22" rx="156.04" ry="45.01"/>
<text text-anchor="start" x="1283.23" y="-1597.02" font-family="Times,serif" font-weight="bold" font-size="14.00">polish_paf</text>
<text text-anchor="start" x="1276.23" y="-1583.02" font-family="Times,serif" font-size="14.00">Type: string?</text>
<text text-anchor="start" x="1220.73" y="-1569.02" font-family="Times,serif" font-size="14.00">Default: assembly_polish.paf</text>
<text text-anchor="start" x="1251.73" y="-1555.02" font-family="Times,serif" font-style="italic" font-size="14.00">polish align PAF file</text>
</g>
<!-- step_4a_polishing_minimap2 -->
<g id="node29" class="node">
<title>step_4a_polishing_minimap2</title>
<polygon fill="grey" stroke="grey" points="1453.23,-1497.97 999.23,-1497.97 999.23,-1447.97 1453.23,-1447.97 1453.23,-1497.97"/>
<text text-anchor="start" x="1113.23" y="-1483.77" font-family="Times,serif" font-weight="bold" font-size="14.00">step_4a_polishing_minimap2</text>
<text text-anchor="start" x="1057.73" y="-1469.77" font-family="Times,serif" font-size="14.00">Run: ../tools/minimap2/minimap2_to_polish.cwl</text>
<text text-anchor="start" x="1007.23" y="-1455.77" font-family="Times,serif" font-style="italic" font-size="14.00">polishing step 1, map reads back to assembly with minimap2</text>
</g>
<!-- polish_paf&#45;&gt;step_4a_polishing_minimap2 -->
<g id="edge14" class="edge">
<title>polish_paf&#45;&gt;step_4a_polishing_minimap2</title>
<path fill="none" stroke="black" d="M1283.22,-1535.22C1274,-1525.31 1264.37,-1514.96 1255.7,-1505.64"/>
<polygon fill="black" stroke="black" points="1258.05,-1503.02 1248.67,-1498.09 1252.92,-1507.79 1258.05,-1503.02"/>
</g>
<!-- polish_assembly_racon -->
<g id="node7" class="node">
<title>polish_assembly_racon</title>
<ellipse fill="lightblue" stroke="lightblue" cx="1734.23" cy="-1366.71" rx="198.89" ry="45.01"/>
<text text-anchor="start" x="1644.73" y="-1384.51" font-family="Times,serif" font-weight="bold" font-size="14.00">polish_assembly_racon</text>
<text text-anchor="start" x="1687.23" y="-1370.51" font-family="Times,serif" font-size="14.00">Type: string?</text>
<text text-anchor="start" x="1601.73" y="-1356.51" font-family="Times,serif" font-size="14.00">Default: assembly_polish_racon.fasta</text>
<text text-anchor="start" x="1636.73" y="-1342.51" font-family="Times,serif" font-style="italic" font-size="14.00">polish assembly with racon</text>
</g>
<!-- step_4b_polishing_racon -->
<g id="node31" class="node">
<title>step_4b_polishing_racon</title>
<polygon fill="grey" stroke="grey" points="1695.23,-1285.46 1319.23,-1285.46 1319.23,-1235.46 1695.23,-1235.46 1695.23,-1285.46"/>
<text text-anchor="start" x="1411.23" y="-1271.26" font-family="Times,serif" font-weight="bold" font-size="14.00">step_4b_polishing_racon</text>
<text text-anchor="start" x="1405.73" y="-1257.26" font-family="Times,serif" font-size="14.00">Run: ../tools/racon/racon.cwl</text>
<text text-anchor="start" x="1327.23" y="-1243.26" font-family="Times,serif" font-style="italic" font-size="14.00">polishing step 2, using racon to improve assembly</text>
</g>
<!-- polish_assembly_racon&#45;&gt;step_4b_polishing_racon -->
<g id="edge19" class="edge">
<title>polish_assembly_racon&#45;&gt;step_4b_polishing_racon</title>
<path fill="none" stroke="black" d="M1647.44,-1325.85C1621.37,-1313.88 1593.29,-1300.99 1569.17,-1289.91"/>
<polygon fill="black" stroke="black" points="1570.33,-1286.59 1559.79,-1285.6 1567.41,-1292.95 1570.33,-1286.59"/>
</g>
<!-- medaka_model -->
<g id="node8" class="node">
<title>medaka_model</title>
<ellipse fill="lightblue" stroke="lightblue" cx="2182.23" cy="-1154.21" rx="193.08" ry="45.01"/>
<text text-anchor="start" x="2123.73" y="-1172.01" font-family="Times,serif" font-weight="bold" font-size="14.00">medaka_model</text>
<text text-anchor="start" x="2135.23" y="-1158.01" font-family="Times,serif" font-size="14.00">Type: string?</text>
<text text-anchor="start" x="2079.23" y="-1144.01" font-family="Times,serif" font-size="14.00">Default: r941_min_fast_g330</text>
<text text-anchor="start" x="2053.73" y="-1130.01" font-family="Times,serif" font-style="italic" font-size="14.00">medaka model to improve assembly</text>
</g>
<!-- step_4c_polishing_medaka -->
<g id="node33" class="node">
<title>step_4c_polishing_medaka</title>
<polygon fill="grey" stroke="grey" points="2160.23,-1072.95 1762.23,-1072.95 1762.23,-1022.95 2160.23,-1022.95 2160.23,-1072.95"/>
<text text-anchor="start" x="1857.23" y="-1058.75" font-family="Times,serif" font-weight="bold" font-size="14.00">step_4c_polishing_medaka</text>
<text text-anchor="start" x="1843.73" y="-1044.75" font-family="Times,serif" font-size="14.00">Run: ../tools/medaka/medaka.cwl</text>
<text text-anchor="start" x="1770.23" y="-1030.75" font-family="Times,serif" font-style="italic" font-size="14.00">polishing step 3, using medaka to create a consensus</text>
</g>
<!-- medaka_model&#45;&gt;step_4c_polishing_medaka -->
<g id="edge23" class="edge">
<title>medaka_model&#45;&gt;step_4c_polishing_medaka</title>
<path fill="none" stroke="black" d="M2097.74,-1113.34C2072.35,-1101.37 2045.02,-1088.48 2021.53,-1077.4"/>
<polygon fill="black" stroke="black" points="2022.93,-1074.19 2012.4,-1073.09 2019.95,-1080.52 2022.93,-1074.19"/>
</g>
<!-- final_assembly -->
<g id="node9" class="node">
<title>final_assembly</title>
<ellipse fill="lightblue" stroke="lightblue" cx="2605.23" cy="-941.7" rx="157.87" ry="45.01"/>
<text text-anchor="start" x="2547.23" y="-959.5" font-family="Times,serif" font-weight="bold" font-size="14.00">final_assembly</text>
<text text-anchor="start" x="2558.23" y="-945.5" font-family="Times,serif" font-size="14.00">Type: string?</text>
<text text-anchor="start" x="2501.73" y="-931.5" font-family="Times,serif" font-size="14.00">Default: assembly_final.fasta</text>
<text text-anchor="start" x="2514.73" y="-917.5" font-family="Times,serif" font-style="italic" font-size="14.00">final assembly file (fasta)</text>
</g>
<!-- final_assembly&#45;&gt;step_4d_cleaning_filterContigs -->
<g id="edge27" class="edge">
<title>final_assembly&#45;&gt;step_4d_cleaning_filterContigs</title>
<path fill="none" stroke="black" d="M2508.26,-905.84C2470.49,-892.25 2427.8,-876.91 2392.2,-864.11"/>
<polygon fill="black" stroke="black" points="2392.95,-860.66 2382.36,-860.57 2390.58,-867.25 2392.95,-860.66"/>
</g>
<!-- final_assembly_stats -->
<g id="node10" class="node">
<title>final_assembly_stats</title>
<ellipse fill="lightblue" stroke="lightblue" cx="1907.23" cy="-729.19" rx="176.55" ry="45.01"/>
<text text-anchor="start" x="1826.23" y="-746.99" font-family="Times,serif" font-weight="bold" font-size="14.00">final_assembly_stats</text>
<text text-anchor="start" x="1860.23" y="-732.99" font-family="Times,serif" font-size="14.00">Type: string?</text>
<text text-anchor="start" x="1790.23" y="-718.99" font-family="Times,serif" font-size="14.00">Default: assembly_final_stats.txt</text>
<text text-anchor="start" x="1835.73" y="-704.99" font-family="Times,serif" font-style="italic" font-size="14.00">final assembly stats</text>
</g>
<!-- step_4e_cleaning_assemblyStats -->
<g id="node36" class="node">
<title>step_4e_cleaning_assemblyStats</title>
<polygon fill="grey" stroke="grey" points="2306.73,-647.93 1915.73,-647.93 1915.73,-597.93 2306.73,-597.93 2306.73,-647.93"/>
<text text-anchor="start" x="1984.23" y="-633.73" font-family="Times,serif" font-weight="bold" font-size="14.00">step_4e_cleaning_assemblyStats</text>
<text text-anchor="start" x="1923.73" y="-619.73" font-family="Times,serif" font-size="14.00">Run: ../tools/assembly_stats/assemblyStatsFasta.cwl</text>
<text text-anchor="start" x="2014.73" y="-605.73" font-family="Times,serif" font-style="italic" font-size="14.00">final assembly stats report</text>
</g>
<!-- final_assembly_stats&#45;&gt;step_4e_cleaning_assemblyStats -->
<g id="edge30" class="edge">
<title>final_assembly_stats&#45;&gt;step_4e_cleaning_assemblyStats</title>
<path fill="none" stroke="black" d="M1984.94,-688.47C2008.29,-676.54 2033.44,-663.69 2055.11,-652.61"/>
<polygon fill="black" stroke="black" points="2056.85,-655.65 2064.16,-647.99 2053.67,-649.42 2056.85,-655.65"/>
</g>
<!-- predict_proteins -->
<g id="node11" class="node">
<title>predict_proteins</title>
<ellipse fill="lightblue" stroke="lightblue" cx="2764.23" cy="-729.19" rx="217.58" ry="45.01"/>
<text text-anchor="start" x="2699.23" y="-746.99" font-family="Times,serif" font-weight="bold" font-size="14.00">predict_proteins</text>
<text text-anchor="start" x="2717.23" y="-732.99" font-family="Times,serif" font-size="14.00">Type: string?</text>
<text text-anchor="start" x="2646.23" y="-718.99" font-family="Times,serif" font-size="14.00">Default: predicted_proteins.fasta</text>
<text text-anchor="start" x="2618.23" y="-704.99" font-family="Times,serif" font-style="italic" font-size="14.00">predicted proteins from assembly (fasta)</text>
</g>
<!-- step_5a_annotation_prodigal -->
<g id="node37" class="node">
<title>step_5a_annotation_prodigal</title>
<polygon fill="grey" stroke="grey" points="2924.73,-647.93 2603.73,-647.93 2603.73,-597.93 2924.73,-597.93 2924.73,-647.93"/>
<text text-anchor="start" x="2651.73" y="-633.73" font-family="Times,serif" font-weight="bold" font-size="14.00">step_5a_annotation_prodigal</text>
<text text-anchor="start" x="2643.23" y="-619.73" font-family="Times,serif" font-size="14.00">Run: ../tools/prodigal/prodigal.cwl</text>
<text text-anchor="start" x="2611.73" y="-605.73" font-family="Times,serif" font-style="italic" font-size="14.00">predict proteins in assembly with Prodigal</text>
</g>
<!-- predict_proteins&#45;&gt;step_5a_annotation_prodigal -->
<g id="edge33" class="edge">
<title>predict_proteins&#45;&gt;step_5a_annotation_prodigal</title>
<path fill="none" stroke="black" d="M2764.23,-683.67C2764.23,-675.2 2764.23,-666.46 2764.23,-658.37"/>
<polygon fill="black" stroke="black" points="2767.73,-658.18 2764.23,-648.18 2760.73,-658.18 2767.73,-658.18"/>
</g>
<!-- predict_proteins_gbk -->
<g id="node12" class="node">
<title>predict_proteins_gbk</title>
<ellipse fill="lightblue" stroke="lightblue" cx="3211.23" cy="-729.19" rx="211.35" ry="45.01"/>
<text text-anchor="start" x="3128.23" y="-746.99" font-family="Times,serif" font-weight="bold" font-size="14.00">predict_proteins_gbk</text>
<text text-anchor="start" x="3164.23" y="-732.99" font-family="Times,serif" font-size="14.00">Type: string?</text>
<text text-anchor="start" x="3097.73" y="-718.99" font-family="Times,serif" font-size="14.00">Default: predicted_proteins.gbk</text>
<text text-anchor="start" x="3069.73" y="-704.99" font-family="Times,serif" font-style="italic" font-size="14.00">predicted proteins from assembly (gbk)</text>
</g>
<!-- predict_proteins_gbk&#45;&gt;step_5a_annotation_prodigal -->
<g id="edge34" class="edge">
<title>predict_proteins_gbk&#45;&gt;step_5a_annotation_prodigal</title>
<path fill="none" stroke="black" d="M3070.41,-695.34C3008.24,-680.84 2936.13,-664.02 2877.52,-650.35"/>
<polygon fill="black" stroke="black" points="2878.02,-646.88 2867.48,-648.01 2876.43,-653.69 2878.02,-646.88"/>
</g>
<!-- uniprot_index -->
<g id="node13" class="node">
<title>uniprot_index</title>
<ellipse fill="lightblue" stroke="lightblue" cx="3129.23" cy="-516.68" rx="149.81" ry="45.01"/>
<text text-anchor="start" x="3074.73" y="-534.48" font-family="Times,serif" font-weight="bold" font-size="14.00">uniprot_index</text>
<text text-anchor="start" x="3093.73" y="-520.48" font-family="Times,serif" font-size="14.00">Type: File</text>
<text text-anchor="start" x="3031.23" y="-506.48" font-family="Times,serif" font-size="14.00">Default: ../db/uniprot.dmnd</text>
<text text-anchor="start" x="3067.23" y="-492.48" font-family="Times,serif" font-style="italic" font-size="14.00">uniprot index file</text>
</g>
<!-- step_5b_annotation_diamond -->
<g id="node38" class="node">
<title>step_5b_annotation_diamond</title>
<polygon fill="grey" stroke="grey" points="3276.73,-435.42 2981.73,-435.42 2981.73,-385.42 3276.73,-385.42 3276.73,-435.42"/>
<text text-anchor="start" x="3014.73" y="-421.22" font-family="Times,serif" font-weight="bold" font-size="14.00">step_5b_annotation_diamond</text>
<text text-anchor="start" x="3005.73" y="-407.22" font-family="Times,serif" font-size="14.00">Run: ../tools/diamond/diamond.cwl</text>
<text text-anchor="start" x="2989.73" y="-393.22" font-family="Times,serif" font-style="italic" font-size="14.00">search Uniprot database with diamond</text>
</g>
<!-- uniprot_index&#45;&gt;step_5b_annotation_diamond -->
<g id="edge38" class="edge">
<title>uniprot_index&#45;&gt;step_5b_annotation_diamond</title>
<path fill="none" stroke="black" d="M3129.23,-471.16C3129.23,-462.69 3129.23,-453.95 3129.23,-445.86"/>
<polygon fill="black" stroke="black" points="3132.73,-445.67 3129.23,-435.67 3125.73,-445.67 3132.73,-445.67"/>
</g>
<!-- diamond_out -->
<g id="node14" class="node">
<title>diamond_out</title>
<ellipse fill="lightblue" stroke="lightblue" cx="3483.23" cy="-516.68" rx="185.94" ry="45.01"/>
<text text-anchor="start" x="3432.23" y="-534.48" font-family="Times,serif" font-weight="bold" font-size="14.00">diamond_out</text>
<text text-anchor="start" x="3436.23" y="-520.48" font-family="Times,serif" font-size="14.00">Type: string?</text>
<text text-anchor="start" x="3359.73" y="-506.48" font-family="Times,serif" font-size="14.00">Default: predict_proteins_align.tsv</text>
<text text-anchor="start" x="3394.23" y="-492.48" font-family="Times,serif" font-style="italic" font-size="14.00">proteins align to Uniprot</text>
</g>
<!-- diamond_out&#45;&gt;step_5b_annotation_diamond -->
<g id="edge36" class="edge">
<title>diamond_out&#45;&gt;step_5b_annotation_diamond</title>
<path fill="none" stroke="black" d="M3366.34,-481.25C3318.87,-467.27 3264.86,-451.36 3220.38,-438.27"/>
<polygon fill="black" stroke="black" points="3221.34,-434.9 3210.75,-435.43 3219.36,-441.61 3221.34,-434.9"/>
</g>
<!-- ideel_out -->
<g id="node15" class="node">
<title>ideel_out</title>
<ellipse fill="lightblue" stroke="lightblue" cx="3535.23" cy="-304.17" rx="176.14" ry="45.01"/>
<text text-anchor="start" x="3499.23" y="-321.97" font-family="Times,serif" font-weight="bold" font-size="14.00">ideel_out</text>
<text text-anchor="start" x="3488.23" y="-307.97" font-family="Times,serif" font-size="14.00">Type: string?</text>
<text text-anchor="start" x="3447.23" y="-293.97" font-family="Times,serif" font-size="14.00">Default: ideel_report.pdf</text>
<text text-anchor="start" x="3418.73" y="-279.97" font-family="Times,serif" font-style="italic" font-size="14.00">protein completeness evaluation</text>
</g>
<!-- step_5c_annotation_ideel -->
<g id="node39" class="node">
<title>step_5c_annotation_ideel</title>
<polygon fill="grey" stroke="grey" points="3474.23,-222.91 3190.23,-222.91 3190.23,-172.91 3474.23,-172.91 3474.23,-222.91"/>
<text text-anchor="start" x="3233.73" y="-208.71" font-family="Times,serif" font-weight="bold" font-size="14.00">step_5c_annotation_ideel</text>
<text text-anchor="start" x="3228.23" y="-194.71" font-family="Times,serif" font-size="14.00">Run: ../tools/ideel/ideelPy.cwl</text>
<text text-anchor="start" x="3198.23" y="-180.71" font-family="Times,serif" font-style="italic" font-size="14.00">ideel report for protein completeness</text>
</g>
<!-- ideel_out&#45;&gt;step_5c_annotation_ideel -->
<g id="edge41" class="edge">
<title>ideel_out&#45;&gt;step_5c_annotation_ideel</title>
<path fill="none" stroke="black" d="M3457.91,-263.45C3434.67,-251.52 3409.64,-238.67 3388.08,-227.59"/>
<polygon fill="black" stroke="black" points="3389.57,-224.42 3379.07,-222.97 3386.37,-230.65 3389.57,-224.42"/>
</g>
<!-- step_1_pre_assembly_stats__outReport -->
<g id="node16" class="node">
<title>step_1_pre_assembly_stats__outReport</title>
<ellipse fill="red" stroke="red" cx="202.23" cy="-1771.94" rx="202.47" ry="25.41"/>
<text text-anchor="start" x="139.73" y="-1775.74" font-family="Times,serif" font-weight="bold" font-size="14.00">raw_reads_stats</text>
<text text-anchor="start" x="67.23" y="-1761.74" font-family="Times,serif" font-size="14.00">step_1_pre_assembly_stats/outReport</text>
</g>
<!-- step_2_filterShortReads__qchtml -->
<g id="node17" class="node">
<title>step_2_filterShortReads__qchtml</title>
<ellipse fill="red" stroke="red" cx="593.23" cy="-1771.94" rx="171.24" ry="25.41"/>
<text text-anchor="start" x="504.23" y="-1775.74" font-family="Times,serif" font-weight="bold" font-size="14.00">filtered_reads_qc_html</text>
<text text-anchor="start" x="480.23" y="-1761.74" font-family="Times,serif" font-size="14.00">step_2_filterShortReads/qchtml</text>
</g>
<!-- step_2_filterShortReads__qcjson -->
<g id="node18" class="node">
<title>step_2_filterShortReads__qcjson</title>
<ellipse fill="red" stroke="red" cx="951.23" cy="-1771.94" rx="169" ry="25.41"/>
<text text-anchor="start" x="864.23" y="-1775.74" font-family="Times,serif" font-weight="bold" font-size="14.00">filtered_reads_qc_json</text>
<text text-anchor="start" x="839.73" y="-1761.74" font-family="Times,serif" font-size="14.00">step_2_filterShortReads/qcjson</text>
</g>
<!-- step_4d_cleaning_filterContigs__outFasta -->
<g id="node19" class="node">
<title>step_4d_cleaning_filterContigs__outFasta</title>
<ellipse fill="red" stroke="red" cx="2315.23" cy="-729.19" rx="213.59" ry="25.41"/>
<text text-anchor="start" x="2257.23" y="-732.99" font-family="Times,serif" font-weight="bold" font-size="14.00">final_assembly</text>
<text text-anchor="start" x="2172.23" y="-718.99" font-family="Times,serif" font-size="14.00">step_4d_cleaning_filterContigs/outFasta</text>
</g>
<!-- step_4d_cleaning_filterContigs__outFasta&#45;&gt;step_4e_cleaning_assemblyStats -->
<g id="edge29" class="edge">
<title>step_4d_cleaning_filterContigs__outFasta&#45;&gt;step_4e_cleaning_assemblyStats</title>
<path fill="none" stroke="black" d="M2268.43,-704.27C2238.45,-688.95 2199.37,-668.98 2167.68,-652.78"/>
<polygon fill="black" stroke="black" points="2169.02,-649.53 2158.52,-648.1 2165.83,-655.77 2169.02,-649.53"/>
</g>
<!-- step_4d_cleaning_filterContigs__outFasta&#45;&gt;step_5a_annotation_prodigal -->
<g id="edge32" class="edge">
<title>step_4d_cleaning_filterContigs__outFasta&#45;&gt;step_5a_annotation_prodigal</title>
<path fill="none" stroke="black" d="M2409.36,-706.33C2479.74,-689.99 2576.29,-667.57 2650.92,-650.24"/>
<polygon fill="black" stroke="black" points="2651.88,-653.61 2660.83,-647.94 2650.3,-646.79 2651.88,-653.61"/>
</g>
<!-- step_4e_cleaning_assemblyStats__outReport -->
<g id="node20" class="node">
<title>step_4e_cleaning_assemblyStats__outReport</title>
<ellipse fill="red" stroke="red" cx="2111.23" cy="-516.68" rx="230.53" ry="25.41"/>
<text text-anchor="start" x="2030.23" y="-520.48" font-family="Times,serif" font-weight="bold" font-size="14.00">final_assembly_stats</text>
<text text-anchor="start" x="1956.23" y="-506.48" font-family="Times,serif" font-size="14.00">step_4e_cleaning_assemblyStats/outReport</text>
</g>
<!-- step_5a_annotation_prodigal__outProt -->
<g id="node21" class="node">
<title>step_5a_annotation_prodigal__outProt</title>
<ellipse fill="red" stroke="red" cx="2764.23" cy="-516.68" rx="197.07" ry="25.41"/>
<text text-anchor="start" x="2699.23" y="-520.48" font-family="Times,serif" font-weight="bold" font-size="14.00">predict_proteins</text>
<text text-anchor="start" x="2632.73" y="-506.48" font-family="Times,serif" font-size="14.00">step_5a_annotation_prodigal/outProt</text>
</g>
<!-- step_5a_annotation_prodigal__outProt&#45;&gt;step_5b_annotation_diamond -->
<g id="edge37" class="edge">
<title>step_5a_annotation_prodigal__outProt&#45;&gt;step_5b_annotation_diamond</title>
<path fill="none" stroke="black" d="M2842.53,-493.31C2898.99,-477.19 2975.44,-455.35 3035.2,-438.28"/>
<polygon fill="black" stroke="black" points="3036.37,-441.59 3045.02,-435.47 3034.44,-434.86 3036.37,-441.59"/>
</g>
<!-- step_5b_annotation_diamond__alignment -->
<g id="node22" class="node">
<title>step_5b_annotation_diamond__alignment</title>
<ellipse fill="red" stroke="red" cx="3129.23" cy="-304.17" rx="212.26" ry="25.41"/>
<text text-anchor="start" x="3071.73" y="-307.97" font-family="Times,serif" font-weight="bold" font-size="14.00">diamond_align</text>
<text text-anchor="start" x="2987.23" y="-293.97" font-family="Times,serif" font-size="14.00">step_5b_annotation_diamond/alignment</text>
</g>
<!-- step_5b_annotation_diamond__alignment&#45;&gt;step_5c_annotation_ideel -->
<g id="edge40" class="edge">
<title>step_5b_annotation_diamond__alignment&#45;&gt;step_5c_annotation_ideel</title>
<path fill="none" stroke="black" d="M3175.8,-279.25C3205.64,-263.93 3244.52,-243.96 3276.06,-227.76"/>
<polygon fill="black" stroke="black" points="3277.88,-230.76 3285.17,-223.08 3274.68,-224.53 3277.88,-230.76"/>
</g>
<!-- step_5c_annotation_ideel__outFig -->
<g id="node23" class="node">
<title>step_5c_annotation_ideel__outFig</title>
<ellipse fill="red" stroke="red" cx="3332.23" cy="-111.46" rx="173.9" ry="25.41"/>
<text text-anchor="start" x="3296.73" y="-115.26" font-family="Times,serif" font-weight="bold" font-size="14.00">ideel_pdf</text>
<text text-anchor="start" x="3217.23" y="-101.26" font-family="Times,serif" font-size="14.00">step_5c_annotation_ideel/outFig</text>
</g>
<!-- step_1_pre_assembly_stats&#45;&gt;step_1_pre_assembly_stats__outReport -->
<g id="edge3" class="edge">
<title>step_1_pre_assembly_stats&#45;&gt;step_1_pre_assembly_stats__outReport</title>
<path fill="none" stroke="black" d="M247.72,-1832.96C241.22,-1824.38 233.81,-1814.61 226.89,-1805.47"/>
<polygon fill="black" stroke="black" points="229.53,-1803.16 220.7,-1797.31 223.95,-1807.39 229.53,-1803.16"/>
</g>
<!-- step_2_filterShortReads&#45;&gt;step_2_filterShortReads__qchtml -->
<g id="edge9" class="edge">
<title>step_2_filterShortReads&#45;&gt;step_2_filterShortReads__qchtml</title>
<path fill="none" stroke="black" d="M843.4,-1833.3C795.2,-1821.67 737.61,-1807.77 689.83,-1796.25"/>
<polygon fill="black" stroke="black" points="690.65,-1792.84 680.11,-1793.9 689.01,-1799.65 690.65,-1792.84"/>
</g>
<!-- step_2_filterShortReads&#45;&gt;step_2_filterShortReads__qcjson -->
<g id="edge8" class="edge">
<title>step_2_filterShortReads&#45;&gt;step_2_filterShortReads__qcjson</title>
<path fill="none" stroke="black" d="M945.55,-1832.96C946.29,-1825.07 947.14,-1816.15 947.94,-1807.66"/>
<polygon fill="black" stroke="black" points="951.44,-1807.89 948.9,-1797.6 944.47,-1807.23 951.44,-1807.89"/>
</g>
<!-- step_2_filterShortReads__outReads -->
<g id="node26" class="node">
<title>step_2_filterShortReads__outReads</title>
<ellipse fill="none" stroke="grey" cx="1323.23" cy="-1771.94" rx="184.67" ry="18"/>
<text text-anchor="start" x="1189.23" y="-1769.24" font-family="Times,serif" font-weight="bold" font-size="14.00">step_2_filterShortReads/outReads</text>
</g>
<!-- step_2_filterShortReads&#45;&gt;step_2_filterShortReads__outReads -->
<g id="edge7" class="edge">
<title>step_2_filterShortReads&#45;&gt;step_2_filterShortReads__outReads</title>
<path fill="none" stroke="black" d="M1051.36,-1833.36C1112.32,-1819.81 1187.17,-1803.18 1242.89,-1790.79"/>
<polygon fill="black" stroke="black" points="1243.71,-1794.2 1252.71,-1788.61 1242.19,-1787.36 1243.71,-1794.2"/>
</g>
<!-- step_3_assembly -->
<g id="node27" class="node">
<title>step_3_assembly</title>
<polygon fill="grey" stroke="grey" points="1086.23,-1710.48 856.23,-1710.48 856.23,-1660.48 1086.23,-1660.48 1086.23,-1710.48"/>
<text text-anchor="start" x="906.23" y="-1696.28" font-family="Times,serif" font-weight="bold" font-size="14.00">step_3_assembly</text>
<text text-anchor="start" x="883.23" y="-1682.28" font-family="Times,serif" font-size="14.00">Run: ../tools/flye/flye.cwl</text>
<text text-anchor="start" x="864.23" y="-1668.28" font-family="Times,serif" font-style="italic" font-size="14.00">assembly long&#45;reads with flye</text>
</g>
<!-- step_2_filterShortReads__outReads&#45;&gt;step_3_assembly -->
<g id="edge10" class="edge">
<title>step_2_filterShortReads__outReads&#45;&gt;step_3_assembly</title>
<path fill="none" stroke="black" d="M1257.02,-1755.05C1207.61,-1743.19 1138.96,-1726.72 1081.33,-1712.9"/>
<polygon fill="black" stroke="black" points="1081.99,-1709.45 1071.44,-1710.52 1080.35,-1716.26 1081.99,-1709.45"/>
</g>
<!-- step_2_filterShortReads__outReads&#45;&gt;step_4a_polishing_minimap2 -->
<g id="edge13" class="edge">
<title>step_2_filterShortReads__outReads&#45;&gt;step_4a_polishing_minimap2</title>
<path fill="none" stroke="black" d="M1291.7,-1754.19C1251.96,-1731.08 1185.56,-1685.27 1158.23,-1624.48 1141.74,-1587.79 1141.69,-1570.64 1158.23,-1533.97 1163.19,-1522.98 1171.27,-1513.2 1180.15,-1504.89"/>
<polygon fill="black" stroke="black" points="1182.52,-1507.46 1187.75,-1498.25 1177.91,-1502.19 1182.52,-1507.46"/>
</g>
<!-- step_2_filterShortReads__outReads&#45;&gt;step_4b_polishing_racon -->
<g id="edge16" class="edge">
<title>step_2_filterShortReads__outReads&#45;&gt;step_4b_polishing_racon</title>
<path fill="none" stroke="black" d="M1358.71,-1754.25C1412.18,-1726.36 1507.23,-1664.88 1507.23,-1580.22 1507.23,-1580.22 1507.23,-1580.22 1507.23,-1471.97 1507.23,-1409.94 1507.23,-1337.63 1507.23,-1295.94"/>
<polygon fill="black" stroke="black" points="1510.73,-1295.77 1507.23,-1285.77 1503.73,-1295.77 1510.73,-1295.77"/>
</g>
<!-- step_2_filterShortReads__outReads&#45;&gt;step_4c_polishing_medaka -->
<g id="edge21" class="edge">
<title>step_2_filterShortReads__outReads&#45;&gt;step_4c_polishing_medaka</title>
<path fill="none" stroke="black" d="M1450.81,-1758.89C1636.99,-1737.72 1961.23,-1685.72 1961.23,-1580.22 1961.23,-1580.22 1961.23,-1580.22 1961.23,-1259.46 1961.23,-1197.43 1961.23,-1125.12 1961.23,-1083.43"/>
<polygon fill="black" stroke="black" points="1964.73,-1083.26 1961.23,-1073.26 1957.73,-1083.26 1964.73,-1083.26"/>
</g>
<!-- step_3_assembly__contigs_fasta -->
<g id="node28" class="node">
<title>step_3_assembly__contigs_fasta</title>
<ellipse fill="none" stroke="grey" cx="945.23" cy="-1579.22" rx="165.97" ry="18"/>
<text text-anchor="start" x="825.73" y="-1576.52" font-family="Times,serif" font-weight="bold" font-size="14.00">step_3_assembly/contigs_fasta</text>
</g>
<!-- step_3_assembly&#45;&gt;step_3_assembly__contigs_fasta -->
<g id="edge11" class="edge">
<title>step_3_assembly&#45;&gt;step_3_assembly__contigs_fasta</title>
<path fill="none" stroke="black" d="M965.2,-1660.3C961.26,-1644.51 956.12,-1623.86 952.03,-1607.49"/>
<polygon fill="black" stroke="black" points="955.34,-1606.3 949.53,-1597.44 948.55,-1607.99 955.34,-1606.3"/>
</g>
<!-- step_3_assembly__contigs_fasta&#45;&gt;step_4a_polishing_minimap2 -->
<g id="edge12" class="edge">
<title>step_3_assembly__contigs_fasta&#45;&gt;step_4a_polishing_minimap2</title>
<path fill="none" stroke="black" d="M989.45,-1561.82C1032.95,-1545.68 1100.19,-1520.73 1151.91,-1501.54"/>
<polygon fill="black" stroke="black" points="1153.22,-1504.79 1161.38,-1498.03 1150.79,-1498.23 1153.22,-1504.79"/>
</g>
<!-- step_3_assembly__contigs_fasta&#45;&gt;step_4b_polishing_racon -->
<g id="edge18" class="edge">
<title>step_3_assembly__contigs_fasta&#45;&gt;step_4b_polishing_racon</title>
<path fill="none" stroke="black" d="M946.11,-1561.16C949.55,-1513.97 966.23,-1381.24 1046.23,-1321.46 1087.77,-1290.42 1203.73,-1275.43 1308.95,-1268.19"/>
<polygon fill="black" stroke="black" points="1309.35,-1271.67 1319.09,-1267.51 1308.88,-1264.69 1309.35,-1271.67"/>
</g>
<!-- step_4a_polishing_minimap2__outPAF -->
<g id="node30" class="node">
<title>step_4a_polishing_minimap2__outPAF</title>
<ellipse fill="none" stroke="grey" cx="1253.23" cy="-1366.71" rx="197.66" ry="18"/>
<text text-anchor="start" x="1109.23" y="-1364.01" font-family="Times,serif" font-weight="bold" font-size="14.00">step_4a_polishing_minimap2/outPAF</text>
</g>
<!-- step_4a_polishing_minimap2&#45;&gt;step_4a_polishing_minimap2__outPAF -->
<g id="edge15" class="edge">
<title>step_4a_polishing_minimap2&#45;&gt;step_4a_polishing_minimap2__outPAF</title>
<path fill="none" stroke="black" d="M1232.49,-1447.79C1236.58,-1432 1241.93,-1411.35 1246.17,-1394.98"/>
<polygon fill="black" stroke="black" points="1249.66,-1395.49 1248.77,-1384.93 1242.88,-1393.73 1249.66,-1395.49"/>
</g>
<!-- step_4a_polishing_minimap2__outPAF&#45;&gt;step_4b_polishing_racon -->
<g id="edge17" class="edge">
<title>step_4a_polishing_minimap2__outPAF&#45;&gt;step_4b_polishing_racon</title>
<path fill="none" stroke="black" d="M1293.76,-1349.08C1332.81,-1333.05 1392.63,-1308.5 1439.02,-1289.46"/>
<polygon fill="black" stroke="black" points="1440.48,-1292.64 1448.4,-1285.61 1437.82,-1286.17 1440.48,-1292.64"/>
</g>
<!-- step_4b_polishing_racon__outAssembly -->
<g id="node32" class="node">
<title>step_4b_polishing_racon__outAssembly</title>
<ellipse fill="none" stroke="grey" cx="1618.23" cy="-1154.21" rx="204.16" ry="18"/>
<text text-anchor="start" x="1469.23" y="-1151.51" font-family="Times,serif" font-weight="bold" font-size="14.00">step_4b_polishing_racon/outAssembly</text>
</g>
<!-- step_4b_polishing_racon&#45;&gt;step_4b_polishing_racon__outAssembly -->
<g id="edge20" class="edge">
<title>step_4b_polishing_racon&#45;&gt;step_4b_polishing_racon__outAssembly</title>
<path fill="none" stroke="black" d="M1532.98,-1235.28C1550.75,-1218.59 1574.3,-1196.47 1592.15,-1179.71"/>
<polygon fill="black" stroke="black" points="1595.01,-1181.82 1599.9,-1172.42 1590.22,-1176.72 1595.01,-1181.82"/>
</g>
<!-- step_4b_polishing_racon__outAssembly&#45;&gt;step_4c_polishing_medaka -->
<g id="edge22" class="edge">
<title>step_4b_polishing_racon__outAssembly&#45;&gt;step_4c_polishing_medaka</title>
<path fill="none" stroke="black" d="M1672.2,-1136.8C1725.86,-1120.49 1809.08,-1095.2 1872.48,-1075.93"/>
<polygon fill="black" stroke="black" points="1873.52,-1079.27 1882.07,-1073.01 1871.49,-1072.57 1873.52,-1079.27"/>
</g>
<!-- step_4c_polishing_medaka__outConsensus -->
<g id="node34" class="node">
<title>step_4c_polishing_medaka__outConsensus</title>
<ellipse fill="none" stroke="grey" cx="1961.23" cy="-941.7" rx="221.76" ry="18"/>
<text text-anchor="start" x="1798.73" y="-939" font-family="Times,serif" font-weight="bold" font-size="14.00">step_4c_polishing_medaka/outConsensus</text>
</g>
<!-- step_4c_polishing_medaka&#45;&gt;step_4c_polishing_medaka__outConsensus -->
<g id="edge24" class="edge">
<title>step_4c_polishing_medaka&#45;&gt;step_4c_polishing_medaka__outConsensus</title>
<path fill="none" stroke="black" d="M1961.23,-1022.77C1961.23,-1006.98 1961.23,-986.33 1961.23,-969.96"/>
<polygon fill="black" stroke="black" points="1964.73,-969.91 1961.23,-959.91 1957.73,-969.91 1964.73,-969.91"/>
</g>
<!-- step_4c_polishing_medaka__outConsensus&#45;&gt;step_4d_cleaning_filterContigs -->
<g id="edge26" class="edge">
<title>step_4c_polishing_medaka__outConsensus&#45;&gt;step_4d_cleaning_filterContigs</title>
<path fill="none" stroke="black" d="M2017.32,-924.18C2072.77,-907.85 2158.54,-882.59 2223.83,-863.36"/>
<polygon fill="black" stroke="black" points="2225.12,-866.63 2233.72,-860.45 2223.14,-859.91 2225.12,-866.63"/>
</g>
<!-- step_4d_cleaning_filterContigs&#45;&gt;step_4d_cleaning_filterContigs__outFasta -->
<g id="edge28" class="edge">
<title>step_4d_cleaning_filterContigs&#45;&gt;step_4d_cleaning_filterContigs__outFasta</title>
<path fill="none" stroke="black" d="M2315.23,-810.26C2315.23,-796.9 2315.23,-780.06 2315.23,-765.28"/>
<polygon fill="black" stroke="black" points="2318.73,-764.96 2315.23,-754.96 2311.73,-764.96 2318.73,-764.96"/>
</g>
<!-- step_4e_cleaning_assemblyStats&#45;&gt;step_4e_cleaning_assemblyStats__outReport -->
<g id="edge31" class="edge">
<title>step_4e_cleaning_assemblyStats&#45;&gt;step_4e_cleaning_assemblyStats__outReport</title>
<path fill="none" stroke="black" d="M2111.23,-597.75C2111.23,-584.39 2111.23,-567.55 2111.23,-552.77"/>
<polygon fill="black" stroke="black" points="2114.73,-552.45 2111.23,-542.45 2107.73,-552.45 2114.73,-552.45"/>
</g>
<!-- step_5a_annotation_prodigal&#45;&gt;step_5a_annotation_prodigal__outProt -->
<g id="edge35" class="edge">
<title>step_5a_annotation_prodigal&#45;&gt;step_5a_annotation_prodigal__outProt</title>
<path fill="none" stroke="black" d="M2764.23,-597.75C2764.23,-584.39 2764.23,-567.55 2764.23,-552.77"/>
<polygon fill="black" stroke="black" points="2767.73,-552.45 2764.23,-542.45 2760.73,-552.45 2767.73,-552.45"/>
</g>
<!-- step_5b_annotation_diamond&#45;&gt;step_5b_annotation_diamond__alignment -->
<g id="edge39" class="edge">
<title>step_5b_annotation_diamond&#45;&gt;step_5b_annotation_diamond__alignment</title>
<path fill="none" stroke="black" d="M3129.23,-385.24C3129.23,-371.88 3129.23,-355.05 3129.23,-340.26"/>
<polygon fill="black" stroke="black" points="3132.73,-339.94 3129.23,-329.94 3125.73,-339.94 3132.73,-339.94"/>
</g>
<!-- step_5c_annotation_ideel&#45;&gt;step_5c_annotation_ideel__outFig -->
<g id="edge42" class="edge">
<title>step_5c_annotation_ideel&#45;&gt;step_5c_annotation_ideel__outFig</title>
<path fill="none" stroke="black" d="M3332.23,-172.48C3332.23,-164.59 3332.23,-155.67 3332.23,-147.18"/>
<polygon fill="black" stroke="black" points="3335.73,-147.12 3332.23,-137.12 3328.73,-147.12 3335.73,-147.12"/>
</g>
<!-- INPUT -->
<g id="node40" class="node">
<title>INPUT</title>
<ellipse fill="lightblue" stroke="lightblue" cx="3332.23" cy="-25" rx="41.69" ry="18"/>
<text text-anchor="middle" x="3332.23" y="-21.3" font-family="Times,serif" font-size="14.00">INPUT</text>
</g>
<!-- OUTPUT -->
<g id="node41" class="node">
<title>OUTPUT</title>
<ellipse fill="red" stroke="red" cx="3443.23" cy="-25" rx="51.19" ry="18"/>
<text text-anchor="middle" x="3443.23" y="-21.3" font-family="Times,serif" font-size="14.00">OUTPUT</text>
</g>
<!-- STEP -->
<g id="node42" class="node">
<title>STEP</title>
<polygon fill="grey" stroke="grey" points="3568.23,-43 3512.23,-43 3512.23,-7 3568.23,-7 3568.23,-43"/>
<text text-anchor="middle" x="3540.23" y="-21.3" font-family="Times,serif" font-size="14.00">STEP</text>
</g>
<!-- legend_text -->
<g id="node43" class="node">
<title>legend_text</title>
<polygon fill="none" stroke="black" points="3982.23,-50 3586.23,-50 3586.23,0 3982.23,0 3982.23,-50"/>
<text text-anchor="start" x="3668.23" y="-35.8" font-family="Times,serif" font-weight="bold" font-size="14.00">Long read assembly workflow</text>
<text text-anchor="start" x="3718.73" y="-21.8" font-family="Times,serif" font-size="14.00">CWL version: v1.1</text>
<text text-anchor="start" x="3594.23" y="-7.8" font-family="Times,serif" font-style="italic" font-size="14.00">Implementation of nanopore reads assembly pipeline</text>
</g>
</g>
</svg>
