<?xml version="1.0" encoding="UTF-8" standalone="no"?>
<!DOCTYPE svg PUBLIC "-//W3C//DTD SVG 1.1//EN"
 "http://www.w3.org/Graphics/SVG/1.1/DTD/svg11.dtd">
<!-- Generated by graphviz version 2.43.0 (0)
 -->
<!-- Title: G Pages: 1 -->
<svg width="4758pt" height="2057pt"
 viewBox="0.00 0.00 4758.23 2057.50" xmlns="http://www.w3.org/2000/svg" xmlns:xlink="http://www.w3.org/1999/xlink">
<g id="graph0" class="graph" transform="scale(1 1) rotate(0) translate(4 2053.5)">
<title>G</title>
<polygon fill="white" stroke="transparent" points="-4,4 -4,-2053.5 4754.23,-2053.5 4754.23,4 -4,4"/>
<!-- raw_reads -->
<g id="node1" class="node">
<title>raw_reads</title>
<ellipse fill="lightblue" stroke="lightblue" cx="620.23" cy="-2004.24" rx="149.81" ry="45.01"/>
<text text-anchor="start" x="580.73" y="-2022.04" font-family="Times,serif" font-weight="bold" font-size="14.00">raw_reads</text>
<text text-anchor="start" x="584.73" y="-2008.04" font-family="Times,serif" font-size="14.00">Type: File</text>
<text text-anchor="start" x="522.23" y="-1994.04" font-family="Times,serif" font-size="14.00">Format: edam:format_1930</text>
<text text-anchor="start" x="537.23" y="-1980.04" font-family="Times,serif" font-style="italic" font-size="14.00">long reads to assemble</text>
</g>
<!-- step_1_pre_assembly_stats -->
<g id="node26" class="node">
<title>step_1_pre_assembly_stats</title>
<polygon fill="grey" stroke="grey" points="462.23,-1922.99 70.23,-1922.99 70.23,-1872.99 462.23,-1872.99 462.23,-1922.99"/>
<text text-anchor="start" x="161.73" y="-1908.79" font-family="Times,serif" font-weight="bold" font-size="14.00">step_1_pre_assembly_stats</text>
<text text-anchor="start" x="78.23" y="-1894.79" font-family="Times,serif" font-size="14.00">Run: ../tools/assembly_stats/assemblyStatsFastq.cwl</text>
<text text-anchor="start" x="198.23" y="-1880.79" font-family="Times,serif" font-style="italic" font-size="14.00">pre&#45;assembly stats</text>
</g>
<!-- raw_reads&#45;&gt;step_1_pre_assembly_stats -->
<g id="edge1" class="edge">
<title>raw_reads&#45;&gt;step_1_pre_assembly_stats</title>
<path fill="none" stroke="black" d="M514.5,-1972.11C464.56,-1957.4 405.54,-1940.02 357.57,-1925.89"/>
<polygon fill="black" stroke="black" points="358.41,-1922.49 347.82,-1923.02 356.43,-1929.2 358.41,-1922.49"/>
</g>
<!-- step_2_filterShortReads -->
<g id="node27" class="node">
<title>step_2_filterShortReads</title>
<polygon fill="grey" stroke="grey" points="1069.23,-1922.99 817.23,-1922.99 817.23,-1872.99 1069.23,-1872.99 1069.23,-1922.99"/>
<text text-anchor="start" x="848.73" y="-1908.79" font-family="Times,serif" font-weight="bold" font-size="14.00">step_2_filterShortReads</text>
<text text-anchor="start" x="825.23" y="-1894.79" font-family="Times,serif" font-size="14.00">Run: ../tools/fastp/fastp_filter.cwl</text>
<text text-anchor="start" x="870.73" y="-1880.79" font-family="Times,serif" font-style="italic" font-size="14.00">filtering short reads</text>
</g>
<!-- raw_reads&#45;&gt;step_2_filterShortReads -->
<g id="edge4" class="edge">
<title>raw_reads&#45;&gt;step_2_filterShortReads</title>
<path fill="none" stroke="black" d="M721.1,-1970.69C765.41,-1956.39 816.83,-1939.79 859.04,-1926.16"/>
<polygon fill="black" stroke="black" points="860.29,-1929.44 868.73,-1923.04 858.14,-1922.78 860.29,-1929.44"/>
</g>
<!-- lr_tech -->
<g id="node2" class="node">
<title>lr_tech</title>
<ellipse fill="lightblue" stroke="lightblue" cx="1475.23" cy="-1791.73" rx="337.08" ry="45.01"/>
<text text-anchor="start" x="1447.73" y="-1809.53" font-family="Times,serif" font-weight="bold" font-size="14.00">lr_tech</text>
<text text-anchor="start" x="1428.23" y="-1795.53" font-family="Times,serif" font-size="14.00">Type: string?</text>
<text text-anchor="start" x="1410.73" y="-1781.53" font-family="Times,serif" font-size="14.00">Default: nanopore</text>
<text text-anchor="start" x="1244.73" y="-1767.53" font-family="Times,serif" font-style="italic" font-size="14.00">long reads technology, supported techs are nanopore and pacbio</text>
</g>
<!-- step_3_assembly -->
<g id="node29" class="node">
<title>step_3_assembly</title>
<polygon fill="grey" stroke="grey" points="1598.23,-1710.48 1352.23,-1710.48 1352.23,-1660.48 1598.23,-1660.48 1598.23,-1710.48"/>
<text text-anchor="start" x="1410.23" y="-1696.28" font-family="Times,serif" font-weight="bold" font-size="14.00">step_3_assembly</text>
<text text-anchor="start" x="1360.23" y="-1682.28" font-family="Times,serif" font-size="14.00">Run: ../tools/flye/flye_runner.cwl</text>
<text text-anchor="start" x="1368.23" y="-1668.28" font-family="Times,serif" font-style="italic" font-size="14.00">assembly long&#45;reads with flye</text>
</g>
<!-- lr_tech&#45;&gt;step_3_assembly -->
<g id="edge10" class="edge">
<title>lr_tech&#45;&gt;step_3_assembly</title>
<path fill="none" stroke="black" d="M1475.23,-1746.22C1475.23,-1737.75 1475.23,-1729.01 1475.23,-1720.92"/>
<polygon fill="black" stroke="black" points="1478.73,-1720.73 1475.23,-1710.73 1471.73,-1720.73 1478.73,-1720.73"/>
</g>
<!-- align_preset -->
<g id="node3" class="node">
<title>align_preset</title>
<ellipse fill="lightblue" stroke="lightblue" cx="1796.23" cy="-1579.22" rx="120.83" ry="45.01"/>
<text text-anchor="start" x="1747.73" y="-1597.02" font-family="Times,serif" font-weight="bold" font-size="14.00">align_preset</text>
<text text-anchor="start" x="1749.23" y="-1583.02" font-family="Times,serif" font-size="14.00">Type: string?</text>
<text text-anchor="start" x="1735.73" y="-1569.02" font-family="Times,serif" font-size="14.00">Default: map&#45;ont</text>
<text text-anchor="start" x="1718.73" y="-1555.02" font-family="Times,serif" font-style="italic" font-size="14.00">minimap2 align mode</text>
</g>
<!-- step_4a_polishing_minimap2 -->
<g id="node31" class="node">
<title>step_4a_polishing_minimap2</title>
<polygon fill="grey" stroke="grey" points="2023.23,-1497.97 1569.23,-1497.97 1569.23,-1447.97 2023.23,-1447.97 2023.23,-1497.97"/>
<text text-anchor="start" x="1683.23" y="-1483.77" font-family="Times,serif" font-weight="bold" font-size="14.00">step_4a_polishing_minimap2</text>
<text text-anchor="start" x="1627.73" y="-1469.77" font-family="Times,serif" font-size="14.00">Run: ../tools/minimap2/minimap2_to_polish.cwl</text>
<text text-anchor="start" x="1577.23" y="-1455.77" font-family="Times,serif" font-style="italic" font-size="14.00">polishing step 1, map reads back to assembly with minimap2</text>
</g>
<!-- align_preset&#45;&gt;step_4a_polishing_minimap2 -->
<g id="edge13" class="edge">
<title>align_preset&#45;&gt;step_4a_polishing_minimap2</title>
<path fill="none" stroke="black" d="M1796.23,-1533.71C1796.23,-1525.24 1796.23,-1516.5 1796.23,-1508.41"/>
<polygon fill="black" stroke="black" points="1799.73,-1508.22 1796.23,-1498.22 1792.73,-1508.22 1799.73,-1508.22"/>
</g>
<!-- min_read_size -->
<g id="node4" class="node">
<title>min_read_size</title>
<ellipse fill="lightblue" stroke="lightblue" cx="935.23" cy="-2004.24" rx="130.63" ry="45.01"/>
<text text-anchor="start" x="879.73" y="-2022.04" font-family="Times,serif" font-weight="bold" font-size="14.00">min_read_size</text>
<text text-anchor="start" x="899.73" y="-2008.04" font-family="Times,serif" font-size="14.00">Type: int?</text>
<text text-anchor="start" x="890.73" y="-1994.04" font-family="Times,serif" font-size="14.00">Default: 200</text>
<text text-anchor="start" x="850.73" y="-1980.04" font-family="Times,serif" font-style="italic" font-size="14.00">Raw reads filter by size</text>
</g>
<!-- min_read_size&#45;&gt;step_2_filterShortReads -->
<g id="edge5" class="edge">
<title>min_read_size&#45;&gt;step_2_filterShortReads</title>
<path fill="none" stroke="black" d="M938.65,-1958.73C939.3,-1950.26 939.97,-1941.52 940.59,-1933.43"/>
<polygon fill="black" stroke="black" points="944.1,-1933.48 941.37,-1923.24 937.12,-1932.94 944.1,-1933.48"/>
</g>
<!-- min_contig_size -->
<g id="node5" class="node">
<title>min_contig_size</title>
<ellipse fill="lightblue" stroke="lightblue" cx="3083.23" cy="-941.7" rx="114.6" ry="45.01"/>
<text text-anchor="start" x="3020.73" y="-959.5" font-family="Times,serif" font-weight="bold" font-size="14.00">min_contig_size</text>
<text text-anchor="start" x="3047.73" y="-945.5" font-family="Times,serif" font-size="14.00">Type: int?</text>
<text text-anchor="start" x="3038.73" y="-931.5" font-family="Times,serif" font-size="14.00">Default: 500</text>
<text text-anchor="start" x="3010.23" y="-917.5" font-family="Times,serif" font-style="italic" font-size="14.00">contigs filter by size</text>
</g>
<!-- step_4d_cleaning_filterContigs -->
<g id="node37" class="node">
<title>step_4d_cleaning_filterContigs</title>
<polygon fill="grey" stroke="grey" points="3243.23,-860.44 2923.23,-860.44 2923.23,-810.44 3243.23,-810.44 3243.23,-860.44"/>
<text text-anchor="start" x="2962.23" y="-846.24" font-family="Times,serif" font-weight="bold" font-size="14.00">step_4d_cleaning_filterContigs</text>
<text text-anchor="start" x="2931.23" y="-832.24" font-family="Times,serif" font-size="14.00">Run: ../tools/filterContigs/filterContigs.cwl</text>
<text text-anchor="start" x="3007.23" y="-818.24" font-family="Times,serif" font-style="italic" font-size="14.00">remove short contigs</text>
</g>
<!-- min_contig_size&#45;&gt;step_4d_cleaning_filterContigs -->
<g id="edge27" class="edge">
<title>min_contig_size&#45;&gt;step_4d_cleaning_filterContigs</title>
<path fill="none" stroke="black" d="M3083.23,-896.18C3083.23,-887.71 3083.23,-878.97 3083.23,-870.88"/>
<polygon fill="black" stroke="black" points="3086.73,-870.69 3083.23,-860.69 3079.73,-870.69 3086.73,-870.69"/>
</g>
<!-- raw_reads_report -->
<g id="node6" class="node">
<title>raw_reads_report</title>
<ellipse fill="lightblue" stroke="lightblue" cx="266.23" cy="-2004.24" rx="154.3" ry="45.01"/>
<text text-anchor="start" x="198.23" y="-2022.04" font-family="Times,serif" font-weight="bold" font-size="14.00">raw_reads_report</text>
<text text-anchor="start" x="219.23" y="-2008.04" font-family="Times,serif" font-size="14.00">Type: string?</text>
<text text-anchor="start" x="165.23" y="-1994.04" font-family="Times,serif" font-size="14.00">Default: raw_reads_stats.txt</text>
<text text-anchor="start" x="181.23" y="-1980.04" font-family="Times,serif" font-style="italic" font-size="14.00">initial sequences report</text>
</g>
<!-- raw_reads_report&#45;&gt;step_1_pre_assembly_stats -->
<g id="edge2" class="edge">
<title>raw_reads_report&#45;&gt;step_1_pre_assembly_stats</title>
<path fill="none" stroke="black" d="M266.23,-1958.73C266.23,-1950.26 266.23,-1941.52 266.23,-1933.43"/>
<polygon fill="black" stroke="black" points="269.73,-1933.24 266.23,-1923.24 262.73,-1933.24 269.73,-1933.24"/>
</g>
<!-- reads_filter_bysize_name -->
<g id="node7" class="node">
<title>reads_filter_bysize_name</title>
<ellipse fill="lightblue" stroke="lightblue" cx="1320.23" cy="-2004.24" rx="236.35" ry="45.01"/>
<text text-anchor="start" x="1222.23" y="-2022.04" font-family="Times,serif" font-weight="bold" font-size="14.00">reads_filter_bysize_name</text>
<text text-anchor="start" x="1273.23" y="-2008.04" font-family="Times,serif" font-size="14.00">Type: string?</text>
<text text-anchor="start" x="1239.73" y="-1994.04" font-family="Times,serif" font-size="14.00">Default: reads_filtered</text>
<text text-anchor="start" x="1161.23" y="-1980.04" font-family="Times,serif" font-style="italic" font-size="14.00">prefix for reads with length lt min_read_size</text>
</g>
<!-- reads_filter_bysize_name&#45;&gt;step_2_filterShortReads -->
<g id="edge6" class="edge">
<title>reads_filter_bysize_name&#45;&gt;step_2_filterShortReads</title>
<path fill="none" stroke="black" d="M1188.11,-1966.71C1139.37,-1953.23 1085.09,-1938.22 1040.04,-1925.76"/>
<polygon fill="black" stroke="black" points="1040.85,-1922.35 1030.28,-1923.06 1038.98,-1929.1 1040.85,-1922.35"/>
</g>
<!-- polish_paf -->
<g id="node8" class="node">
<title>polish_paf</title>
<ellipse fill="lightblue" stroke="lightblue" cx="2091.23" cy="-1579.22" rx="156.04" ry="45.01"/>
<text text-anchor="start" x="2051.23" y="-1597.02" font-family="Times,serif" font-weight="bold" font-size="14.00">polish_paf</text>
<text text-anchor="start" x="2044.23" y="-1583.02" font-family="Times,serif" font-size="14.00">Type: string?</text>
<text text-anchor="start" x="1988.73" y="-1569.02" font-family="Times,serif" font-size="14.00">Default: assembly_polish.paf</text>
<text text-anchor="start" x="2019.73" y="-1555.02" font-family="Times,serif" font-style="italic" font-size="14.00">polish align PAF file</text>
</g>
<!-- polish_paf&#45;&gt;step_4a_polishing_minimap2 -->
<g id="edge16" class="edge">
<title>polish_paf&#45;&gt;step_4a_polishing_minimap2</title>
<path fill="none" stroke="black" d="M1993.82,-1543.8C1954.84,-1530.02 1910.57,-1514.38 1873.83,-1501.39"/>
<polygon fill="black" stroke="black" points="1874.76,-1498.01 1864.17,-1497.98 1872.43,-1504.61 1874.76,-1498.01"/>
</g>
<!-- polish_assembly_racon -->
<g id="node9" class="node">
<title>polish_assembly_racon</title>
<ellipse fill="lightblue" stroke="lightblue" cx="2502.23" cy="-1366.71" rx="198.89" ry="45.01"/>
<text text-anchor="start" x="2412.73" y="-1384.51" font-family="Times,serif" font-weight="bold" font-size="14.00">polish_assembly_racon</text>
<text text-anchor="start" x="2455.23" y="-1370.51" font-family="Times,serif" font-size="14.00">Type: string?</text>
<text text-anchor="start" x="2369.73" y="-1356.51" font-family="Times,serif" font-size="14.00">Default: assembly_polish_racon.fasta</text>
<text text-anchor="start" x="2404.73" y="-1342.51" font-family="Times,serif" font-style="italic" font-size="14.00">polish assembly with racon</text>
</g>
<!-- step_4b_polishing_racon -->
<g id="node33" class="node">
<title>step_4b_polishing_racon</title>
<polygon fill="grey" stroke="grey" points="2463.23,-1285.46 2087.23,-1285.46 2087.23,-1235.46 2463.23,-1235.46 2463.23,-1285.46"/>
<text text-anchor="start" x="2179.23" y="-1271.26" font-family="Times,serif" font-weight="bold" font-size="14.00">step_4b_polishing_racon</text>
<text text-anchor="start" x="2173.73" y="-1257.26" font-family="Times,serif" font-size="14.00">Run: ../tools/racon/racon.cwl</text>
<text text-anchor="start" x="2095.23" y="-1243.26" font-family="Times,serif" font-style="italic" font-size="14.00">polishing step 2, using racon to improve assembly</text>
</g>
<!-- polish_assembly_racon&#45;&gt;step_4b_polishing_racon -->
<g id="edge21" class="edge">
<title>polish_assembly_racon&#45;&gt;step_4b_polishing_racon</title>
<path fill="none" stroke="black" d="M2415.44,-1325.85C2389.37,-1313.88 2361.29,-1300.99 2337.17,-1289.91"/>
<polygon fill="black" stroke="black" points="2338.33,-1286.59 2327.79,-1285.6 2335.41,-1292.95 2338.33,-1286.59"/>
</g>
<!-- medaka_model -->
<g id="node10" class="node">
<title>medaka_model</title>
<ellipse fill="lightblue" stroke="lightblue" cx="2950.23" cy="-1154.21" rx="193.08" ry="45.01"/>
<text text-anchor="start" x="2891.73" y="-1172.01" font-family="Times,serif" font-weight="bold" font-size="14.00">medaka_model</text>
<text text-anchor="start" x="2903.23" y="-1158.01" font-family="Times,serif" font-size="14.00">Type: string?</text>
<text text-anchor="start" x="2847.23" y="-1144.01" font-family="Times,serif" font-size="14.00">Default: r941_min_fast_g330</text>
<text text-anchor="start" x="2821.73" y="-1130.01" font-family="Times,serif" font-style="italic" font-size="14.00">medaka model to improve assembly</text>
</g>
<!-- step_4c_polishing_medaka -->
<g id="node35" class="node">
<title>step_4c_polishing_medaka</title>
<polygon fill="grey" stroke="grey" points="2928.23,-1072.95 2530.23,-1072.95 2530.23,-1022.95 2928.23,-1022.95 2928.23,-1072.95"/>
<text text-anchor="start" x="2625.23" y="-1058.75" font-family="Times,serif" font-weight="bold" font-size="14.00">step_4c_polishing_medaka</text>
<text text-anchor="start" x="2611.73" y="-1044.75" font-family="Times,serif" font-size="14.00">Run: ../tools/medaka/medaka.cwl</text>
<text text-anchor="start" x="2538.23" y="-1030.75" font-family="Times,serif" font-style="italic" font-size="14.00">polishing step 3, using medaka to create a consensus</text>
</g>
<!-- medaka_model&#45;&gt;step_4c_polishing_medaka -->
<g id="edge25" class="edge">
<title>medaka_model&#45;&gt;step_4c_polishing_medaka</title>
<path fill="none" stroke="black" d="M2865.74,-1113.34C2840.35,-1101.37 2813.02,-1088.48 2789.53,-1077.4"/>
<polygon fill="black" stroke="black" points="2790.93,-1074.19 2780.4,-1073.09 2787.95,-1080.52 2790.93,-1074.19"/>
</g>
<!-- final_assembly -->
<g id="node11" class="node">
<title>final_assembly</title>
<ellipse fill="lightblue" stroke="lightblue" cx="3373.23" cy="-941.7" rx="157.87" ry="45.01"/>
<text text-anchor="start" x="3315.23" y="-959.5" font-family="Times,serif" font-weight="bold" font-size="14.00">final_assembly</text>
<text text-anchor="start" x="3326.23" y="-945.5" font-family="Times,serif" font-size="14.00">Type: string?</text>
<text text-anchor="start" x="3269.73" y="-931.5" font-family="Times,serif" font-size="14.00">Default: assembly_final.fasta</text>
<text text-anchor="start" x="3282.73" y="-917.5" font-family="Times,serif" font-style="italic" font-size="14.00">final assembly file (fasta)</text>
</g>
<!-- final_assembly&#45;&gt;step_4d_cleaning_filterContigs -->
<g id="edge29" class="edge">
<title>final_assembly&#45;&gt;step_4d_cleaning_filterContigs</title>
<path fill="none" stroke="black" d="M3276.26,-905.84C3238.49,-892.25 3195.8,-876.91 3160.2,-864.11"/>
<polygon fill="black" stroke="black" points="3160.95,-860.66 3150.36,-860.57 3158.58,-867.25 3160.95,-860.66"/>
</g>
<!-- final_assembly_stats -->
<g id="node12" class="node">
<title>final_assembly_stats</title>
<ellipse fill="lightblue" stroke="lightblue" cx="2675.23" cy="-729.19" rx="176.55" ry="45.01"/>
<text text-anchor="start" x="2594.23" y="-746.99" font-family="Times,serif" font-weight="bold" font-size="14.00">final_assembly_stats</text>
<text text-anchor="start" x="2628.23" y="-732.99" font-family="Times,serif" font-size="14.00">Type: string?</text>
<text text-anchor="start" x="2558.23" y="-718.99" font-family="Times,serif" font-size="14.00">Default: assembly_final_stats.txt</text>
<text text-anchor="start" x="2603.73" y="-704.99" font-family="Times,serif" font-style="italic" font-size="14.00">final assembly stats</text>
</g>
<!-- step_4e_cleaning_assemblyStats -->
<g id="node38" class="node">
<title>step_4e_cleaning_assemblyStats</title>
<polygon fill="grey" stroke="grey" points="3074.73,-647.93 2683.73,-647.93 2683.73,-597.93 3074.73,-597.93 3074.73,-647.93"/>
<text text-anchor="start" x="2752.23" y="-633.73" font-family="Times,serif" font-weight="bold" font-size="14.00">step_4e_cleaning_assemblyStats</text>
<text text-anchor="start" x="2691.73" y="-619.73" font-family="Times,serif" font-size="14.00">Run: ../tools/assembly_stats/assemblyStatsFasta.cwl</text>
<text text-anchor="start" x="2782.73" y="-605.73" font-family="Times,serif" font-style="italic" font-size="14.00">final assembly stats report</text>
</g>
<!-- final_assembly_stats&#45;&gt;step_4e_cleaning_assemblyStats -->
<g id="edge32" class="edge">
<title>final_assembly_stats&#45;&gt;step_4e_cleaning_assemblyStats</title>
<path fill="none" stroke="black" d="M2752.94,-688.47C2776.29,-676.54 2801.44,-663.69 2823.11,-652.61"/>
<polygon fill="black" stroke="black" points="2824.85,-655.65 2832.16,-647.99 2821.67,-649.42 2824.85,-655.65"/>
</g>
<!-- predict_proteins -->
<g id="node13" class="node">
<title>predict_proteins</title>
<ellipse fill="lightblue" stroke="lightblue" cx="3532.23" cy="-729.19" rx="217.58" ry="45.01"/>
<text text-anchor="start" x="3467.23" y="-746.99" font-family="Times,serif" font-weight="bold" font-size="14.00">predict_proteins</text>
<text text-anchor="start" x="3485.23" y="-732.99" font-family="Times,serif" font-size="14.00">Type: string?</text>
<text text-anchor="start" x="3414.23" y="-718.99" font-family="Times,serif" font-size="14.00">Default: predicted_proteins.fasta</text>
<text text-anchor="start" x="3386.23" y="-704.99" font-family="Times,serif" font-style="italic" font-size="14.00">predicted proteins from assembly (fasta)</text>
</g>
<!-- step_5a_annotation_prodigal -->
<g id="node39" class="node">
<title>step_5a_annotation_prodigal</title>
<polygon fill="grey" stroke="grey" points="3692.73,-647.93 3371.73,-647.93 3371.73,-597.93 3692.73,-597.93 3692.73,-647.93"/>
<text text-anchor="start" x="3419.73" y="-633.73" font-family="Times,serif" font-weight="bold" font-size="14.00">step_5a_annotation_prodigal</text>
<text text-anchor="start" x="3411.23" y="-619.73" font-family="Times,serif" font-size="14.00">Run: ../tools/prodigal/prodigal.cwl</text>
<text text-anchor="start" x="3379.73" y="-605.73" font-family="Times,serif" font-style="italic" font-size="14.00">predict proteins in assembly with Prodigal</text>
</g>
<!-- predict_proteins&#45;&gt;step_5a_annotation_prodigal -->
<g id="edge35" class="edge">
<title>predict_proteins&#45;&gt;step_5a_annotation_prodigal</title>
<path fill="none" stroke="black" d="M3532.23,-683.67C3532.23,-675.2 3532.23,-666.46 3532.23,-658.37"/>
<polygon fill="black" stroke="black" points="3535.73,-658.18 3532.23,-648.18 3528.73,-658.18 3535.73,-658.18"/>
</g>
<!-- predict_proteins_gbk -->
<g id="node14" class="node">
<title>predict_proteins_gbk</title>
<ellipse fill="lightblue" stroke="lightblue" cx="3979.23" cy="-729.19" rx="211.35" ry="45.01"/>
<text text-anchor="start" x="3896.23" y="-746.99" font-family="Times,serif" font-weight="bold" font-size="14.00">predict_proteins_gbk</text>
<text text-anchor="start" x="3932.23" y="-732.99" font-family="Times,serif" font-size="14.00">Type: string?</text>
<text text-anchor="start" x="3865.73" y="-718.99" font-family="Times,serif" font-size="14.00">Default: predicted_proteins.gbk</text>
<text text-anchor="start" x="3837.73" y="-704.99" font-family="Times,serif" font-style="italic" font-size="14.00">predicted proteins from assembly (gbk)</text>
</g>
<!-- predict_proteins_gbk&#45;&gt;step_5a_annotation_prodigal -->
<g id="edge36" class="edge">
<title>predict_proteins_gbk&#45;&gt;step_5a_annotation_prodigal</title>
<path fill="none" stroke="black" d="M3838.41,-695.34C3776.24,-680.84 3704.13,-664.02 3645.52,-650.35"/>
<polygon fill="black" stroke="black" points="3646.02,-646.88 3635.48,-648.01 3644.43,-653.69 3646.02,-646.88"/>
</g>
<!-- uniprot_index -->
<g id="node15" class="node">
<title>uniprot_index</title>
<ellipse fill="lightblue" stroke="lightblue" cx="3897.23" cy="-516.68" rx="149.81" ry="45.01"/>
<text text-anchor="start" x="3842.73" y="-534.48" font-family="Times,serif" font-weight="bold" font-size="14.00">uniprot_index</text>
<text text-anchor="start" x="3861.73" y="-520.48" font-family="Times,serif" font-size="14.00">Type: File</text>
<text text-anchor="start" x="3799.23" y="-506.48" font-family="Times,serif" font-size="14.00">Default: ../db/uniprot.dmnd</text>
<text text-anchor="start" x="3835.23" y="-492.48" font-family="Times,serif" font-style="italic" font-size="14.00">uniprot index file</text>
</g>
<!-- step_5b_annotation_diamond -->
<g id="node40" class="node">
<title>step_5b_annotation_diamond</title>
<polygon fill="grey" stroke="grey" points="4044.73,-435.42 3749.73,-435.42 3749.73,-385.42 4044.73,-385.42 4044.73,-435.42"/>
<text text-anchor="start" x="3782.73" y="-421.22" font-family="Times,serif" font-weight="bold" font-size="14.00">step_5b_annotation_diamond</text>
<text text-anchor="start" x="3773.73" y="-407.22" font-family="Times,serif" font-size="14.00">Run: ../tools/diamond/diamond.cwl</text>
<text text-anchor="start" x="3757.73" y="-393.22" font-family="Times,serif" font-style="italic" font-size="14.00">search Uniprot database with diamond</text>
</g>
<!-- uniprot_index&#45;&gt;step_5b_annotation_diamond -->
<g id="edge40" class="edge">
<title>uniprot_index&#45;&gt;step_5b_annotation_diamond</title>
<path fill="none" stroke="black" d="M3897.23,-471.16C3897.23,-462.69 3897.23,-453.95 3897.23,-445.86"/>
<polygon fill="black" stroke="black" points="3900.73,-445.67 3897.23,-435.67 3893.73,-445.67 3900.73,-445.67"/>
</g>
<!-- diamond_out -->
<g id="node16" class="node">
<title>diamond_out</title>
<ellipse fill="lightblue" stroke="lightblue" cx="4251.23" cy="-516.68" rx="185.94" ry="45.01"/>
<text text-anchor="start" x="4200.23" y="-534.48" font-family="Times,serif" font-weight="bold" font-size="14.00">diamond_out</text>
<text text-anchor="start" x="4204.23" y="-520.48" font-family="Times,serif" font-size="14.00">Type: string?</text>
<text text-anchor="start" x="4127.73" y="-506.48" font-family="Times,serif" font-size="14.00">Default: predict_proteins_align.tsv</text>
<text text-anchor="start" x="4162.23" y="-492.48" font-family="Times,serif" font-style="italic" font-size="14.00">proteins align to Uniprot</text>
</g>
<!-- diamond_out&#45;&gt;step_5b_annotation_diamond -->
<g id="edge38" class="edge">
<title>diamond_out&#45;&gt;step_5b_annotation_diamond</title>
<path fill="none" stroke="black" d="M4134.34,-481.25C4086.87,-467.27 4032.86,-451.36 3988.38,-438.27"/>
<polygon fill="black" stroke="black" points="3989.34,-434.9 3978.75,-435.43 3987.36,-441.61 3989.34,-434.9"/>
</g>
<!-- ideel_out -->
<g id="node17" class="node">
<title>ideel_out</title>
<ellipse fill="lightblue" stroke="lightblue" cx="4303.23" cy="-304.17" rx="176.14" ry="45.01"/>
<text text-anchor="start" x="4267.23" y="-321.97" font-family="Times,serif" font-weight="bold" font-size="14.00">ideel_out</text>
<text text-anchor="start" x="4256.23" y="-307.97" font-family="Times,serif" font-size="14.00">Type: string?</text>
<text text-anchor="start" x="4215.23" y="-293.97" font-family="Times,serif" font-size="14.00">Default: ideel_report.pdf</text>
<text text-anchor="start" x="4186.73" y="-279.97" font-family="Times,serif" font-style="italic" font-size="14.00">protein completeness evaluation</text>
</g>
<!-- step_5c_annotation_ideel -->
<g id="node41" class="node">
<title>step_5c_annotation_ideel</title>
<polygon fill="grey" stroke="grey" points="4242.23,-222.91 3958.23,-222.91 3958.23,-172.91 4242.23,-172.91 4242.23,-222.91"/>
<text text-anchor="start" x="4001.73" y="-208.71" font-family="Times,serif" font-weight="bold" font-size="14.00">step_5c_annotation_ideel</text>
<text text-anchor="start" x="3996.23" y="-194.71" font-family="Times,serif" font-size="14.00">Run: ../tools/ideel/ideelPy.cwl</text>
<text text-anchor="start" x="3966.23" y="-180.71" font-family="Times,serif" font-style="italic" font-size="14.00">ideel report for protein completeness</text>
</g>
<!-- ideel_out&#45;&gt;step_5c_annotation_ideel -->
<g id="edge43" class="edge">
<title>ideel_out&#45;&gt;step_5c_annotation_ideel</title>
<path fill="none" stroke="black" d="M4225.91,-263.45C4202.67,-251.52 4177.64,-238.67 4156.08,-227.59"/>
<polygon fill="black" stroke="black" points="4157.57,-224.42 4147.07,-222.97 4154.37,-230.65 4157.57,-224.42"/>
</g>
<!-- step_1_pre_assembly_stats__outReport -->
<g id="node18" class="node">
<title>step_1_pre_assembly_stats__outReport</title>
<ellipse fill="red" stroke="red" cx="202.23" cy="-1791.73" rx="202.47" ry="25.41"/>
<text text-anchor="start" x="139.73" y="-1795.53" font-family="Times,serif" font-weight="bold" font-size="14.00">raw_reads_stats</text>
<text text-anchor="start" x="67.23" y="-1781.53" font-family="Times,serif" font-size="14.00">step_1_pre_assembly_stats/outReport</text>
</g>
<!-- step_2_filterShortReads__qchtml -->
<g id="node19" class="node">
<title>step_2_filterShortReads__qchtml</title>
<ellipse fill="red" stroke="red" cx="593.23" cy="-1791.73" rx="171.24" ry="25.41"/>
<text text-anchor="start" x="504.23" y="-1795.53" font-family="Times,serif" font-weight="bold" font-size="14.00">filtered_reads_qc_html</text>
<text text-anchor="start" x="480.23" y="-1781.53" font-family="Times,serif" font-size="14.00">step_2_filterShortReads/qchtml</text>
</g>
<!-- step_2_filterShortReads__qcjson -->
<g id="node20" class="node">
<title>step_2_filterShortReads__qcjson</title>
<ellipse fill="red" stroke="red" cx="951.23" cy="-1791.73" rx="169" ry="25.41"/>
<text text-anchor="start" x="864.23" y="-1795.53" font-family="Times,serif" font-weight="bold" font-size="14.00">filtered_reads_qc_json</text>
<text text-anchor="start" x="839.73" y="-1781.53" font-family="Times,serif" font-size="14.00">step_2_filterShortReads/qcjson</text>
</g>
<!-- step_4d_cleaning_filterContigs__outFasta -->
<g id="node21" class="node">
<title>step_4d_cleaning_filterContigs__outFasta</title>
<ellipse fill="red" stroke="red" cx="3083.23" cy="-729.19" rx="213.59" ry="25.41"/>
<text text-anchor="start" x="3002.23" y="-732.99" font-family="Times,serif" font-weight="bold" font-size="14.00">final_assembly_fasta</text>
<text text-anchor="start" x="2940.23" y="-718.99" font-family="Times,serif" font-size="14.00">step_4d_cleaning_filterContigs/outFasta</text>
</g>
<!-- step_4d_cleaning_filterContigs__outFasta&#45;&gt;step_4e_cleaning_assemblyStats -->
<g id="edge31" class="edge">
<title>step_4d_cleaning_filterContigs__outFasta&#45;&gt;step_4e_cleaning_assemblyStats</title>
<path fill="none" stroke="black" d="M3036.43,-704.27C3006.45,-688.95 2967.37,-668.98 2935.68,-652.78"/>
<polygon fill="black" stroke="black" points="2937.02,-649.53 2926.52,-648.1 2933.83,-655.77 2937.02,-649.53"/>
</g>
<!-- step_4d_cleaning_filterContigs__outFasta&#45;&gt;step_5a_annotation_prodigal -->
<g id="edge34" class="edge">
<title>step_4d_cleaning_filterContigs__outFasta&#45;&gt;step_5a_annotation_prodigal</title>
<path fill="none" stroke="black" d="M3177.36,-706.33C3247.74,-689.99 3344.29,-667.57 3418.92,-650.24"/>
<polygon fill="black" stroke="black" points="3419.88,-653.61 3428.83,-647.94 3418.3,-646.79 3419.88,-653.61"/>
</g>
<!-- step_4e_cleaning_assemblyStats__outReport -->
<g id="node22" class="node">
<title>step_4e_cleaning_assemblyStats__outReport</title>
<ellipse fill="red" stroke="red" cx="2879.23" cy="-516.68" rx="230.53" ry="25.41"/>
<text text-anchor="start" x="2793.23" y="-520.48" font-family="Times,serif" font-weight="bold" font-size="14.00">final_assembly_report</text>
<text text-anchor="start" x="2724.23" y="-506.48" font-family="Times,serif" font-size="14.00">step_4e_cleaning_assemblyStats/outReport</text>
</g>
<!-- step_5a_annotation_prodigal__outProt -->
<g id="node23" class="node">
<title>step_5a_annotation_prodigal__outProt</title>
<ellipse fill="red" stroke="red" cx="3532.23" cy="-516.68" rx="197.07" ry="25.41"/>
<text text-anchor="start" x="3444.73" y="-520.48" font-family="Times,serif" font-weight="bold" font-size="14.00">predict_proteins_fasta</text>
<text text-anchor="start" x="3400.73" y="-506.48" font-family="Times,serif" font-size="14.00">step_5a_annotation_prodigal/outProt</text>
</g>
<!-- step_5a_annotation_prodigal__outProt&#45;&gt;step_5b_annotation_diamond -->
<g id="edge39" class="edge">
<title>step_5a_annotation_prodigal__outProt&#45;&gt;step_5b_annotation_diamond</title>
<path fill="none" stroke="black" d="M3610.53,-493.31C3666.99,-477.19 3743.44,-455.35 3803.2,-438.28"/>
<polygon fill="black" stroke="black" points="3804.37,-441.59 3813.02,-435.47 3802.44,-434.86 3804.37,-441.59"/>
</g>
<!-- step_5b_annotation_diamond__alignment -->
<g id="node24" class="node">
<title>step_5b_annotation_diamond__alignment</title>
<ellipse fill="red" stroke="red" cx="3897.23" cy="-304.17" rx="212.26" ry="25.41"/>
<text text-anchor="start" x="3816.23" y="-307.97" font-family="Times,serif" font-weight="bold" font-size="14.00">diamond_align_table</text>
<text text-anchor="start" x="3755.23" y="-293.97" font-family="Times,serif" font-size="14.00">step_5b_annotation_diamond/alignment</text>
</g>
<!-- step_5b_annotation_diamond__alignment&#45;&gt;step_5c_annotation_ideel -->
<g id="edge42" class="edge">
<title>step_5b_annotation_diamond__alignment&#45;&gt;step_5c_annotation_ideel</title>
<path fill="none" stroke="black" d="M3943.8,-279.25C3973.64,-263.93 4012.52,-243.96 4044.06,-227.76"/>
<polygon fill="black" stroke="black" points="4045.88,-230.76 4053.17,-223.08 4042.68,-224.53 4045.88,-230.76"/>
</g>
<!-- step_5c_annotation_ideel__outFig -->
<g id="node25" class="node">
<title>step_5c_annotation_ideel__outFig</title>
<ellipse fill="red" stroke="red" cx="4100.23" cy="-111.46" rx="173.9" ry="25.41"/>
<text text-anchor="start" x="4064.73" y="-115.26" font-family="Times,serif" font-weight="bold" font-size="14.00">ideel_pdf</text>
<text text-anchor="start" x="3985.23" y="-101.26" font-family="Times,serif" font-size="14.00">step_5c_annotation_ideel/outFig</text>
</g>
<!-- step_1_pre_assembly_stats&#45;&gt;step_1_pre_assembly_stats__outReport -->
<g id="edge3" class="edge">
<title>step_1_pre_assembly_stats&#45;&gt;step_1_pre_assembly_stats__outReport</title>
<path fill="none" stroke="black" d="M251.39,-1872.81C242.81,-1858.83 231.89,-1841.04 222.52,-1825.79"/>
<polygon fill="black" stroke="black" points="225.43,-1823.84 217.22,-1817.14 219.47,-1827.5 225.43,-1823.84"/>
</g>
<!-- step_2_filterShortReads&#45;&gt;step_2_filterShortReads__qchtml -->
<g id="edge9" class="edge">
<title>step_2_filterShortReads&#45;&gt;step_2_filterShortReads__qchtml</title>
<path fill="none" stroke="black" d="M862.5,-1872.94C806.77,-1856.34 732.87,-1834.33 676.59,-1817.56"/>
<polygon fill="black" stroke="black" points="677.58,-1814.21 667,-1814.71 675.59,-1820.92 677.58,-1814.21"/>
</g>
<!-- step_2_filterShortReads&#45;&gt;step_2_filterShortReads__qcjson -->
<g id="edge8" class="edge">
<title>step_2_filterShortReads&#45;&gt;step_2_filterShortReads__qcjson</title>
<path fill="none" stroke="black" d="M945.09,-1872.81C946.11,-1859.45 947.41,-1842.61 948.54,-1827.83"/>
<polygon fill="black" stroke="black" points="952.06,-1827.75 949.33,-1817.51 945.08,-1827.21 952.06,-1827.75"/>
</g>
<!-- step_2_filterShortReads__outReads -->
<g id="node28" class="node">
<title>step_2_filterShortReads__outReads</title>
<ellipse fill="none" stroke="grey" cx="2015.23" cy="-1791.73" rx="184.67" ry="18"/>
<text text-anchor="start" x="1881.23" y="-1789.03" font-family="Times,serif" font-weight="bold" font-size="14.00">step_2_filterShortReads/outReads</text>
</g>
<!-- step_2_filterShortReads&#45;&gt;step_2_filterShortReads__outReads -->
<g id="edge7" class="edge">
<title>step_2_filterShortReads&#45;&gt;step_2_filterShortReads__outReads</title>
<path fill="none" stroke="black" d="M1069.3,-1894.54C1240.42,-1889.82 1555.39,-1876.15 1821.23,-1836.99 1862.94,-1830.85 1908.96,-1820.5 1945.71,-1811.36"/>
<polygon fill="black" stroke="black" points="1946.98,-1814.65 1955.82,-1808.82 1945.27,-1807.86 1946.98,-1814.65"/>
</g>
<!-- step_2_filterShortReads__outReads&#45;&gt;step_3_assembly -->
<g id="edge11" class="edge">
<title>step_2_filterShortReads__outReads&#45;&gt;step_3_assembly</title>
<path fill="none" stroke="black" d="M1949.42,-1774.82C1911.95,-1765.98 1864.08,-1755.08 1821.23,-1746.48 1751.3,-1732.45 1673.03,-1718.71 1608.64,-1707.93"/>
<polygon fill="black" stroke="black" points="1608.87,-1704.42 1598.43,-1706.23 1607.71,-1711.32 1608.87,-1704.42"/>
</g>
<!-- step_2_filterShortReads__outReads&#45;&gt;step_4a_polishing_minimap2 -->
<g id="edge15" class="edge">
<title>step_2_filterShortReads__outReads&#45;&gt;step_4a_polishing_minimap2</title>
<path fill="none" stroke="black" d="M1926.63,-1775.9C1843.27,-1756.73 1723.02,-1714.43 1666.23,-1624.48 1644.76,-1590.46 1644.55,-1567.85 1666.23,-1533.97 1674.47,-1521.09 1686.26,-1510.93 1699.42,-1502.94"/>
<polygon fill="black" stroke="black" points="1701.23,-1505.93 1708.24,-1497.99 1697.8,-1499.83 1701.23,-1505.93"/>
</g>
<!-- step_2_filterShortReads__outReads&#45;&gt;step_4b_polishing_racon -->
<g id="edge18" class="edge">
<title>step_2_filterShortReads__outReads&#45;&gt;step_4b_polishing_racon</title>
<path fill="none" stroke="black" d="M2068.47,-1774.41C2144.54,-1747.39 2275.23,-1685.64 2275.23,-1580.22 2275.23,-1580.22 2275.23,-1580.22 2275.23,-1471.97 2275.23,-1409.94 2275.23,-1337.63 2275.23,-1295.94"/>
<polygon fill="black" stroke="black" points="2278.73,-1295.77 2275.23,-1285.77 2271.73,-1295.77 2278.73,-1295.77"/>
</g>
<!-- step_2_filterShortReads__outReads&#45;&gt;step_4c_polishing_medaka -->
<g id="edge23" class="edge">
<title>step_2_filterShortReads__outReads&#45;&gt;step_4c_polishing_medaka</title>
<path fill="none" stroke="black" d="M2146.61,-1779.04C2352.82,-1757 2729.23,-1700.33 2729.23,-1580.22 2729.23,-1580.22 2729.23,-1580.22 2729.23,-1259.46 2729.23,-1197.43 2729.23,-1125.12 2729.23,-1083.43"/>
<polygon fill="black" stroke="black" points="2732.73,-1083.26 2729.23,-1073.26 2725.73,-1083.26 2732.73,-1083.26"/>
</g>
<!-- step_3_assembly__contigs_fasta -->
<g id="node30" class="node">
<title>step_3_assembly__contigs_fasta</title>
<ellipse fill="none" stroke="grey" cx="1453.23" cy="-1579.22" rx="165.97" ry="18"/>
<text text-anchor="start" x="1333.73" y="-1576.52" font-family="Times,serif" font-weight="bold" font-size="14.00">step_3_assembly/contigs_fasta</text>
</g>
<!-- step_3_assembly&#45;&gt;step_3_assembly__contigs_fasta -->
<g id="edge12" class="edge">
<title>step_3_assembly&#45;&gt;step_3_assembly__contigs_fasta</title>
<path fill="none" stroke="black" d="M1470.13,-1660.3C1466.8,-1644.51 1462.44,-1623.86 1458.99,-1607.49"/>
<polygon fill="black" stroke="black" points="1462.35,-1606.5 1456.87,-1597.44 1455.51,-1607.95 1462.35,-1606.5"/>
</g>
<!-- step_3_assembly__contigs_fasta&#45;&gt;step_4a_polishing_minimap2 -->
<g id="edge14" class="edge">
<title>step_3_assembly__contigs_fasta&#45;&gt;step_4a_polishing_minimap2</title>
<path fill="none" stroke="black" d="M1506.07,-1562.16C1559.7,-1545.86 1643.68,-1520.34 1707.52,-1500.93"/>
<polygon fill="black" stroke="black" points="1708.63,-1504.25 1717.18,-1498 1706.6,-1497.56 1708.63,-1504.25"/>
</g>
<!-- step_3_assembly__contigs_fasta&#45;&gt;step_4b_polishing_racon -->
<g id="edge20" class="edge">
<title>step_3_assembly__contigs_fasta&#45;&gt;step_4b_polishing_racon</title>
<path fill="none" stroke="black" d="M1463.84,-1560.98C1495.04,-1512.1 1592.11,-1372.88 1715.23,-1321.46 1778.99,-1294.83 1943.05,-1279.32 2077.21,-1270.76"/>
<polygon fill="black" stroke="black" points="2077.47,-1274.25 2087.23,-1270.13 2077.03,-1267.27 2077.47,-1274.25"/>
</g>
<!-- step_4a_polishing_minimap2__outPAF -->
<g id="node32" class="node">
<title>step_4a_polishing_minimap2__outPAF</title>
<ellipse fill="none" stroke="grey" cx="1922.23" cy="-1366.71" rx="197.66" ry="18"/>
<text text-anchor="start" x="1778.23" y="-1364.01" font-family="Times,serif" font-weight="bold" font-size="14.00">step_4a_polishing_minimap2/outPAF</text>
</g>
<!-- step_4a_polishing_minimap2&#45;&gt;step_4a_polishing_minimap2__outPAF -->
<g id="edge17" class="edge">
<title>step_4a_polishing_minimap2&#45;&gt;step_4a_polishing_minimap2__outPAF</title>
<path fill="none" stroke="black" d="M1825.46,-1447.79C1845.99,-1430.8 1873.33,-1408.18 1893.71,-1391.31"/>
<polygon fill="black" stroke="black" points="1895.95,-1394 1901.43,-1384.93 1891.49,-1388.61 1895.95,-1394"/>
</g>
<!-- step_4a_polishing_minimap2__outPAF&#45;&gt;step_4b_polishing_racon -->
<g id="edge19" class="edge">
<title>step_4a_polishing_minimap2__outPAF&#45;&gt;step_4b_polishing_racon</title>
<path fill="none" stroke="black" d="M1977.39,-1349.43C2032.63,-1333.11 2118.6,-1307.72 2184.01,-1288.4"/>
<polygon fill="black" stroke="black" points="2185.32,-1291.67 2193.91,-1285.48 2183.33,-1284.95 2185.32,-1291.67"/>
</g>
<!-- step_4b_polishing_racon__outAssembly -->
<g id="node34" class="node">
<title>step_4b_polishing_racon__outAssembly</title>
<ellipse fill="none" stroke="grey" cx="2386.23" cy="-1154.21" rx="204.16" ry="18"/>
<text text-anchor="start" x="2237.23" y="-1151.51" font-family="Times,serif" font-weight="bold" font-size="14.00">step_4b_polishing_racon/outAssembly</text>
</g>
<!-- step_4b_polishing_racon&#45;&gt;step_4b_polishing_racon__outAssembly -->
<g id="edge22" class="edge">
<title>step_4b_polishing_racon&#45;&gt;step_4b_polishing_racon__outAssembly</title>
<path fill="none" stroke="black" d="M2300.98,-1235.28C2318.75,-1218.59 2342.3,-1196.47 2360.15,-1179.71"/>
<polygon fill="black" stroke="black" points="2363.01,-1181.82 2367.9,-1172.42 2358.22,-1176.72 2363.01,-1181.82"/>
</g>
<!-- step_4b_polishing_racon__outAssembly&#45;&gt;step_4c_polishing_medaka -->
<g id="edge24" class="edge">
<title>step_4b_polishing_racon__outAssembly&#45;&gt;step_4c_polishing_medaka</title>
<path fill="none" stroke="black" d="M2440.2,-1136.8C2493.86,-1120.49 2577.08,-1095.2 2640.48,-1075.93"/>
<polygon fill="black" stroke="black" points="2641.52,-1079.27 2650.07,-1073.01 2639.49,-1072.57 2641.52,-1079.27"/>
</g>
<!-- step_4c_polishing_medaka__outConsensus -->
<g id="node36" class="node">
<title>step_4c_polishing_medaka__outConsensus</title>
<ellipse fill="none" stroke="grey" cx="2729.23" cy="-941.7" rx="221.76" ry="18"/>
<text text-anchor="start" x="2566.73" y="-939" font-family="Times,serif" font-weight="bold" font-size="14.00">step_4c_polishing_medaka/outConsensus</text>
</g>
<!-- step_4c_polishing_medaka&#45;&gt;step_4c_polishing_medaka__outConsensus -->
<g id="edge26" class="edge">
<title>step_4c_polishing_medaka&#45;&gt;step_4c_polishing_medaka__outConsensus</title>
<path fill="none" stroke="black" d="M2729.23,-1022.77C2729.23,-1006.98 2729.23,-986.33 2729.23,-969.96"/>
<polygon fill="black" stroke="black" points="2732.73,-969.91 2729.23,-959.91 2725.73,-969.91 2732.73,-969.91"/>
</g>
<!-- step_4c_polishing_medaka__outConsensus&#45;&gt;step_4d_cleaning_filterContigs -->
<g id="edge28" class="edge">
<title>step_4c_polishing_medaka__outConsensus&#45;&gt;step_4d_cleaning_filterContigs</title>
<path fill="none" stroke="black" d="M2785.32,-924.18C2840.77,-907.85 2926.54,-882.59 2991.83,-863.36"/>
<polygon fill="black" stroke="black" points="2993.12,-866.63 3001.72,-860.45 2991.14,-859.91 2993.12,-866.63"/>
</g>
<!-- step_4d_cleaning_filterContigs&#45;&gt;step_4d_cleaning_filterContigs__outFasta -->
<g id="edge30" class="edge">
<title>step_4d_cleaning_filterContigs&#45;&gt;step_4d_cleaning_filterContigs__outFasta</title>
<path fill="none" stroke="black" d="M3083.23,-810.26C3083.23,-796.9 3083.23,-780.06 3083.23,-765.28"/>
<polygon fill="black" stroke="black" points="3086.73,-764.96 3083.23,-754.96 3079.73,-764.96 3086.73,-764.96"/>
</g>
<!-- step_4e_cleaning_assemblyStats&#45;&gt;step_4e_cleaning_assemblyStats__outReport -->
<g id="edge33" class="edge">
<title>step_4e_cleaning_assemblyStats&#45;&gt;step_4e_cleaning_assemblyStats__outReport</title>
<path fill="none" stroke="black" d="M2879.23,-597.75C2879.23,-584.39 2879.23,-567.55 2879.23,-552.77"/>
<polygon fill="black" stroke="black" points="2882.73,-552.45 2879.23,-542.45 2875.73,-552.45 2882.73,-552.45"/>
</g>
<!-- step_5a_annotation_prodigal&#45;&gt;step_5a_annotation_prodigal__outProt -->
<g id="edge37" class="edge">
<title>step_5a_annotation_prodigal&#45;&gt;step_5a_annotation_prodigal__outProt</title>
<path fill="none" stroke="black" d="M3532.23,-597.75C3532.23,-584.39 3532.23,-567.55 3532.23,-552.77"/>
<polygon fill="black" stroke="black" points="3535.73,-552.45 3532.23,-542.45 3528.73,-552.45 3535.73,-552.45"/>
</g>
<!-- step_5b_annotation_diamond&#45;&gt;step_5b_annotation_diamond__alignment -->
<g id="edge41" class="edge">
<title>step_5b_annotation_diamond&#45;&gt;step_5b_annotation_diamond__alignment</title>
<path fill="none" stroke="black" d="M3897.23,-385.24C3897.23,-371.88 3897.23,-355.05 3897.23,-340.26"/>
<polygon fill="black" stroke="black" points="3900.73,-339.94 3897.23,-329.94 3893.73,-339.94 3900.73,-339.94"/>
</g>
<!-- step_5c_annotation_ideel&#45;&gt;step_5c_annotation_ideel__outFig -->
<g id="edge44" class="edge">
<title>step_5c_annotation_ideel&#45;&gt;step_5c_annotation_ideel__outFig</title>
<path fill="none" stroke="black" d="M4100.23,-172.48C4100.23,-164.59 4100.23,-155.67 4100.23,-147.18"/>
<polygon fill="black" stroke="black" points="4103.73,-147.12 4100.23,-137.12 4096.73,-147.12 4103.73,-147.12"/>
</g>
<!-- INPUT -->
<g id="node42" class="node">
<title>INPUT</title>
<ellipse fill="lightblue" stroke="lightblue" cx="4100.23" cy="-25" rx="41.69" ry="18"/>
<text text-anchor="middle" x="4100.23" y="-21.3" font-family="Times,serif" font-size="14.00">INPUT</text>
</g>
<!-- OUTPUT -->
<g id="node43" class="node">
<title>OUTPUT</title>
<ellipse fill="red" stroke="red" cx="4211.23" cy="-25" rx="51.19" ry="18"/>
<text text-anchor="middle" x="4211.23" y="-21.3" font-family="Times,serif" font-size="14.00">OUTPUT</text>
</g>
<!-- STEP -->
<g id="node44" class="node">
<title>STEP</title>
<polygon fill="grey" stroke="grey" points="4336.23,-43 4280.23,-43 4280.23,-7 4336.23,-7 4336.23,-43"/>
<text text-anchor="middle" x="4308.23" y="-21.3" font-family="Times,serif" font-size="14.00">STEP</text>
</g>
<!-- legend_text -->
<g id="node45" class="node">
<title>legend_text</title>
<polygon fill="none" stroke="black" points="4750.23,-50 4354.23,-50 4354.23,0 4750.23,0 4750.23,-50"/>
<text text-anchor="start" x="4436.23" y="-35.8" font-family="Times,serif" font-weight="bold" font-size="14.00">Long read assembly workflow</text>
<text text-anchor="start" x="4460.23" y="-21.8" font-family="Times,serif" font-size="14.00">CWL version: v1.2.0&#45;dev5</text>
<text text-anchor="start" x="4362.23" y="-7.8" font-family="Times,serif" font-style="italic" font-size="14.00">Implementation of nanopore reads assembly pipeline</text>
</g>
</g>
</svg>
